<svg width="22" height="28" viewBox="0 0 22 28" fill="none" xmlns="http://www.w3.org/2000/svg">
<g clip-path="url(#clip0_1_53)">
<path d="M13.8125 18.6875H8.1875C7.44158 18.6875 6.72621 18.9838 6.19876 19.5113C5.67132 20.0387 5.375 20.7541 5.375 21.5V23.375H7.25V21.5C7.25 21.2514 7.34877 21.0129 7.52459 20.8371C7.7004 20.6613 7.93886 20.5625 8.1875 20.5625H13.8125C14.0611 20.5625 14.2996 20.6613 14.4754 20.8371C14.6512 21.0129 14.75 21.2514 14.75 21.5V23.375H16.625V21.5C16.625 20.7541 16.3287 20.0387 15.8012 19.5113C15.2738 18.9838 14.5584 18.6875 13.8125 18.6875ZM11 17.75C11.7417 17.75 12.4667 17.5301 13.0834 17.118C13.7001 16.706 14.1807 16.1203 14.4645 15.4351C14.7484 14.7498 14.8226 13.9958 14.6779 13.2684C14.5333 12.541 14.1761 11.8728 13.6516 11.3483C13.1272 10.8239 12.459 10.4667 11.7316 10.3221C11.0042 10.1774 10.2502 10.2516 9.56494 10.5355C8.87971 10.8193 8.29404 11.2999 7.88199 11.9166C7.46993 12.5333 7.25 13.2583 7.25 14C7.25 14.9946 7.64509 15.9484 8.34835 16.6516C9.05161 17.3549 10.0054 17.75 11 17.75ZM11 12.125C11.3708 12.125 11.7334 12.235 12.0417 12.441C12.35 12.647 12.5904 12.9399 12.7323 13.2825C12.8742 13.6251 12.9113 14.0021 12.839 14.3658C12.7666 14.7295 12.588 15.0636 12.3258 15.3258C12.0636 15.588 11.7295 15.7666 11.3658 15.839C11.0021 15.9113 10.6251 15.8742 10.2825 15.7323C9.93986 15.5904 9.64702 15.35 9.44099 15.0417C9.23497 14.7334 9.125 14.3708 9.125 14C9.125 13.5027 9.32254 13.0258 9.67418 12.6742C10.0258 12.3225 10.5027 12.125 11 12.125Z" fill="#0068C9"/>
<path d="M19.4375 3.6875H16.625V2.75C16.625 2.25272 16.4275 1.77581 16.0758 1.42417C15.7242 1.07254 15.2473 0.875 14.75 0.875H7.25C6.75272 0.875 6.27581 1.07254 5.92418 1.42417C5.57254 1.77581 5.375 2.25272 5.375 2.75V3.6875H2.5625C2.06522 3.6875 1.58831 3.88504 1.23667 4.23667C0.885044 4.58831 0.6875 5.06522 0.6875 5.5625V25.25C0.6875 25.7473 0.885044 26.2242 1.23667 26.5758C1.58831 26.9275 2.06522 27.125 2.5625 27.125H19.4375C19.9348 27.125 20.4117 26.9275 20.7633 26.5758C21.115 26.2242 21.3125 25.7473 21.3125 25.25V5.5625C21.3125 5.06522 21.115 4.58831 20.7633 4.23667C20.4117 3.88504 19.9348 3.6875 19.4375 3.6875ZM7.25 2.75H14.75V6.5H7.25V2.75ZM19.4375 25.25H2.5625V5.5625H5.375V8.375H16.625V5.5625H19.4375V25.25Z" fill="#0068C9"/>
</g>
<defs>
<clipPath id="clip0_1_53">
<rect width="22" height="28" fill="white"/>
</clipPath>
</defs>
</svg>
