<?xml version="1.0" standalone="no"?>
<!DOCTYPE svg PUBLIC "-//W3C//DTD SVG 20010904//EN"
 "http://www.w3.org/TR/2001/REC-SVG-20010904/DTD/svg10.dtd">
<svg version="1.0" xmlns="http://www.w3.org/2000/svg"
 width="654.000000pt" height="162.000000pt" viewBox="0 0 654.000000 162.000000"
 preserveAspectRatio="xMidYMid meet">

<g transform="translate(0.000000,162.000000) scale(0.100000,-0.100000)"
fill="#000000" stroke="none">
<path d="M396 1200 c-27 -5 -51 -19 -74 -45 -32 -34 -34 -41 -30 -87 7 -67 27
-84 132 -112 95 -25 122 -43 112 -73 -18 -58 -148 -54 -162 4 -5 20 -12 23
-51 23 -44 0 -45 -1 -38 -27 16 -66 61 -100 143 -110 135 -16 230 84 177 186
-15 31 -56 50 -145 71 -72 16 -90 27 -90 50 0 31 28 50 74 50 42 0 76 -21 76
-48 0 -8 17 -12 45 -12 49 0 52 5 31 54 -25 60 -112 93 -200 76z"/>
<path d="M1293 1190 c-27 -11 -43 -40 -43 -79 0 -24 -4 -31 -20 -31 -15 0 -20
-7 -20 -25 0 -18 5 -25 20 -25 19 0 20 -7 20 -125 l0 -125 40 0 40 0 0 125 0
125 25 0 c20 0 25 5 25 25 0 20 -5 25 -26 25 -21 0 -25 4 -22 23 2 14 11 23
26 25 18 3 22 10 22 38 0 32 -2 34 -32 33 -18 0 -43 -4 -55 -9z"/>
<path d="M1505 1190 c-30 -12 -43 -31 -47 -70 -2 -27 -8 -36 -25 -38 -35 -5
-32 -52 2 -52 l25 0 0 -125 0 -125 40 0 40 0 0 125 0 125 25 0 c20 0 25 5 25
25 0 20 -5 25 -25 25 -20 0 -25 5 -25 25 0 20 5 25 25 25 22 0 25 4 25 35 0
33 -2 35 -32 34 -18 0 -42 -4 -53 -9z"/>
<path d="M1840 985 l0 -205 40 0 40 0 1 158 0 157 34 -145 c19 -80 34 -151 34
-157 1 -9 17 -13 45 -13 l43 0 34 152 34 153 3 -153 3 -152 39 0 40 0 0 205 0
205 -60 0 -59 0 -10 -37 c-5 -21 -22 -92 -37 -158 -15 -66 -29 -113 -31 -105
-2 8 -18 78 -36 155 l-33 140 -62 3 -62 3 0 -206z"/>
<path d="M708 1128 c-2 -36 -7 -44 -25 -46 -17 -2 -23 -10 -23 -27 0 -17 6
-25 23 -27 21 -3 22 -7 25 -113 3 -126 8 -135 79 -135 41 0 43 1 43 30 0 23
-4 30 -20 30 -25 0 -32 27 -28 115 3 64 5 70 26 73 16 2 22 10 22 27 0 17 -6
25 -22 27 -19 2 -24 10 -26 46 -3 41 -4 42 -37 42 -33 0 -34 -1 -37 -42z"/>
<path d="M5300 1125 c0 -38 -3 -45 -20 -45 -15 0 -20 -7 -20 -25 0 -18 5 -25
20 -25 19 0 20 -7 20 -105 0 -126 11 -145 85 -145 43 0 45 1 45 29 0 23 -5 30
-22 33 -22 3 -23 8 -26 96 l-3 92 26 0 c20 0 25 5 25 25 0 20 -5 25 -25 25
-23 0 -25 4 -25 45 l0 45 -40 0 -40 0 0 -45z"/>
<path d="M931 1063 c-16 -16 -32 -38 -36 -50 -6 -21 -3 -23 34 -23 23 0 41 5
41 10 0 17 46 33 74 26 17 -4 26 -13 26 -26 0 -20 -10 -25 -75 -36 -86 -15
-123 -54 -110 -120 11 -63 74 -88 141 -58 21 10 42 20 47 22 4 2 7 -3 7 -12 0
-12 11 -16 45 -16 42 0 58 11 35 25 -6 4 -10 53 -10 115 0 59 -3 116 -6 125
-11 27 -60 45 -123 45 -52 0 -65 -4 -90 -27z m139 -163 c0 -55 -69 -93 -100
-55 -27 33 0 57 98 84 1 1 2 -12 2 -29z"/>
<path d="M2351 1063 c-16 -16 -32 -38 -36 -50 -6 -21 -3 -23 34 -23 23 0 41 5
41 10 0 17 46 33 74 26 17 -4 26 -13 26 -26 0 -20 -10 -25 -75 -36 -86 -15
-123 -54 -110 -120 11 -63 74 -88 141 -58 21 10 42 20 47 22 4 2 7 -3 7 -12 0
-12 11 -16 45 -16 42 0 58 11 35 25 -6 4 -10 53 -10 115 0 59 -3 116 -6 125
-11 27 -60 45 -123 45 -52 0 -65 -4 -90 -27z m139 -163 c0 -55 -69 -93 -100
-55 -27 33 0 57 98 84 1 1 2 -12 2 -29z"/>
<path d="M2660 935 l0 -155 40 0 40 0 0 105 c0 92 3 108 20 125 22 22 42 25
71 10 17 -10 19 -22 19 -125 l0 -115 40 0 40 0 0 130 c0 126 -1 132 -25 155
-19 20 -34 25 -72 25 -28 0 -58 -7 -71 -16 -20 -14 -22 -14 -22 0 0 12 -10 16
-40 16 l-40 0 0 -155z"/>
<path d="M3049 1061 c-16 -16 -29 -39 -29 -50 0 -18 6 -21 38 -21 26 0 41 6
50 20 15 24 64 27 82 5 20 -24 -4 -42 -65 -50 -77 -9 -115 -42 -115 -99 0 -78
74 -117 150 -77 33 17 40 18 40 6 0 -11 12 -15 43 -15 l42 0 -3 117 c-2 65 -9
129 -15 143 -17 35 -53 50 -125 50 -57 0 -67 -3 -93 -29z m146 -171 c-13 -60
-105 -83 -105 -25 0 13 6 27 12 32 15 9 91 31 96 27 2 -1 1 -17 -3 -34z"/>
<path d="M3390 1060 c-49 -52 -58 -166 -19 -228 31 -50 117 -67 163 -31 l26
20 0 -30 c0 -58 -75 -95 -114 -56 -13 13 -96 22 -96 10 0 -21 29 -57 55 -70
42 -19 125 -19 171 0 55 23 64 57 64 250 l0 165 -40 0 c-34 0 -40 -3 -40 -20
l0 -21 -22 21 c-16 14 -35 20 -71 20 -42 0 -53 -5 -77 -30z m140 -50 c11 -6
22 -26 26 -45 12 -67 -15 -115 -66 -115 -37 0 -60 32 -60 85 0 71 45 104 100
75z"/>
<path d="M3753 1056 c-36 -33 -38 -37 -41 -109 -5 -93 12 -131 71 -158 50 -22
86 -24 131 -5 31 13 76 59 76 77 0 15 -81 10 -96 -6 -33 -33 -104 -6 -104 38
0 15 13 17 100 17 l100 0 0 40 c0 49 -20 91 -56 119 -20 16 -41 21 -85 21 -53
0 -63 -3 -96 -34z m137 -46 c32 -32 24 -40 -40 -40 -33 0 -60 4 -60 10 0 17
39 50 60 50 11 0 29 -9 40 -20z"/>
<path d="M4060 935 l0 -155 40 0 40 0 0 94 c0 117 9 146 48 146 46 0 52 -14
52 -132 l0 -108 40 0 40 0 0 101 c0 114 9 139 48 139 46 0 52 -15 52 -132 l0
-108 40 0 40 0 0 124 c0 119 -1 126 -26 155 -21 26 -33 31 -69 31 -27 0 -51
-7 -68 -20 l-26 -21 -21 21 c-28 28 -96 27 -127 -2 l-23 -21 0 21 c0 19 -6 22
-40 22 l-40 0 0 -155z"/>
<path d="M4625 1068 c-36 -28 -55 -76 -55 -139 0 -71 23 -114 74 -139 50 -23
84 -25 130 -6 31 13 76 59 76 77 0 15 -77 10 -90 -6 -19 -23 -76 -19 -94 7
-31 44 -23 48 90 48 l106 0 -7 48 c-14 93 -57 132 -148 132 -41 0 -61 -5 -82
-22z m123 -54 c41 -29 28 -44 -38 -44 -64 0 -72 8 -40 40 24 24 48 25 78 4z"/>
<path d="M4930 935 l0 -155 40 0 40 0 0 105 c0 92 3 108 20 125 25 25 52 26
73 2 14 -15 17 -40 17 -125 l0 -107 40 0 40 0 0 129 c0 125 -1 129 -26 155
-35 34 -108 37 -148 5 l-26 -20 0 20 c0 17 -6 21 -35 21 l-35 0 0 -155z"/>
<path d="M1077 365 c-21 -7 -60 -31 -85 -52 -90 -76 -130 -82 -206 -30 -169
113 -216 115 -334 13 -36 -31 -63 -46 -82 -46 -23 0 -28 -5 -32 -30 -3 -23 -1
-30 11 -30 43 0 96 26 147 70 89 78 123 76 239 -10 114 -85 166 -79 319 40 30
23 49 30 83 30 54 0 74 -10 134 -66 87 -80 165 -81 255 -4 106 93 141 93 249
3 37 -31 116 -63 157 -63 12 0 18 7 18 24 0 20 -7 26 -47 36 -27 6 -72 30
-103 53 -79 61 -90 66 -143 67 -56 0 -89 -15 -164 -76 -81 -66 -124 -62 -214
22 -66 60 -128 76 -202 49z"/>
</g>
</svg>
