<svg width="25" height="25" viewBox="0 0 25 25" fill="none" xmlns="http://www.w3.org/2000/svg">
<path d="M5.625 24.875C5.23542 24.875 4.90863 24.743 4.64463 24.479C4.38154 24.2159 4.25 23.8896 4.25 23.5C4.25 23.1104 4.38154 22.7841 4.64463 22.521C4.90863 22.257 5.23542 22.125 5.625 22.125H11.125V15.25L0.60625 3.425C0.46875 3.26458 0.354167 3.06383 0.2625 2.82275C0.170833 2.58258 0.125 2.34792 0.125 2.11875C0.125 1.56875 0.319792 1.09896 0.709375 0.709375C1.09896 0.319792 1.56875 0.125 2.11875 0.125H22.8812C23.4312 0.125 23.901 0.319792 24.2906 0.709375C24.6802 1.09896 24.875 1.58021 24.875 2.15312C24.875 2.35937 24.8292 2.58258 24.7375 2.82275C24.6458 3.06383 24.5312 3.26458 24.3937 3.425L13.875 15.25V22.125H19.375C19.7646 22.125 20.0909 22.257 20.354 22.521C20.618 22.7841 20.75 23.1104 20.75 23.5C20.75 23.8896 20.618 24.2159 20.354 24.479C20.0909 24.743 19.7646 24.875 19.375 24.875H5.625ZM6.24375 5.625H18.7562L21.2313 2.875H3.76875L6.24375 5.625ZM12.5 12.6375L16.3156 8.375H8.68438L12.5 12.6375Z" fill="#0090FF"/>
</svg>
