<svg width="26" height="26" viewBox="0 0 26 26" fill="none" xmlns="http://www.w3.org/2000/svg">
<path fill-rule="evenodd" clip-rule="evenodd" d="M21.7952 7H18.4348V3.5C18.4348 1.567 16.9302 0 15.0743 0H3.88391C2.02799 0 0.523438 1.567 0.523438 3.5V15.159C0.523438 17.092 2.02799 18.659 3.88391 18.659H7.24438V22.159C7.24438 24.092 8.74893 25.659 10.6049 25.659H21.7991C23.655 25.659 25.1595 24.092 25.1595 22.159V10.493C25.1595 8.56 23.655 6.993 21.7991 6.993L21.7952 7ZM2.76536 15.162V3.5C2.76536 2.85603 3.26656 2.334 3.88487 2.33398L15.0791 2.334C15.6974 2.334 16.1986 2.85603 16.1986 3.49998V15.159C16.1986 15.803 15.6974 16.325 15.0791 16.325L3.88393 16.325C3.26562 16.325 2.76443 15.803 2.76443 15.159L2.76536 15.162ZM22.9148 22.162C22.9147 22.806 22.4135 23.328 21.7952 23.328H10.6001C9.98176 23.328 9.48057 22.806 9.48057 22.162V18.662H15.0781C16.9341 18.662 18.4386 17.095 18.4386 15.162V9.33203H21.7991C22.4174 9.33205 22.9186 9.85408 22.9186 10.498L22.9148 22.162Z" fill="#FE6BBA"/>
</svg>
