<svg width="23" height="17" viewBox="0 0 23 17" fill="none" xmlns="http://www.w3.org/2000/svg">
<g clip-path="url(#clip0_1_34)">
<path d="M21.2222 0.166656H1.7778C1.40945 0.166656 1.05618 0.312985 0.795712 0.573452C0.535245 0.833919 0.388916 1.18719 0.388916 1.55554V15.4444C0.388916 15.8128 0.535245 16.1661 0.795712 16.4265C1.05618 16.687 1.40945 16.8333 1.7778 16.8333H21.2222C21.5906 16.8333 21.9439 16.687 22.2043 16.4265C22.4648 16.1661 22.6111 15.8128 22.6111 15.4444V1.55554C22.6111 1.18719 22.4648 0.833919 22.2043 0.573452C21.9439 0.312985 21.5906 0.166656 21.2222 0.166656ZM21.2222 15.4444H1.7778V1.55554H21.2222V15.4444Z" fill="#0068C9"/>
<path d="M5.24999 5.72222H17.75C17.9342 5.72222 18.1108 5.64906 18.241 5.51883C18.3713 5.38859 18.4444 5.21196 18.4444 5.02778C18.4444 4.8436 18.3713 4.66697 18.241 4.53673C18.1108 4.4065 17.9342 4.33334 17.75 4.33334H5.24999C5.06581 4.33334 4.88917 4.4065 4.75894 4.53673C4.62871 4.66697 4.55554 4.8436 4.55554 5.02778C4.55554 5.21196 4.62871 5.38859 4.75894 5.51883C4.88917 5.64906 5.06581 5.72222 5.24999 5.72222Z" fill="#0068C9"/>
<path d="M5.24999 8.5H17.75C17.9342 8.5 18.1108 8.42684 18.241 8.29661C18.3713 8.16637 18.4444 7.98974 18.4444 7.80556C18.4444 7.62138 18.3713 7.44475 18.241 7.31451C18.1108 7.18428 17.9342 7.11111 17.75 7.11111H5.24999C5.06581 7.11111 4.88917 7.18428 4.75894 7.31451C4.62871 7.44475 4.55554 7.62138 4.55554 7.80556C4.55554 7.98974 4.62871 8.16637 4.75894 8.29661C4.88917 8.42684 5.06581 8.5 5.24999 8.5Z" fill="#0068C9"/>
<path d="M5.24999 11.2778H12.1944C12.3786 11.2778 12.5552 11.2046 12.6855 11.0744C12.8157 10.9441 12.8889 10.7675 12.8889 10.5833C12.8889 10.3992 12.8157 10.2225 12.6855 10.0923C12.5552 9.96205 12.3786 9.88889 12.1944 9.88889H5.24999C5.06581 9.88889 4.88917 9.96205 4.75894 10.0923C4.62871 10.2225 4.55554 10.3992 4.55554 10.5833C4.55554 10.7675 4.62871 10.9441 4.75894 11.0744C4.88917 11.2046 5.06581 11.2778 5.24999 11.2778Z" fill="#0068C9"/>
</g>
<defs>
<clipPath id="clip0_1_34">
<rect width="23" height="17" fill="white"/>
</clipPath>
</defs>
</svg>
