<svg width="35" height="36" viewBox="0 0 35 36" fill="none" xmlns="http://www.w3.org/2000/svg">
<path d="M26.5203 25.057H26.7026" stroke="white" stroke-width="2.91802" stroke-linecap="round" stroke-linejoin="round"/>
<path d="M33.9065 14.5703V32.808C33.9065 33.2917 33.7144 33.7555 33.3723 34.0976C33.0303 34.4396 32.5664 34.6317 32.0827 34.6317H2.9025C2.41881 34.6317 1.95493 34.4396 1.6129 34.0976C1.27088 33.7555 1.07874 33.2917 1.07874 32.808V14.5703C1.07874 14.0866 1.27088 13.6227 1.6129 13.2807C1.95493 12.9387 2.41881 12.7465 2.9025 12.7465H32.0827C32.5664 12.7465 33.0303 12.9387 33.3723 13.2807C33.7144 13.6227 33.9065 14.0866 33.9065 14.5703ZM26.9944 12.7465L30.259 8.07771L21.3043 1.80396L13.6262 12.7465H26.9944ZM12.1855 1.80396L4.50741 12.7465H13.6262L18.2951 6.0898L12.1855 1.80396Z" stroke="white" stroke-width="1.68348" stroke-linecap="round" stroke-linejoin="round"/>
</svg>
