<svg width="42" height="41" viewBox="0 0 42 41" fill="none" xmlns="http://www.w3.org/2000/svg">
<path d="M40.6781 0.467896H34.1614C33.801 0.467896 33.5098 0.759113 33.5098 1.11956V16.1266C33.5098 17.454 33.6421 18.7868 33.9028 20.0886L35.2245 26.6999C35.3839 27.4976 35.4648 28.3134 35.4648 29.128V38.9164C35.4648 39.9943 36.3419 40.8714 37.4198 40.8714C38.4977 40.8714 39.3748 39.9943 39.3748 38.9164V29.128C39.3748 28.3134 39.4557 27.4968 39.6154 26.6994L40.937 20.0881C41.1974 18.7868 41.3298 17.4541 41.3298 16.1266V1.11964C41.3298 0.759188 41.0386 0.46797 40.6781 0.46797L40.6781 0.467896ZM40.0265 1.77123V3.07457H34.8131V1.77123H40.0265ZM34.8131 16.1079V14.8046H40.0265V16.1079H34.8131ZM34.8131 13.5013V4.37791H40.0265V13.5013H34.8131ZM37.4198 39.568C37.0602 39.568 36.7681 39.2759 36.7681 38.9163V35.658H38.0714V38.9163C38.0714 39.2759 37.7794 39.568 37.4198 39.568ZM38.3373 26.4445C38.1613 27.3254 38.0714 28.2294 38.0714 29.1286V34.355H36.7681V29.1286C36.7681 28.2288 36.6782 27.3254 36.5022 26.4442L35.1805 19.833C35.0208 19.0346 34.9178 18.2239 34.8625 17.4108H39.9776C39.9223 18.2242 39.8193 19.0347 39.6596 19.833L38.3373 26.4445Z" fill="white"/>
<path d="M36.1165 5.68115H38.7232V6.98449H36.1165V5.68115Z" fill="white"/>
<path d="M36.1165 8.28796H38.7232V9.5913H36.1165V8.28796Z" fill="white"/>
<path d="M36.1165 10.8947H38.7232V12.198H36.1165V10.8947Z" fill="white"/>
<path d="M30.903 23.3963V20.0181C30.903 19.6577 30.6118 19.3665 30.2513 19.3665H14.6113C14.2508 19.3665 13.9596 19.6577 13.9596 20.0181V23.3963C13.2029 23.666 12.6562 24.3828 12.6562 25.2315V38.9165C12.6562 39.9944 13.5334 40.8715 14.6113 40.8715H30.2513C31.3292 40.8715 32.2063 39.9944 32.2063 38.9165V25.2315C32.2063 24.3831 31.6597 23.6663 30.903 23.3963ZM29.5996 20.6698V23.2765H15.2629V20.6698H29.5996ZM14.6113 24.5798H30.2513C30.6109 24.5798 30.903 24.8719 30.903 25.2315V25.8831H13.9596V25.2315C13.9596 24.8719 14.2517 24.5798 14.6113 24.5798ZM30.2513 39.5682H14.6113C14.2517 39.5682 13.9596 39.2761 13.9596 38.9165V27.1865H30.903V38.9165C30.903 39.2761 30.6109 39.5682 30.2513 39.5682Z" fill="white"/>
<path d="M15.9148 8.93956H11.8849C11.7936 8.68267 11.6537 8.45081 11.4704 8.25589L13.4559 4.78194C13.5426 4.63066 13.5647 4.45086 13.5179 4.28271C13.4716 4.11514 13.3588 3.97258 13.2063 3.88909C11.2859 2.82229 8.81391 2.82229 6.89294 3.88909C6.74137 3.97317 6.62849 4.11601 6.58223 4.28271C6.53452 4.45086 6.55751 4.63066 6.64362 4.78194L8.62916 8.25589C8.44675 8.45081 8.30653 8.68267 8.21459 8.93956H4.18475C3.8243 8.93956 3.53308 9.23078 3.53308 9.59123C3.53308 11.6439 4.5184 13.601 6.16858 14.8267C6.28524 14.9134 6.42197 14.955 6.55696 14.955C6.7446 14.955 6.92963 14.8747 7.0588 14.7211L9.73124 11.5137C9.83539 11.5312 9.94041 11.5463 10.0498 11.5463C10.1592 11.5463 10.2642 11.5312 10.3692 11.5143L13.0417 14.7217C13.17 14.8756 13.355 14.9556 13.5435 14.9556C13.6785 14.9556 13.8152 14.914 13.9319 14.8273C15.5812 13.601 16.5665 11.644 16.5665 9.59121C16.5665 9.23076 16.2753 8.93954 15.9148 8.93954L15.9148 8.93956ZM11.9748 4.74475L10.3084 7.66214C10.2232 7.65138 10.1385 7.63625 10.0498 7.63625C9.96106 7.63625 9.87641 7.65137 9.79116 7.66243L8.12415 4.74564C9.34199 4.26183 10.7567 4.2627 11.9748 4.74476L11.9748 4.74475ZM6.47408 13.3862C5.58387 12.5519 5.0247 11.4508 4.87634 10.2431H8.21557C8.29761 10.4732 8.42096 10.681 8.57719 10.8622L6.47408 13.3862ZM9.39818 9.59145C9.39818 9.23187 9.69027 8.93978 10.0498 8.93978C10.4094 8.93978 10.7015 9.23187 10.7015 9.59145C10.7015 9.95103 10.4094 10.2431 10.0498 10.2431C9.69027 10.2431 9.39818 9.95103 9.39818 9.59145ZM13.6256 13.3862L11.5228 10.8622C11.6794 10.6809 11.8024 10.4732 11.8845 10.2431H15.2237C15.075 11.4507 14.5159 12.5519 13.6256 13.3862L13.6256 13.3862Z" fill="white"/>
<path d="M19.173 9.59126C19.173 4.5603 15.0806 0.467896 10.0497 0.467896C5.0187 0.467896 0.9263 4.5603 0.9263 9.59126C0.9263 14.6222 5.0187 18.7146 10.0497 18.7146C15.0806 18.7146 19.173 14.6222 19.173 9.59126ZM10.0497 17.4113C5.73763 17.4113 2.22964 13.9033 2.22964 9.59126C2.22964 5.27922 5.73763 1.77123 10.0497 1.77123C14.3617 1.77123 17.8697 5.27922 17.8697 9.59126C17.8697 13.9033 14.3617 17.4113 10.0497 17.4113Z" fill="white"/>
<path d="M26.3419 31.748H24.3869V29.793C24.3869 29.4326 24.0957 29.1414 23.7352 29.1414H21.1286C20.7681 29.1414 20.4769 29.4326 20.4769 29.793V31.748H18.5219C18.1614 31.748 17.8702 32.0392 17.8702 32.3997V35.0064C17.8702 35.3668 18.1614 35.658 18.5219 35.658H20.4769V37.6131C20.4769 37.9735 20.7681 38.2647 21.1286 38.2647H23.7352C24.0957 38.2647 24.3869 37.9735 24.3869 37.6131V35.658H26.3419C26.7024 35.658 26.9936 35.3668 26.9936 35.0064V32.3997C26.9936 32.0392 26.7024 31.748 26.3419 31.748ZM25.6902 34.3547H23.7352C23.3748 34.3547 23.0836 34.6459 23.0836 35.0064V36.9614H21.7802V35.0064C21.7802 34.6459 21.489 34.3547 21.1286 34.3547H19.1735V33.0514H21.1286C21.489 33.0514 21.7802 32.7602 21.7802 32.3997V30.4447H23.0836V32.3997C23.0836 32.7602 23.3748 33.0514 23.7352 33.0514H25.6902V34.3547Z" fill="white"/>
</svg>
