<svg width="30" height="41" viewBox="0 0 30 41" fill="none" xmlns="http://www.w3.org/2000/svg">
<path d="M9.44462 6.01692H20.0927V2.79196C20.0927 2.62173 19.9587 2.48781 19.7885 2.48781H9.74944C9.57921 2.48781 9.44474 2.62173 9.44474 2.79196L9.44462 6.01692ZM11.5281 37.7872V39.1732C11.5281 39.6369 11.1488 40.0166 10.6849 40.0166H7.52263C7.05898 40.0166 6.67944 39.6368 6.67944 39.1732V37.7858C2.65424 37.7388 0.165798 33.8528 0.437755 30.0925C0.872807 24.0631 1.30839 18.0329 1.74431 12.0038C1.96816 8.90319 4.4531 6.26924 7.54987 6.03438V2.7921C7.54987 1.58677 8.54343 0.592651 9.74932 0.592651H19.7884C20.9943 0.592651 21.9878 1.58677 21.9878 2.7921V6.03438C25.0805 6.27308 27.5709 8.90594 27.7942 12.0038C28.2299 18.0338 28.6654 24.0634 29.1008 30.0925C29.372 33.8631 26.8981 37.7337 22.8591 37.7858V39.1732C22.8591 39.6369 22.4799 40.0166 22.0159 40.0166H18.8537C18.39 40.0166 18.0105 39.6368 18.0105 39.1732V37.7872H11.5281ZM18.2735 26.5773C20.6308 27.8682 20.6308 30.3468 18.2735 31.6376C16.298 32.7189 13.2405 32.7189 11.2651 31.6376C8.90754 30.3468 8.90754 27.8682 11.2651 26.5773C13.2405 25.4958 16.2976 25.4958 18.2735 26.5773ZM17.3242 28.3203C15.9523 27.5693 13.5864 27.5693 12.2145 28.3203C11.2431 28.8519 11.2431 29.3626 12.2145 29.8947C13.5864 30.6457 15.9523 30.6457 17.3242 29.8947C18.2956 29.3625 18.2956 28.8519 17.3242 28.3203ZM25.4949 10.9807C25.1586 13.5426 24.861 16.8869 24.0338 18.95C22.5139 22.7409 20.8524 22.9304 17.1145 22.9304H12.4112C8.68458 22.9304 7.00983 22.7338 5.49897 18.9549C4.67149 16.8858 4.36018 13.4868 4.03788 10.9941C3.90616 11.3626 3.82201 11.7506 3.79341 12.1483C3.3578 18.1777 2.9222 24.2079 2.48685 30.2369C2.30067 32.8256 3.88387 35.7293 6.75268 35.7293H22.7765C25.6574 35.7293 27.2381 32.8349 27.0506 30.2369C26.6155 24.207 26.1802 18.1774 25.7446 12.1483C25.7154 11.7457 25.6293 11.3535 25.4943 10.9809L25.4949 10.9807ZM5.79409 8.74634L5.96706 9.94068C6.31742 12.3467 6.58939 16.1554 7.40337 18.1916C8.59905 21.1806 9.6504 20.8731 12.4114 20.8731H17.1148C19.8841 20.8731 20.9571 21.1107 22.1294 18.1867C22.9511 16.1368 23.2121 12.3418 23.5644 9.94209L23.7398 8.74747C23.0969 8.32424 22.3395 8.07427 21.5305 8.07427H8.00094C7.19134 8.07427 6.43538 8.32397 5.79375 8.74665L5.79409 8.74634Z" fill="white"/>
</svg>
