<svg width="40" height="44" viewBox="0 0 40 44" fill="none" xmlns="http://www.w3.org/2000/svg">
<path d="M24.2434 12.3711L24.9294 13.0521C25.0656 13.1873 25.2443 13.255 25.4224 13.255C25.6012 13.255 25.7793 13.1873 25.9154 13.0521C26.1881 12.7814 26.1881 12.3433 25.9154 12.0726L23.5265 9.70116L26.9252 6.32732L28.0307 7.42467C28.1669 7.55986 28.3456 7.62761 28.5237 7.62761C28.7018 7.62761 28.8805 7.55986 29.0167 7.42467C29.2894 7.15396 29.2894 6.71592 29.0167 6.44519L23.5186 0.987332C23.2465 0.716625 22.8046 0.716625 22.5319 0.987332C22.2592 1.25804 22.2592 1.69608 22.5319 1.96681L23.637 3.06384L20.2383 6.43768L17.8493 4.06623C17.5766 3.79552 17.1354 3.79552 16.8626 4.06623C16.5899 4.33693 16.5899 4.77498 16.8626 5.04571L17.5487 5.72672L11.0248 12.2037C10.8191 12.408 10.7626 12.7168 10.8829 12.9799C11.0033 13.2424 11.275 13.4038 11.5645 13.3846L13.0087 13.2881L14.0494 14.2824L14.0135 14.7696L13.4281 14.0993C13.2821 13.9323 13.0649 13.8443 12.8427 13.8629L11.2389 13.9972L10.6126 13.4923C10.3351 13.2689 9.93223 13.2891 9.67957 13.5402L5.21221 17.9749C4.27443 18.9058 4.15122 20.3434 4.84141 21.4083L4.61824 21.6296C4.22109 22.0238 4.00204 22.5501 4.00204 23.1107C4.00204 23.5847 4.15887 24.0335 4.44776 24.3993L0.243315 28.573C-0.0293879 28.8437 -0.0293879 29.2817 0.243315 29.5525C0.379508 29.6877 0.558238 29.7554 0.736334 29.7554C0.915064 29.7554 1.09316 29.6877 1.22935 29.5525L5.4338 25.3788C5.8027 25.6653 6.25447 25.8213 6.73193 25.8213C7.2967 25.8213 7.82657 25.6038 8.22398 25.2096L8.44716 24.988C8.88938 25.2707 9.4059 25.4232 9.94652 25.4232C10.6884 25.4232 11.3843 25.138 11.9059 24.62L24.2434 12.3711ZM24.624 4.04296L25.9396 5.34894L22.5409 8.72278L21.2253 7.41681L24.624 4.04296ZM6.73231 24.4353C6.54024 24.4353 6.36056 24.3619 6.2269 24.2292L5.605 23.6118C5.47071 23.4785 5.39738 23.3008 5.39738 23.1101C5.39738 22.9195 5.47134 22.7411 5.605 22.6084L5.78309 22.4316L7.41582 24.0524L7.23772 24.2292C7.10376 24.3619 6.92406 24.4353 6.73231 24.4353ZM9.94631 24.0373C9.5771 24.0373 9.23139 23.8961 8.97359 23.6396L6.19893 20.8847C5.66242 20.3521 5.66242 19.4854 6.19893 18.9529L10.2215 14.9598L10.5774 15.2472C10.7174 15.36 10.8961 15.4151 11.0755 15.3997L12.6063 15.2718L14.0583 16.9344C14.2428 17.1459 14.5377 17.2262 14.805 17.1383C15.0723 17.0504 15.2603 16.8112 15.2809 16.5323L15.4644 14.0597C15.4796 13.8546 15.4018 13.6526 15.2523 13.5101L13.7539 12.0775C13.6348 11.9641 13.4802 11.8969 13.3183 11.8856L18.5361 6.70566L23.2571 11.3921L21.3073 13.3277L19.904 11.9347C19.6313 11.664 19.1901 11.664 18.9173 11.9347C18.6446 12.2054 18.6446 12.6435 18.9173 12.9142L20.3206 14.3071L18.4986 16.1157L17.0954 14.7228C16.8227 14.4521 16.3814 14.4521 16.1087 14.7228C15.836 14.9935 15.836 15.4315 16.1087 15.7023L17.5119 17.0952L15.69 18.9038L14.2868 17.5108C14.0141 17.2401 13.5728 17.2401 13.3001 17.5108C13.0274 17.7815 13.0274 18.2196 13.3001 18.4903L14.7033 19.8833L12.8814 21.6918L11.4782 20.2989C11.2055 20.0282 10.7642 20.0282 10.4915 20.2989C10.2187 20.5696 10.2188 21.0077 10.4915 21.2784L11.8947 22.6713L10.9181 23.6407C10.661 23.8963 10.3158 24.0373 9.94631 24.0373ZM39.4865 26.0037L38.736 24.861C38.5671 24.6036 38.2478 24.4879 37.9516 24.5758L35.1972 25.3965C35.0033 25.4545 34.8439 25.5928 34.7617 25.7762C34.6788 25.9596 34.6801 26.1695 34.7658 26.3517L35.3296 27.5527L35.121 28.5955C35.0903 28.7499 35.1131 28.9094 35.1861 29.0493L35.5185 29.6859L34.3626 29.1344L34.6578 27.6541C34.7013 27.4364 34.6369 27.2107 34.4842 27.0481L33.6321 26.1389L34.2296 24.7636L36.5214 24.0341L38.2855 23.8125C38.5084 23.7848 38.7042 23.6515 38.8112 23.4558C38.9182 23.2601 38.9236 23.0247 38.8258 22.8236C38.4712 22.0969 38.0023 21.4282 37.4414 20.8439C37.7134 20.612 37.8871 20.2685 37.8871 19.885L37.8868 16.0084C37.8868 15.311 37.315 14.7434 36.6125 14.7434H24.5552C23.8526 14.7434 23.2809 15.311 23.2809 16.0084V19.8853C23.2809 20.2694 23.4545 20.6129 23.7275 20.8452C22.3571 22.2759 21.5682 24.1859 21.5682 26.1785L21.5679 39.7223C21.5679 41.9229 23.3713 43.7129 25.5879 43.7129H35.5801C37.7969 43.7129 39.6001 41.9227 39.6001 39.7223L39.6005 26.3818C39.6001 26.2479 39.5605 26.1162 39.4865 26.0037ZM37.8522 26.051L38.1837 26.5555H36.3999L36.3703 26.4928L37.8522 26.051ZM36.7957 31.8328C37.0659 31.9617 37.3894 31.9047 37.5983 31.6907C37.8075 31.4771 37.8551 31.1544 37.7167 30.8896L36.5357 28.6276L36.6738 27.9396H38.2046V37.2334H22.9624V27.9404H33.1781L32.8885 29.3923C32.827 29.7021 32.9838 30.014 33.2708 30.1508L36.7957 31.8328ZM36.4919 19.7662H34.5843V16.1286H36.4919V19.7662ZM31.2811 19.7662V16.1286H33.1888V19.7662H31.2811ZM27.9782 19.7662V16.1286H29.8858V19.7662H27.9782ZM24.6759 16.1286H26.5836V19.7662H24.6759V16.1286ZM25.4613 21.1509H35.7055C36.229 21.5534 36.6887 22.0334 37.0646 22.5707L36.282 22.669C36.2395 22.674 36.1976 22.6835 36.1569 22.6967L33.5017 23.5416C33.3096 23.6028 33.1537 23.743 33.074 23.9267L32.1709 26.006C32.0931 26.1847 32.0979 26.3835 32.1731 26.5556L22.9627 26.5553V26.1787C22.9627 24.2207 23.8927 22.357 25.4613 21.1509ZM35.5795 42.3282H25.5873C24.1399 42.3282 22.9622 41.1594 22.9622 39.7223V38.6175H38.2045V39.7223C38.2048 41.1593 37.0272 42.3282 35.5795 42.3282ZM32.4121 29.2661C32.4121 28.8835 32.0998 28.5737 31.7147 28.5737H29.4528C29.0674 28.5737 28.7553 28.8838 28.7553 29.2661V30.7721H27.2381C26.8527 30.7721 26.5407 31.0822 26.5407 31.4645V33.7098C26.5407 34.0924 26.8531 34.4022 27.2381 34.4022H28.7553V35.9082C28.7553 36.2908 29.0677 36.6006 29.4528 36.6006H31.7147C32.1001 36.6006 32.4121 36.2905 32.4121 35.9082V34.4022H33.9293C34.3147 34.4022 34.6268 34.0921 34.6268 33.7098V31.4645C34.6268 31.0819 34.3144 30.7721 33.9293 30.7721H32.4121V29.2661ZM33.2318 32.1565V33.0172H31.7147C31.3293 33.0172 31.0172 33.3273 31.0172 33.7095V35.2156H30.1505V33.7095C30.1505 33.3269 29.8382 33.0172 29.4531 33.0172H27.9359V32.1565H29.4531C29.8385 32.1565 30.1505 31.8464 30.1505 31.4642V29.9581H31.0172V31.4642C31.0172 31.8467 31.3296 32.1565 31.7147 32.1565H33.2318Z" fill="white"/>
</svg>
