<svg width="41" height="37" viewBox="0 0 41 37" fill="none" xmlns="http://www.w3.org/2000/svg">
<path d="M40.4622 8.47454C40.3192 8.30923 40.1224 8.22063 39.9071 8.18911L39.8568 4.12912C39.8509 3.69295 39.677 3.2847 39.3645 2.98024C39.0535 2.67519 38.6363 2.53514 38.2049 2.51611L37.7771 2.52087C37.3409 2.52622 36.9333 2.70075 36.6282 3.01324C36.3243 3.32544 36.1599 3.73782 36.1647 4.17339L36.214 8.23368C36.0029 8.27085 35.8052 8.36272 35.6664 8.5319C35.4841 8.7543 35.4112 9.05044 35.4636 9.32936L35.6937 10.8133C35.7633 11.1778 36.0437 11.457 36.3865 11.5533L36.5411 24.5066C36.5423 24.5828 36.5613 24.6586 36.597 24.7264L37.1238 25.7369L37.1643 29.1384C37.1678 29.406 37.3861 29.6203 37.6531 29.6203H37.659L38.9664 29.6049C39.0951 29.6037 39.2191 29.5508 39.3095 29.4577C39.4002 29.3652 39.4501 29.2406 39.4489 29.111L39.4085 25.7159L39.9148 24.6874C39.9493 24.6185 39.966 24.5426 39.966 24.4656L39.8129 11.5123C40.1536 11.4074 40.428 11.1181 40.4893 10.7393L40.6799 9.28208C40.7292 8.98684 40.6495 8.69189 40.4622 8.47427L40.4622 8.47454ZM37.3278 3.69473C37.4494 3.56956 37.6138 3.49939 37.7889 3.49671L38.2168 3.49196H38.2251C38.3967 3.49196 38.559 3.55826 38.6827 3.67838C38.8079 3.80058 38.878 3.9644 38.8792 4.14012L38.9292 8.16951L38.0895 8.17962L37.1902 8.19003L37.1414 4.16041C37.1396 3.98558 37.205 3.82057 37.3278 3.6948L37.3278 3.69473ZM38.4814 25.3914C38.479 25.3961 38.4796 25.4012 38.4775 25.4059C38.4626 25.4387 38.4573 25.4746 38.4499 25.5106C38.4442 25.5388 38.4347 25.5659 38.4338 25.5942C38.4335 25.6007 38.4299 25.6063 38.4302 25.6132L38.4671 28.6352L38.1359 28.6388L38.1002 25.6161C38.1002 25.6123 38.0981 25.6093 38.0978 25.6057C38.0966 25.5608 38.0833 25.5174 38.0693 25.4734C38.0633 25.4547 38.0613 25.4348 38.0529 25.4172C38.0497 25.4101 38.0503 25.4024 38.0467 25.3952L37.5163 24.3787L37.3637 11.5898L38.8369 11.5723L38.9883 24.3612L38.4814 25.3914ZM39.547 10.5877L39.3154 10.5904C39.3145 10.5904 39.3142 10.5901 39.3136 10.5901L37.4756 10.6121L36.6508 10.6216L36.3671 9.17696L39.715 9.14068L39.547 10.5877Z" fill="white"/>
<path d="M27.7092 5.48397C27.7092 4.17396 24.1526 4.07227 23.0635 4.07227C21.9742 4.07227 18.4178 4.17425 18.4178 5.48397C18.4178 5.83303 18.6744 6.09438 19.0654 6.2927L19.0713 10.2147C18.1898 9.21392 17.1245 8.37247 15.9018 7.74597C13.3431 6.43503 10.4263 6.20014 7.68976 7.08025C4.95258 7.96273 2.72325 9.85785 1.41178 12.4169C0.100848 14.9766 -0.135794 17.893 0.746069 20.629C1.62855 23.3662 3.52367 25.5955 6.08274 26.907C7.62498 27.6973 9.29655 28.0972 10.9806 28.0972C12.0914 28.0972 13.2076 27.9232 14.2952 27.5727C16.1463 26.9754 17.7837 25.8877 19.0613 24.4368L19.0913 24.4345L19.0991 30.0821C19.0991 32.2746 20.8833 34.0612 23.0776 34.0636H23.0812C24.1444 34.0636 25.1431 33.6501 25.8951 32.8993C26.6482 32.1471 27.063 31.1466 27.063 30.0824L27.0627 6.29263C27.4534 6.09401 27.7097 5.83266 27.7097 5.4839L27.7092 5.48397ZM18.7916 23.4784C18.6465 23.49 18.5252 23.5664 18.444 23.674C17.2687 25.0563 15.7318 26.0835 13.9954 26.6434C11.505 27.4456 8.85377 27.2315 6.52723 26.0387C4.20069 24.8461 2.47737 22.8189 1.67519 20.3303C0.873013 17.8417 1.08767 15.1893 2.27995 12.8621C3.47313 10.5356 5.4997 8.81226 7.98829 8.01009C10.4763 7.2073 13.1293 7.42257 15.4565 8.61484C17.783 9.80803 19.5063 11.8346 20.3085 14.3232C20.8479 15.9971 20.929 17.7814 20.5422 19.4839C20.5416 19.4865 20.5425 19.4889 20.5419 19.4916C20.5303 19.5475 20.5297 19.6034 20.5381 19.6605C20.5392 19.6685 20.5387 19.6762 20.5401 19.6843C20.5494 19.7318 20.5687 19.7758 20.5928 19.8198C20.6005 19.8344 20.6064 19.8493 20.6157 19.863C20.6237 19.8746 20.6258 19.8882 20.6347 19.8992L23.2711 23.1285L18.7916 23.4784ZM26.0852 30.0823C26.0852 30.8857 25.773 31.6406 25.2046 32.2085C24.6373 32.7752 23.8827 33.0874 23.0808 33.0874H23.0784C21.4217 33.085 20.0748 31.7369 20.0748 30.0814L20.0671 24.3583L24.2775 24.0294C24.4586 24.0152 24.617 23.9013 24.6887 23.7345C24.7603 23.5677 24.7327 23.3744 24.617 23.2338L21.5329 19.4545C21.7181 18.5408 21.7859 17.6105 21.7297 16.6829C22.1492 16.7414 22.5886 16.7825 23.051 16.7825C24.2173 16.7825 25.3859 16.5895 26.0854 16.1795L26.0852 30.0823ZM21.452 14.8775C21.9295 14.7779 22.465 14.7095 23.0507 14.7095C24.7407 14.7095 25.6669 15.1332 25.768 15.2055C25.6666 15.3824 24.7407 15.806 23.0507 15.806C22.539 15.806 22.0562 15.757 21.617 15.6791C21.5751 15.4097 21.5144 15.1439 21.452 14.8775V14.8775ZM26.0852 14.3343C24.9866 13.6945 22.7335 13.5942 21.1981 13.9163C20.9127 13.0617 20.5226 12.2625 20.0495 11.5216L20.0424 6.61993C21.13 6.86343 22.4668 6.89555 23.0641 6.89555C23.6611 6.89555 24.9979 6.86344 26.0855 6.61993L26.0849 14.3342L26.0852 14.3343ZM23.0638 5.91976C21.3177 5.91976 20.1301 5.68071 19.6157 5.48358C20.1301 5.28705 21.3176 5.04799 23.0638 5.04799C24.8101 5.04799 25.9969 5.28704 26.5107 5.48358C25.9969 5.6807 24.81 5.91976 23.0638 5.91976Z" fill="white"/>
<path d="M35.9313 26.4728L35.0373 26.4734L35.0364 25.1137V25.1134V25.1131L35.0352 23.0948C35.0352 23.0925 35.0367 23.0904 35.0367 23.0877C35.0367 23.0853 35.0355 23.0832 35.0352 23.0806L35.0337 21.0647C35.0337 21.0638 35.034 21.0635 35.034 21.0627C35.034 21.0618 35.0337 21.0615 35.0337 21.0606L35.0325 19.0393C35.0325 19.0381 35.0331 19.0375 35.0331 19.0364C35.0331 19.0352 35.0325 19.0346 35.0325 19.0334L35.031 17.0148C35.031 17.0133 35.0319 17.0124 35.0319 17.0109C35.0319 17.0098 35.031 17.0086 35.031 17.0071L35.0298 14.9903C35.0298 14.9885 35.0307 14.9871 35.0307 14.9856C35.0307 14.9838 35.0298 14.9826 35.0298 14.9808L35.0272 11.1563C35.0272 11.027 34.9748 10.903 34.883 10.8111C34.7923 10.7199 34.6683 10.6687 34.5387 10.6687L33.7243 10.6693L33.7234 9.10742C33.7234 8.9775 33.6711 8.85351 33.5792 8.76163C33.4885 8.67036 33.3646 8.61921 33.2349 8.61921H33.1689L33.1668 6.19837C33.1656 5.92899 32.9474 5.71106 32.678 5.71106L32.3313 5.71136L32.3108 2.63257C32.3102 2.55646 32.2885 2.48658 32.257 2.42236L32.2317 0.947632L31.5324 2.25316C31.4141 2.34295 31.3326 2.47883 31.3335 2.63849L31.354 5.71195L31.0139 5.71225C30.884 5.71225 30.76 5.76339 30.6681 5.85526C30.5762 5.94713 30.5251 6.07082 30.5251 6.20105L30.5272 8.62159H30.4047C30.1341 8.62159 29.9159 8.84042 29.9159 9.1098L29.9168 10.6722L29.1018 10.6728C28.8312 10.6728 28.613 10.8916 28.613 11.1616L28.6234 26.4783L27.7296 26.4789C27.5997 26.4789 27.4757 26.5306 27.3839 26.6225C27.292 26.7144 27.2408 26.838 27.2408 26.9683L27.2456 29.3085C27.2468 29.5773 27.465 29.7952 27.7344 29.7952L29.7416 29.7937V35.2951L28.8871 35.2957C28.6165 35.2957 28.3983 35.5145 28.3983 35.7845C28.3995 36.0539 28.6177 36.2718 28.8871 36.2718L34.7845 36.2677C35.0551 36.2677 35.2733 36.0488 35.2733 35.7789C35.2721 35.5095 35.0539 35.2916 34.7845 35.2916L33.93 35.2921V29.7908L35.9372 29.7893C36.0671 29.7893 36.1911 29.7375 36.283 29.6457C36.3749 29.5538 36.426 29.4295 36.426 29.2999L36.42 26.9596C36.4186 26.6906 36.2006 26.4729 35.9312 26.4729L35.9313 26.4728ZM32.1901 6.68813L32.1913 8.62016L31.5036 8.62076L31.5024 6.68873L32.1901 6.68813ZM30.8935 9.59832L32.7467 9.59654V10.6704L30.8935 10.6716V9.59832ZM34.0505 11.6457L34.0511 12.4737L33.1829 12.474C32.9136 12.474 32.6941 12.6929 32.6941 12.9622C32.6941 13.2322 32.9136 13.4504 33.1829 13.4504L34.0517 13.4501L34.0523 14.4994L33.5701 14.5C33.3007 14.5 33.0827 14.7194 33.0827 14.9888C33.0839 15.2582 33.3022 15.4761 33.5716 15.4761H33.5727L34.0532 15.4755L34.0538 16.5248L33.1853 16.5256C32.9148 16.5256 32.6965 16.7445 32.6965 17.0145C32.6977 17.2838 32.916 17.5018 33.1853 17.5018L34.0544 17.5009L34.055 18.5501L33.5739 18.5504C33.3046 18.5504 33.0851 18.7693 33.0851 19.0386C33.0863 19.3086 33.3046 19.5268 33.5739 19.5268L34.0556 19.5265L34.0562 20.5758L33.1886 20.5761C32.9193 20.5761 32.6998 20.7949 32.6998 21.0643C32.6998 21.3343 32.9193 21.5525 33.1886 21.5525L34.0568 21.5522L34.0574 22.6018L33.5772 22.6021C33.3078 22.6021 33.0884 22.8209 33.0884 23.0903C33.0896 23.3602 33.3078 23.5785 33.5772 23.5785L34.058 23.5782L34.0586 24.6277L33.1827 24.6286C32.9121 24.6286 32.6939 24.8475 32.6939 25.1174C32.695 25.3868 32.9133 25.6047 33.1827 25.6047L34.0592 25.6039L34.0598 26.4753L29.5999 26.4783L29.5904 11.6503L34.0505 11.6457ZM32.9528 35.2924L30.7193 35.2942V29.7933L32.9528 29.7915V35.2924ZM28.2224 28.8187L28.2188 27.4552L35.4438 27.4498L35.4474 28.8134L28.2224 28.8187Z" fill="white"/>
<path d="M18.6469 15.4353C18.7441 15.2786 18.7375 15.0788 18.6302 14.9287C18.5229 14.7785 18.3347 14.7063 18.1566 14.7482L16.3566 15.1576C16.4503 15.0887 16.5183 14.9899 16.5391 14.8752C16.6066 14.5116 16.6364 14.1387 16.6281 13.7656C16.5632 10.7668 14.0398 8.40691 11.0704 8.44466C8.95465 8.49045 7.1014 9.74334 6.24129 11.6531L5.47748 11.6299C5.29046 11.6406 5.12396 11.7301 5.04725 11.8981C4.97114 12.066 5.00265 12.2635 5.12842 12.3988L6.38227 13.7522C6.27523 13.7055 6.15511 13.6957 6.04629 13.7355C5.69901 13.8589 5.36095 14.0198 5.04164 14.213C2.47664 15.7695 1.65627 19.1231 3.2116 21.6871C4.21328 23.3373 5.97253 24.3086 7.85463 24.3086C8.03659 24.3086 8.22094 24.2825 8.40439 24.2637L8.76623 24.9378C8.84651 25.0873 9.00231 25.1792 9.16971 25.1792C9.18398 25.1792 9.19884 25.1786 9.21371 25.1768C9.39716 25.1596 9.55206 25.0332 9.60707 24.8569L10.1524 23.0941C10.1652 23.2097 10.2169 23.3177 10.3061 23.3935C10.5879 23.6343 10.8966 23.8463 11.2221 24.0247C12.0356 24.471 12.9288 24.6982 13.8317 24.6982C14.3431 24.6982 14.8572 24.6256 15.362 24.4787C16.7571 24.0717 17.9104 23.1461 18.6091 21.8721C19.6278 20.0162 19.469 17.7851 18.2455 16.0856L18.6469 15.4353ZM15.3454 12.1089L15.348 12.108C15.5719 12.6325 15.6995 13.1986 15.7123 13.7858C15.7158 13.9324 15.7117 14.0795 15.701 14.2249L13.5156 13.6886C13.5076 12.3339 13.025 11.1981 12.3115 10.6139C12.4039 10.6047 12.4839 10.5797 12.58 10.5758C13.7395 10.5348 14.8024 11.1211 15.3454 12.1089L15.3454 12.1089ZM6.85395 12.438C6.86406 12.4276 6.86971 12.413 6.87892 12.4014C6.90628 12.3672 6.93215 12.3322 6.9488 12.2908C6.95028 12.2873 6.95326 12.2849 6.95474 12.2813C7.61213 10.5464 9.23523 9.39937 11.0905 9.35948C11.6923 9.34759 12.2831 9.45403 12.8332 9.66841C12.7378 9.66603 12.6432 9.6574 12.5466 9.66186C12.1645 9.67554 11.8 9.72728 11.4632 9.81558C10.864 9.97346 10.3553 10.3145 9.96406 10.7685C9.93612 10.7968 9.90579 10.8182 9.87843 10.8485C9.85792 10.8711 9.86506 10.9029 9.85019 10.9282C9.60906 11.2478 9.41996 11.6094 9.31352 12.0191C9.30608 12.0334 9.30281 12.0494 9.29687 12.0649C9.29003 12.0922 9.27486 12.1148 9.26892 12.1425C9.26713 12.1535 9.271 12.1636 9.27011 12.1746C9.26892 12.1847 9.26327 12.1927 9.26297 12.2031C9.26238 12.2236 9.271 12.2415 9.27278 12.2614C9.27605 12.2914 9.27873 12.3203 9.28765 12.3485C9.29746 12.3806 9.31173 12.4086 9.32808 12.4371C9.33909 12.4565 9.3489 12.4749 9.36287 12.4924C9.38844 12.5257 9.41847 12.5528 9.45237 12.5781C9.46248 12.5855 9.47199 12.5932 9.4827 12.5998C9.52521 12.6262 9.571 12.6438 9.62154 12.6551C9.6266 12.6563 9.63046 12.6598 9.63582 12.6607C9.64176 12.6619 9.64712 12.6616 9.65306 12.6625C9.6715 12.6655 9.68755 12.6744 9.70688 12.675L9.7598 12.6762L8.10133 14.2603L6.54188 12.5775C6.66408 12.5733 6.77379 12.5204 6.85407 12.438L6.85395 12.438ZM4.24343 16.1594C4.58089 15.7062 5.00398 15.306 5.51569 14.9953C5.64146 14.9192 5.7708 14.8493 5.90251 14.7854L6.53076 16.9464C5.3617 17.6305 4.61927 18.6168 4.47001 19.5269C4.4159 19.4516 4.35376 19.3945 4.30262 19.3134C3.69429 18.3447 3.67259 17.1054 4.24345 16.1593L4.24343 16.1594ZM9.05505 23.5422L9.05475 23.5419C9.04613 23.5283 9.03245 23.5196 9.02264 23.5071C8.99588 23.4729 8.96912 23.4388 8.93493 23.4138C8.92928 23.4099 8.92215 23.4087 8.9165 23.4049C8.87368 23.3766 8.82789 23.3537 8.77854 23.3412C8.76635 23.338 8.75297 23.3403 8.74019 23.3383C8.69469 23.3305 8.6492 23.3261 8.60282 23.3329C8.59955 23.3332 8.59628 23.332 8.59301 23.3326C6.75939 23.6264 4.95615 22.7974 3.99428 21.2124C3.67525 20.6868 3.47902 20.1209 3.39219 19.548C3.43709 19.6322 3.47634 19.7184 3.52777 19.8001C3.73084 20.1242 3.9586 20.4138 4.20359 20.6612C4.65879 21.1205 5.23533 21.4036 5.85049 21.5053C5.86417 21.5085 5.87606 21.5145 5.89004 21.5175C5.92393 21.5249 5.95664 21.5192 5.98994 21.5192C6.10798 21.5332 6.22482 21.554 6.34465 21.554C6.661 21.554 6.98271 21.5047 7.29875 21.4039C7.31184 21.3994 7.32046 21.3896 7.33295 21.3843C7.34514 21.3789 7.35852 21.3792 7.37041 21.373C7.38617 21.3643 7.39568 21.3501 7.40995 21.3403C7.43523 21.3227 7.45842 21.3049 7.47923 21.2829C7.50153 21.2597 7.51937 21.2353 7.53602 21.2085C7.54821 21.1883 7.55921 21.169 7.56813 21.1473C7.58389 21.1107 7.5934 21.0736 7.59905 21.0337C7.60084 21.0191 7.60292 21.0052 7.60351 20.9903C7.60589 20.9421 7.59935 20.8955 7.58597 20.8476C7.58419 20.8416 7.58567 20.8354 7.58359 20.8294C7.58211 20.825 7.57854 20.822 7.57675 20.8176C7.56932 20.7961 7.56843 20.7738 7.55713 20.753L7.53216 20.7067L9.73295 21.351L9.05505 23.5422ZM16.0083 22.1133C15.4642 23.1412 14.3772 23.7652 13.2955 23.742L13.2946 23.7453C12.7294 23.6766 12.1758 23.5042 11.662 23.2211C11.5333 23.1507 11.4081 23.0745 11.2871 22.9922L12.8442 21.3676C13.6161 21.8061 14.4646 22.0767 15.1927 22.0357C15.537 22.0324 15.8379 21.9652 16.1085 21.8632C16.071 21.9471 16.0526 22.0291 16.0083 22.1133L16.0083 22.1133ZM16.2266 20.6805C16.0669 20.9553 15.6872 21.1155 15.1836 21.1209C14.6264 21.1387 13.8946 20.9187 13.2599 20.5506C13.1787 20.5036 13.1002 20.454 13.0238 20.4034C12.8404 20.28 12.593 20.3068 12.4399 20.467L10.2723 22.7273C10.2661 22.7338 10.2643 22.7427 10.2584 22.7496L10.7451 21.1767C10.7808 21.0593 10.7689 20.9329 10.7112 20.8253C10.6526 20.7168 10.5539 20.6371 10.4365 20.6023L6.74038 19.52C6.56585 19.4683 6.37318 19.5278 6.25574 19.6708C6.13949 19.8144 6.12105 20.0133 6.20816 20.1756L6.45256 20.6305C6.29647 20.6371 6.14275 20.6163 5.98963 20.5895C5.78894 20.5345 5.55941 20.4364 5.43393 20.2184C5.10985 19.6529 5.68547 18.4856 7.02847 17.7149C7.11142 17.668 7.19408 17.6237 7.27703 17.582C7.47505 17.483 7.57376 17.2574 7.51191 17.0451L6.63834 14.0385C6.63566 14.0296 6.62853 14.0228 6.62555 14.0141L7.74498 15.2228C7.82793 15.3129 7.94389 15.3652 8.06609 15.3694H8.08037C8.19781 15.3694 8.31109 15.3242 8.39612 15.2424L11.1818 12.5831C11.3153 12.4561 11.3593 12.2608 11.2933 12.0886C11.2273 11.9165 11.0643 11.8008 10.8803 11.7949L10.3638 11.7791C10.442 11.629 10.5431 11.4943 10.6534 11.3673C10.7991 11.2317 10.9954 11.1039 11.2285 11.1039H11.2308C11.8823 11.1057 12.6051 12.1879 12.6009 13.7391C12.6009 13.8333 12.5973 13.9267 12.592 14.0186C12.5789 14.2392 12.7255 14.4369 12.9399 14.4898L15.9803 15.2364C15.9868 15.2382 15.9937 15.2376 16.0002 15.2388L14.4018 15.6024C14.282 15.6298 14.1782 15.7038 14.114 15.8081C14.0498 15.9125 14.0295 16.0383 14.0587 16.1575L14.9694 19.8993C15.0128 20.078 15.16 20.2139 15.3419 20.2424C15.3663 20.2466 15.3901 20.2484 15.4139 20.2484C15.5706 20.2484 15.7189 20.1681 15.8031 20.0313L16.0748 19.5922C16.1658 19.7349 16.2318 19.8898 16.2868 20.0489C16.3311 20.243 16.3439 20.4782 16.2265 20.6804L16.2266 20.6805ZM17.8069 21.4316C17.514 21.9653 17.1245 22.4243 16.6625 22.7927C16.7145 22.7092 16.771 22.6295 16.8177 22.5412C16.9958 22.2037 17.1328 21.8624 17.2253 21.5258C17.3877 20.9294 17.3478 20.3199 17.151 19.7549C17.1403 19.7157 17.1367 19.6776 17.1239 19.6378C17.1025 19.5709 17.0651 19.5153 17.0196 19.4674C16.8676 19.1436 16.6678 18.8406 16.4002 18.5743C16.3854 18.5505 16.3658 18.5315 16.3464 18.5103C16.3295 18.4943 16.32 18.4741 16.3024 18.4583C16.2974 18.4544 16.2908 18.4571 16.2855 18.4533C16.2748 18.4452 16.2685 18.4336 16.2569 18.4265C16.1743 18.3757 16.0824 18.3623 15.9917 18.367C15.9816 18.3676 15.9733 18.3667 15.9629 18.3682C15.8535 18.381 15.7544 18.433 15.6786 18.5196C15.6768 18.5213 15.6742 18.5211 15.6724 18.5228C15.6712 18.5243 15.6721 18.5264 15.6706 18.5279C15.6569 18.5445 15.6385 18.5558 15.6269 18.5746L15.5989 18.6192L15.0572 16.391L17.2943 15.882C17.294 15.8823 17.2943 15.8826 17.294 15.8832C17.2411 15.9825 17.2301 16.0976 17.2563 16.2064C17.2575 16.2109 17.2563 16.2147 17.2575 16.2192C17.2738 16.279 17.3012 16.3366 17.3428 16.3881C18.5172 17.8251 18.6989 19.8047 17.8069 21.4316L17.8069 21.4316Z" fill="white"/>
</svg>
