<svg width="36" height="37" viewBox="0 0 36 37" fill="none" xmlns="http://www.w3.org/2000/svg">
<path d="M32.6258 3.71755H32.0136V2.49289C32.0136 1.14036 30.917 0.0438232 29.5642 0.0438232H6.29776C4.94497 0.0438232 3.84843 1.14036 3.84843 2.49289V3.71755H3.23623C1.88371 3.71755 0.78717 4.81409 0.78717 6.16661C0.78717 7.51939 1.88371 8.61593 3.23623 8.61593H3.26314L4.38376 33.2686C4.50855 35.2715 6.18933 36.8204 8.19584 36.7814H27.6666C29.6723 36.8191 31.3519 35.2702 31.4764 33.2681L32.5993 8.61607H32.6262C33.9787 8.61607 35.0752 7.51952 35.0752 6.16674C35.0752 4.81422 33.9787 3.71768 32.6262 3.71768L32.6258 3.71755ZM5.07283 2.49289C5.07283 1.81659 5.62097 1.26849 6.2975 1.26849H29.564C30.2405 1.26849 30.7886 1.81662 30.7886 2.49289V3.71755H5.07257L5.07283 2.49289ZM30.2549 33.2124C30.1588 34.5609 29.0174 35.5946 27.6659 35.5567H8.19517C6.84468 35.5933 5.70485 34.5603 5.60874 33.2129L4.48891 8.616H31.372L30.2549 33.2124ZM32.6256 7.3914H3.23577C2.55948 7.3914 2.01111 6.84326 2.01111 6.16674C2.01111 5.49045 2.55951 4.94234 3.23577 4.94234H32.6256C33.3019 4.94234 33.8502 5.49048 33.8502 6.16674C33.8502 6.84323 33.3018 7.3914 32.6256 7.3914Z" fill="white"/>
<path d="M15.4818 24.3789C15.7491 24.3792 15.9859 24.2057 16.0661 23.9505C16.1466 23.6955 16.052 23.4177 15.8327 23.2645C14.9983 22.6825 14.442 21.7813 14.2959 20.7744C14.2646 20.5579 14.1203 20.3741 13.9171 20.2926C13.7142 20.2112 13.4828 20.2445 13.3108 20.3795C13.1386 20.5148 13.0517 20.7316 13.0827 20.9484C13.278 22.2907 14.0199 23.4925 15.132 24.2687C15.2345 24.3405 15.3568 24.3789 15.4818 24.3789L15.4818 24.3789Z" fill="white"/>
<path d="M21.5664 20.7748C21.4203 21.7816 20.864 22.6829 20.0296 23.2648C19.8451 23.3881 19.7416 23.6013 19.759 23.8222C19.7764 24.0433 19.912 24.2376 20.1134 24.3303C20.3148 24.4231 20.5508 24.3995 20.73 24.2691C21.8424 23.4929 22.584 22.2911 22.7793 20.9488C22.8103 20.732 22.7234 20.5152 22.5514 20.3799C22.3792 20.2448 22.1481 20.2115 21.9449 20.293C21.7417 20.3745 21.5974 20.5582 21.5664 20.7748L21.5664 20.7748Z" fill="white"/>
<path d="M16.3563 16.9292C17.3534 16.4608 18.5076 16.4608 19.5047 16.9292C19.703 17.0291 19.94 17.0138 20.124 16.8892C20.3078 16.7644 20.4098 16.5499 20.3903 16.3285C20.3708 16.1074 20.233 15.9139 20.03 15.8234C18.7005 15.1964 17.1604 15.1964 15.8309 15.8234C15.628 15.9139 15.4901 16.1074 15.4706 16.3285C15.4511 16.5499 15.5531 16.7644 15.7369 16.8892C15.9209 17.0138 16.1579 17.0291 16.3563 16.9292H16.3563Z" fill="white"/>
<path d="M8.1344 22.7106C8.18309 22.7227 8.23306 22.7288 8.28303 22.7291C8.56389 22.7285 8.80836 22.5374 8.87653 22.265C9.20659 20.9529 10.1368 19.8741 11.3856 19.3541C12.6346 18.8344 14.0555 18.9346 15.2192 19.6248H15.2233L15.5185 19.7944C15.2656 21.0641 16.06 22.3075 17.3187 22.6114V23.3107C17.3156 25.6765 15.3985 27.5936 13.0325 27.5967C12.6246 27.5987 12.2184 27.5398 11.8276 27.4216C11.6165 27.3504 11.3833 27.3996 11.2187 27.5503C11.0545 27.7007 10.9848 27.9288 11.0371 28.1453C11.0893 28.3621 11.2551 28.5333 11.4701 28.5922C11.9768 28.7455 12.5034 28.8226 13.0325 28.8213C15.0987 28.8185 16.9896 27.6602 17.9309 25.8211C18.8722 27.6602 20.7631 28.8185 22.8293 28.8213C23.3585 28.8226 23.8851 28.7455 24.3917 28.5922C24.6067 28.5333 24.7725 28.3621 24.8248 28.1453C24.877 27.9288 24.8073 27.7007 24.6431 27.5503C24.4786 27.3996 24.2454 27.3504 24.0342 27.4216C23.6434 27.5398 23.2373 27.5987 22.8293 27.5967C20.4633 27.5936 18.5462 25.6765 18.5431 23.3107V22.6114C19.7947 22.3037 20.5837 21.0669 20.3348 19.8023L20.6306 19.6322L20.6403 19.626C21.8039 18.9344 23.2257 18.8332 24.4757 19.3528C25.7255 19.8725 26.6565 20.9522 26.9865 22.265C27.0544 22.5374 27.2992 22.7286 27.58 22.7291C27.6297 22.7288 27.6792 22.7227 27.7274 22.7106C28.0551 22.6284 28.2542 22.2963 28.1725 21.9685C27.5616 19.5159 25.3567 17.7961 22.8293 17.8002C22.7342 17.8002 22.6406 17.8143 22.5463 17.8192C23.9896 15.6154 23.6595 12.6963 21.7606 10.87C21.5174 10.6373 21.1318 10.6447 20.8976 10.8866C20.6633 11.1285 20.6685 11.5142 20.9091 11.7499C21.8836 12.6909 22.3554 14.0376 22.1814 15.3809C22.0072 16.7244 21.2076 17.9063 20.0256 18.5677L19.807 18.6938C19.3483 18.1282 18.6589 17.8 17.9309 17.8C17.2028 17.8 16.5135 18.1282 16.0548 18.6938L15.8362 18.5677H15.8331C14.6533 17.9048 13.8561 16.7232 13.6831 15.3809C13.5104 14.0386 13.9822 12.6938 14.9557 11.7535C15.1963 11.5178 15.2015 11.1324 14.9672 10.8905C14.733 10.6486 14.3473 10.6411 14.1042 10.8738C12.2053 12.6997 11.8752 15.6187 13.3184 17.8224C13.2211 17.814 13.1275 17.7999 13.0325 17.7999C10.5045 17.7952 8.29913 19.5152 7.68792 21.9682C7.64871 22.1258 7.67356 22.2926 7.75736 22.4317C7.84116 22.5709 7.97681 22.6714 8.1344 22.7106ZM17.9308 19.0246C18.6071 19.0246 19.1554 19.5729 19.1554 20.2492C19.1554 20.9255 18.607 21.4739 17.9308 21.4739C17.2545 21.4739 16.7061 20.9255 16.7061 20.2492C16.7061 19.5729 17.2545 19.0246 17.9308 19.0246Z" fill="white"/>
<path d="M22.2168 31.2705H9.35875C9.02075 31.2705 8.74655 31.5447 8.74655 31.8827C8.74655 32.221 9.02075 32.4952 9.35875 32.4952H22.2168C22.555 32.4952 22.8292 32.221 22.8292 31.8827C22.8292 31.5447 22.555 31.2705 22.2168 31.2705Z" fill="white"/>
<path d="M25.2783 31.2705H24.6661C24.3278 31.2705 24.0536 31.5447 24.0536 31.8827C24.0536 32.221 24.3278 32.4952 24.6661 32.4952H25.2783C25.6166 32.4952 25.8905 32.221 25.8905 31.8827C25.8905 31.5447 25.6166 31.2705 25.2783 31.2705Z" fill="white"/>
</svg>
