<svg width="29" height="31" viewBox="0 0 29 31" fill="none" xmlns="http://www.w3.org/2000/svg">
<path d="M20.866 7.4273C20.866 8.68515 20.4834 9.91475 19.7666 10.9606C19.0498 12.0065 18.0309 12.8216 16.8389 13.303C15.6469 13.7843 14.3353 13.9103 13.0698 13.6649C11.8044 13.4195 10.642 12.8138 9.72973 11.9244C8.8174 11.0349 8.1961 9.90172 7.94439 8.66804C7.69268 7.43436 7.82187 6.15561 8.31562 4.99351C8.80936 3.83141 9.64549 2.83815 10.7183 2.13932C11.791 1.4405 13.0523 1.0675 14.3425 1.0675C16.0726 1.0675 17.7319 1.73755 18.9553 2.93025C20.1787 4.12294 20.866 5.74058 20.866 7.4273ZM20.866 20.1469H7.81905C6.08891 20.1469 4.42964 20.8169 3.20626 22.0096C1.98287 23.2023 1.29558 24.82 1.29558 26.5067C1.29558 27.3501 1.63922 28.1589 2.25092 28.7552C2.86261 29.3516 3.69225 29.6866 4.55731 29.6866H24.1277C24.9928 29.6866 25.8224 29.3516 26.4341 28.7552C27.0458 28.1589 27.3895 27.3501 27.3895 26.5067C27.3895 24.82 26.7022 23.2023 25.4788 22.0096C24.2554 20.8169 22.5961 20.1469 20.866 20.1469Z" stroke="white" stroke-width="1.68348" stroke-linecap="round" stroke-linejoin="round"/>
</svg>
