<svg width="41" height="42" viewBox="0 0 41 42" fill="none" xmlns="http://www.w3.org/2000/svg">
<path d="M25.7114 12.0365C27.4134 10.3346 27.4134 7.62421 25.7114 5.9223C24.0095 4.2204 21.2992 4.2204 19.5973 5.9223C17.8954 7.62421 17.8954 10.3346 19.5973 12.0365C21.2992 13.7384 24.0095 13.7384 25.7114 12.0365ZM24.829 11.154C23.7573 12.2257 22.1187 12.3516 20.9212 11.5321L25.2071 7.24615C26.0266 8.44372 25.9004 10.0827 24.829 11.154L24.829 11.154ZM20.4797 6.80505C21.5514 5.73339 23.19 5.60748 24.3876 6.42695L20.1016 10.7129C19.2822 9.51534 19.4084 7.87635 20.4797 6.80507L20.4797 6.80505Z" fill="white"/>
<path d="M40.2716 33.0886H39.2633L39.263 15.629C39.263 14.6835 38.6327 13.9271 37.7503 13.7382L35.481 7.68731V1.57315C35.481 1.25801 35.2289 0.942871 34.8508 0.942871C34.5356 0.942871 34.2205 1.19504 34.2205 1.57315V7.68731L31.9513 13.7382C31.0688 13.9274 30.4386 14.6836 30.4386 15.629V33.0254H29.4302C29.1151 33.0254 28.7999 33.2776 28.7999 33.6557C28.7999 34.0338 29.0521 34.286 29.4302 34.286H31.3843L32.6449 40.0849H31.2581C30.9429 40.0849 30.6278 40.3371 30.6278 40.7152C30.6278 41.0304 30.88 41.3455 31.2581 41.3455H38.4436C38.7587 41.3455 39.0739 41.0933 39.0739 40.7152C39.0739 40.4001 38.8217 40.0849 38.4436 40.0849H37.1201L38.3807 34.286H40.3348C40.6499 34.286 40.9651 34.0338 40.9651 33.6557C40.9651 33.2776 40.6499 33.0884 40.2718 33.0884L40.2716 33.0886ZM34.914 9.57835L36.4897 13.7384H33.338L34.914 9.57835ZM31.6994 15.6292C31.6994 15.2511 32.0145 14.936 32.3926 14.936H37.3092C37.6873 14.936 38.0025 15.2511 38.0025 15.6292V16.8898H35.5443C35.2292 16.8898 34.914 17.142 34.914 17.5201C34.914 17.8982 35.1662 18.1503 35.5443 18.1503H38.0025V20.1674H36.6157C36.3005 20.1674 35.9854 20.4195 35.9854 20.7976C35.9854 21.1128 36.2376 21.4279 36.6157 21.4279H38.0025V23.445H35.5443C35.2292 23.445 34.914 23.6971 34.914 24.0752C34.914 24.4533 35.1662 24.7055 35.5443 24.7055H38.0025V26.7225H36.6157C36.3005 26.7225 35.9854 26.9747 35.9854 27.3528C35.9854 27.7309 36.2376 27.9831 36.6157 27.9831H38.0025V30.0001H35.5443C35.2292 30.0001 34.914 30.2523 34.914 30.6304C34.914 31.0085 35.1662 31.2607 35.5443 31.2607H38.0025V33.2148H31.6365V15.6289L31.6994 15.6292ZM35.8594 40.1483H33.9686L32.7081 34.3493H37.0573L35.8594 40.1483Z" fill="white"/>
<path d="M3.33566 41.3464H19.5977C21.1104 41.3464 22.371 40.0858 22.371 38.5731L22.3713 28.9292C22.3713 27.5425 21.5518 26.219 20.2913 25.6516L16.2571 23.8238V20.5462C17.1396 20.357 17.8328 19.5379 17.8328 18.5921V15.6926C17.8328 14.621 16.9504 13.7385 15.8787 13.7385L7.11736 13.7388C6.0457 13.7388 5.16325 14.6213 5.16325 15.6929V18.5924C5.16325 19.5379 5.85649 20.2943 6.73894 20.5465V23.8241L2.70481 25.6519C1.38162 26.219 0.562088 27.4795 0.562088 28.9292V38.5731C0.562088 40.0861 1.82266 41.3467 3.33536 41.3467L3.33566 41.3464ZM19.5977 40.1488H3.33566C2.45321 40.1488 1.75997 39.4556 1.75997 38.5731V29.4968H21.1101V38.51C21.1731 39.4557 20.4799 40.1489 19.5974 40.1489L19.5977 40.1488ZM16.5723 15.6929V18.5924C16.5723 19.0335 16.2571 19.3489 15.8157 19.3489H13.9876V14.9367H15.8154C16.1941 14.9364 16.5723 15.2515 16.5723 15.6929ZM10.2063 19.3486V14.9364H12.7906V19.3486H10.2063ZM6.36135 18.5921V15.6926C6.36135 15.2516 6.67649 14.9361 7.11789 14.9361H8.94571V19.3484H7.11759C6.73949 19.3486 6.36135 19.0335 6.36135 18.5921ZM3.14675 26.7235L7.559 24.7065C7.7482 24.5806 7.9371 24.3914 7.9371 24.1392V20.5465H14.9966V24.1392C14.9966 24.3914 15.1858 24.6435 15.3747 24.7065L19.787 26.7235C20.4173 27.0387 20.9216 27.606 21.1105 28.2992H1.88585C2.07476 27.606 2.51613 27.0386 3.14642 26.7235H3.14675Z" fill="white"/>
<path d="M13.4201 34.2237H12.0966V32.9002C12.0966 32.585 11.8444 32.2699 11.4663 32.2699C11.1511 32.2699 10.836 32.5221 10.836 32.9002V34.2237H9.51252C9.19738 34.2237 8.88224 34.4758 8.88224 34.8539C8.88224 35.2321 9.13441 35.4842 9.51252 35.4842H10.836V36.8077C10.836 37.1228 11.0882 37.438 11.4663 37.438C11.7814 37.438 12.0966 37.1858 12.0966 36.8077V35.4842H13.4201C13.7352 35.4842 14.0503 35.2321 14.0503 34.8539C14.0506 34.4758 13.7352 34.2237 13.4201 34.2237Z" fill="white"/>
<path d="M28.1695 15.2509C27.1611 14.2425 25.5221 14.2425 24.5138 15.2509L20.7318 19.0328C19.7235 20.0412 19.7235 21.6802 20.7318 22.6886C21.7402 23.6969 23.3792 23.6969 24.3876 22.6886L28.1695 18.9066C29.1779 17.8353 29.1779 16.1963 28.1695 15.2509ZM23.5051 21.8061C23.0008 22.3104 22.1183 22.3104 21.6143 21.8061C21.1099 21.3018 21.1099 20.4193 21.6143 19.9153L23.6313 17.8983L25.5221 19.7891L23.5051 21.8061ZM27.35 17.9612L26.4046 18.9698L24.5138 17.079L25.4592 16.1336C25.9636 15.6292 26.846 15.6292 27.35 16.1336C27.8544 16.6376 27.8544 17.4568 27.35 17.9612Z" fill="white"/>
<path d="M9.13472 4.09476L5.35279 7.87669C4.34442 8.88506 4.34442 10.524 5.35279 11.5324C6.36115 12.5408 8.00014 12.5408 9.0085 11.5324L12.7904 7.75048C13.7988 6.74211 13.7988 5.10313 12.7904 4.09476C11.7821 3.14909 10.1431 3.0861 9.13472 4.09476ZM8.12635 10.713C7.62201 11.2173 6.73957 11.2173 6.23553 10.713C5.73119 10.2086 5.73119 9.32617 6.23553 8.82214L8.25256 6.80511L10.1434 8.69592L8.12635 10.713ZM11.908 6.86803L10.9625 7.81347L9.07172 5.92266L10.0172 4.97699C10.5215 4.47265 11.4039 4.47265 11.908 4.97699C12.4753 5.48133 12.4753 6.36377 11.908 6.8681V6.86803Z" fill="white"/>
</svg>
