<svg width="24" height="24" viewBox="0 0 24 24" fill="none" xmlns="http://www.w3.org/2000/svg">
<g clip-path="url(#clip0_1_15)">
<path fill-rule="evenodd" clip-rule="evenodd" d="M6.82 23.471C2.804 23.471 0 20.555 0 16.383V7.095C0 2.922 2.8 0.00799561 6.82 0.00799561H16.707C20.725 0.00799561 23.528 2.922 23.528 7.095V16.383C23.528 20.555 20.728 23.471 16.707 23.471H6.82ZM16.703 21.045C19.41 21.045 21.092 19.259 21.092 16.383V7.095C21.092 4.21899 19.41 2.433 16.703 2.433H13.017V21.045H16.703ZM2.433 16.383C2.433 19.258 4.113 21.045 6.821 21.045H10.587V13.532H10.527H2.432L2.433 16.383ZM10.587 11.115V2.43298H6.82C4.113 2.43298 2.432 4.21898 2.432 7.09499V11.113H10.498C10.528 11.1123 10.5577 11.113 10.587 11.115Z" fill="#0068C9"/>
</g>
<defs>
<clipPath id="clip0_1_15">
<rect width="24" height="24" fill="white"/>
</clipPath>
</defs>
</svg>
