<svg width="590" height="239" viewBox="0 0 590 239" fill="none" xmlns="http://www.w3.org/2000/svg">
<path d="M119.178 0.242676C137.967 0.242676 156.489 4.68945 173.23 13.2194C189.971 21.7494 204.455 34.1204 215.499 49.3209C226.543 64.5214 233.832 82.1199 236.772 100.677C239.711 119.235 238.216 138.225 232.41 156.094L209.764 148.736C214.409 134.44 215.604 119.248 213.253 104.402C210.902 89.5564 205.07 75.4776 196.235 63.3172C187.4 51.1568 175.812 41.26 162.419 34.436C149.027 27.6121 134.209 24.0546 119.178 24.0546V0.242676Z" fill="#0068C9"/>
<path d="M232.408 156.101C224.637 180.013 209.495 200.851 189.154 215.628C168.812 230.406 144.314 238.364 119.171 238.362L119.172 214.55C139.286 214.552 158.885 208.185 175.158 196.363C191.432 184.541 203.545 167.871 209.762 148.741L232.408 156.101Z" fill="#34B53A"/>
<path d="M119.178 238.362C94.0347 238.362 69.5372 230.403 49.1961 215.624C28.855 200.845 13.7147 180.006 5.94508 156.094L28.5916 148.736C34.8073 167.866 46.9195 184.537 63.1924 196.36C79.4653 208.183 99.0633 214.55 119.178 214.55V238.362Z" fill="#FFC700"/>
<path d="M5.99059 156.234C-1.80853 132.331 -1.84032 106.573 5.89977 82.6508L28.5554 89.9811C22.3633 109.119 22.3887 129.725 28.628 148.847L5.99059 156.234Z" fill="#7239EA"/>
<path d="M5.91771 82.5954C13.6695 58.6772 28.7943 37.827 49.1244 23.0332L63.1351 42.2871C46.871 54.1221 34.7711 70.8022 28.5697 89.9368L5.91771 82.5954Z" fill="#0FC6C2"/>
<path d="M49.1065 23.0463C69.4338 8.24868 93.9239 0.266142 119.067 0.242727L119.089 24.0547C98.9747 24.0734 79.3826 30.4594 63.1207 42.2975L49.1065 23.0463Z" fill="#B5BDCB"/>
<path d="M109.348 97.4689V98.3209H112.372V106.037H113.344V98.3209H116.368V97.4689H109.348ZM120.089 99.6649C119.153 99.6649 118.421 99.9769 117.869 100.625C117.341 101.237 117.077 102.005 117.077 102.941C117.077 103.865 117.341 104.633 117.869 105.233C118.421 105.881 119.153 106.205 120.089 106.205C121.013 106.205 121.757 105.881 122.321 105.233C122.837 104.633 123.101 103.865 123.101 102.941C123.101 102.005 122.837 101.237 122.309 100.625C121.757 99.9769 121.013 99.6649 120.089 99.6649ZM120.089 100.469C120.737 100.469 121.253 100.721 121.637 101.225C121.961 101.681 122.129 102.245 122.129 102.941C122.129 103.613 121.961 104.189 121.637 104.645C121.253 105.149 120.737 105.401 120.089 105.401C119.429 105.401 118.913 105.149 118.553 104.645C118.217 104.189 118.061 103.625 118.061 102.941C118.061 102.245 118.217 101.681 118.553 101.225C118.913 100.721 119.429 100.469 120.089 100.469ZM126.005 97.8289L125.057 98.2249V99.8329H123.809V100.637H125.057V104.585C125.057 105.053 125.153 105.401 125.357 105.641C125.573 105.905 125.945 106.037 126.449 106.037H127.385V105.233H126.593C126.377 105.233 126.221 105.173 126.137 105.077C126.041 104.981 126.005 104.813 126.005 104.585V100.637H127.541V99.8329H126.005V97.8289ZM131.314 99.6649C130.57 99.6649 129.982 99.8089 129.526 100.097C129.022 100.409 128.698 100.901 128.566 101.549L129.514 101.621C129.61 101.225 129.814 100.925 130.138 100.733C130.426 100.541 130.798 100.457 131.254 100.457C132.334 100.457 132.874 100.973 132.874 102.017V102.341L131.386 102.365C130.45 102.377 129.73 102.557 129.226 102.893C128.65 103.253 128.374 103.781 128.374 104.489C128.374 104.993 128.566 105.413 128.95 105.737C129.322 106.049 129.814 106.205 130.438 106.205C131.014 106.205 131.53 106.073 131.986 105.821C132.37 105.605 132.694 105.329 132.934 104.993V106.037H133.834V102.053C133.834 101.333 133.642 100.769 133.282 100.361C132.85 99.8929 132.202 99.6649 131.314 99.6649ZM132.874 103.061V103.589C132.874 104.069 132.646 104.501 132.202 104.873C131.746 105.257 131.23 105.449 130.642 105.449C130.258 105.449 129.946 105.353 129.706 105.173C129.466 104.981 129.358 104.753 129.358 104.465C129.358 103.565 130.054 103.109 131.446 103.085L132.874 103.061ZM135.509 97.3009V106.037H136.457V97.3009H135.509Z" fill="#4E5969"/>
<path d="M76.4334 125.349C77.2014 125.349 77.9481 125.285 78.6734 125.157C79.3988 125.029 80.0494 124.816 80.6254 124.517C81.2228 124.218 81.7241 123.834 82.1294 123.365C82.5561 122.896 82.8334 122.32 82.9614 121.637H85.9374V144.037H81.9374V128.229H76.4334V125.349ZM105.159 127.301C105.073 126.384 104.743 125.648 104.167 125.093C103.612 124.517 102.855 124.229 101.895 124.229C101.233 124.229 100.657 124.357 100.167 124.613C99.6973 124.848 99.292 125.168 98.9507 125.573C98.6307 125.978 98.364 126.448 98.1507 126.981C97.9587 127.493 97.7987 128.037 97.6707 128.613C97.5427 129.189 97.4467 129.765 97.3827 130.341C97.34 130.896 97.2973 131.418 97.2547 131.909L97.3187 131.973C97.8093 131.077 98.4813 130.416 99.3347 129.989C100.209 129.541 101.148 129.317 102.151 129.317C103.26 129.317 104.252 129.509 105.127 129.893C106.001 130.277 106.737 130.81 107.335 131.493C107.953 132.154 108.423 132.944 108.743 133.861C109.063 134.778 109.223 135.77 109.223 136.837C109.223 137.925 109.041 138.938 108.679 139.877C108.337 140.794 107.836 141.605 107.175 142.309C106.513 142.992 105.724 143.525 104.807 143.909C103.889 144.293 102.876 144.485 101.767 144.485C100.124 144.485 98.7693 144.186 97.7027 143.589C96.6573 142.97 95.8253 142.138 95.2067 141.093C94.6093 140.026 94.1933 138.789 93.9587 137.381C93.724 135.952 93.6067 134.416 93.6067 132.773C93.6067 131.429 93.7453 130.074 94.0227 128.709C94.3213 127.344 94.8013 126.106 95.4627 124.997C96.124 123.866 96.988 122.949 98.0547 122.245C99.1427 121.541 100.476 121.189 102.055 121.189C102.951 121.189 103.793 121.338 104.583 121.637C105.372 121.936 106.065 122.352 106.663 122.885C107.281 123.418 107.783 124.058 108.167 124.805C108.551 125.552 108.764 126.384 108.807 127.301H105.159ZM101.639 141.445C102.3 141.445 102.876 141.317 103.367 141.061C103.857 140.784 104.263 140.432 104.583 140.005C104.924 139.578 105.169 139.088 105.319 138.533C105.489 137.957 105.575 137.37 105.575 136.773C105.575 136.176 105.489 135.6 105.319 135.045C105.169 134.49 104.924 134.01 104.583 133.605C104.263 133.178 103.857 132.837 103.367 132.581C102.876 132.325 102.3 132.197 101.639 132.197C100.977 132.197 100.391 132.325 99.8787 132.581C99.388 132.816 98.972 133.146 98.6307 133.573C98.2893 133.978 98.0333 134.458 97.8627 135.013C97.692 135.568 97.6067 136.154 97.6067 136.773C97.6067 137.392 97.692 137.978 97.8627 138.533C98.0333 139.088 98.2893 139.589 98.6307 140.037C98.972 140.464 99.388 140.805 99.8787 141.061C100.391 141.317 100.977 141.445 101.639 141.445ZM119.196 121.189C120.796 121.189 122.097 121.562 123.1 122.309C124.124 123.034 124.913 123.973 125.468 125.125C126.044 126.256 126.428 127.504 126.62 128.869C126.833 130.234 126.94 131.557 126.94 132.837C126.94 134.117 126.833 135.44 126.62 136.805C126.428 138.17 126.044 139.429 125.468 140.581C124.913 141.712 124.124 142.65 123.1 143.397C122.097 144.122 120.796 144.485 119.196 144.485C117.596 144.485 116.284 144.122 115.26 143.397C114.257 142.65 113.468 141.712 112.892 140.581C112.337 139.429 111.953 138.17 111.74 136.805C111.548 135.44 111.452 134.117 111.452 132.837C111.452 131.557 111.548 130.234 111.74 128.869C111.953 127.504 112.337 126.256 112.892 125.125C113.468 123.973 114.257 123.034 115.26 122.309C116.284 121.562 117.596 121.189 119.196 121.189ZM119.196 141.445C119.985 141.445 120.647 141.221 121.18 140.773C121.713 140.304 122.129 139.685 122.428 138.917C122.748 138.128 122.972 137.21 123.1 136.165C123.228 135.12 123.292 134.01 123.292 132.837C123.292 131.664 123.228 130.565 123.1 129.541C122.972 128.496 122.748 127.578 122.428 126.789C122.129 126 121.713 125.381 121.18 124.933C120.647 124.464 119.985 124.229 119.196 124.229C118.385 124.229 117.713 124.464 117.18 124.933C116.668 125.381 116.252 126 115.932 126.789C115.633 127.578 115.42 128.496 115.292 129.541C115.164 130.565 115.1 131.664 115.1 132.837C115.1 134.01 115.164 135.12 115.292 136.165C115.42 137.21 115.633 138.128 115.932 138.917C116.252 139.685 116.668 140.304 117.18 140.773C117.713 141.221 118.385 141.445 119.196 141.445ZM130.289 139.717H134.737V144.037H130.289V139.717ZM145.883 121.189C147.483 121.189 148.785 121.562 149.787 122.309C150.811 123.034 151.601 123.973 152.155 125.125C152.731 126.256 153.115 127.504 153.307 128.869C153.521 130.234 153.627 131.557 153.627 132.837C153.627 134.117 153.521 135.44 153.307 136.805C153.115 138.17 152.731 139.429 152.155 140.581C151.601 141.712 150.811 142.65 149.787 143.397C148.785 144.122 147.483 144.485 145.883 144.485C144.283 144.485 142.971 144.122 141.947 143.397C140.945 142.65 140.155 141.712 139.579 140.581C139.025 139.429 138.641 138.17 138.427 136.805C138.235 135.44 138.139 134.117 138.139 132.837C138.139 131.557 138.235 130.234 138.427 128.869C138.641 127.504 139.025 126.256 139.579 125.125C140.155 123.973 140.945 123.034 141.947 122.309C142.971 121.562 144.283 121.189 145.883 121.189ZM145.883 141.445C146.673 141.445 147.334 141.221 147.867 140.773C148.401 140.304 148.817 139.685 149.115 138.917C149.435 138.128 149.659 137.21 149.787 136.165C149.915 135.12 149.979 134.01 149.979 132.837C149.979 131.664 149.915 130.565 149.787 129.541C149.659 128.496 149.435 127.578 149.115 126.789C148.817 126 148.401 125.381 147.867 124.933C147.334 124.464 146.673 124.229 145.883 124.229C145.073 124.229 144.401 124.464 143.867 124.933C143.355 125.381 142.939 126 142.619 126.789C142.321 127.578 142.107 128.496 141.979 129.541C141.851 130.565 141.787 131.664 141.787 132.837C141.787 134.01 141.851 135.12 141.979 136.165C142.107 137.21 142.321 138.128 142.619 138.917C142.939 139.685 143.355 140.304 143.867 140.773C144.401 141.221 145.073 141.445 145.883 141.445ZM158.353 135.845H165.137V125.989H165.073L158.353 135.845ZM171.473 138.725H168.593V144.037H165.137V138.725H155.537V135.109L165.137 121.637H168.593V135.845H171.473V138.725Z" fill="#1D2129"/>
<path d="M261.298 38.2535V49.6775H262.594V38.2535H261.298ZM268.711 41.1815C268.167 41.1815 267.671 41.3095 267.223 41.5655C266.775 41.8055 266.407 42.1575 266.119 42.6215V41.4055H264.839V49.6775H266.119V44.6855C266.167 43.9335 266.407 43.3415 266.855 42.8935C267.271 42.4775 267.767 42.2695 268.343 42.2695C269.783 42.2695 270.519 43.0695 270.519 44.6855V49.6775H271.799V44.5895C271.799 42.3175 270.759 41.1815 268.711 41.1815ZM279.888 38.0295V42.9255C279.248 41.7575 278.336 41.1815 277.152 41.1815C275.968 41.1815 275.056 41.6135 274.384 42.5095C273.76 43.3095 273.456 44.3015 273.456 45.5175C273.456 46.7655 273.76 47.7895 274.384 48.5895C275.056 49.4535 276 49.9015 277.216 49.9015C278.464 49.9015 279.392 49.3735 279.968 48.3175V49.6775H281.168V38.0295H279.888ZM277.424 42.2375C278.16 42.2375 278.768 42.5255 279.232 43.1335C279.68 43.7255 279.92 44.5095 279.92 45.4695V45.6295C279.92 46.5575 279.712 47.3095 279.312 47.8855C278.848 48.5255 278.208 48.8455 277.376 48.8455C276.48 48.8455 275.808 48.5095 275.36 47.8695C274.96 47.2935 274.768 46.5095 274.768 45.5175C274.768 44.5255 274.96 43.7575 275.376 43.1975C275.824 42.5575 276.512 42.2375 277.424 42.2375ZM284.207 38.2855C283.935 38.2855 283.711 38.3655 283.519 38.5575C283.327 38.7175 283.247 38.9415 283.247 39.2295C283.247 39.5015 283.327 39.7255 283.519 39.9175C283.711 40.0935 283.935 40.1895 284.207 40.1895C284.479 40.1895 284.703 40.0935 284.895 39.9175C285.087 39.7255 285.183 39.5015 285.183 39.2295C285.183 38.9415 285.087 38.7175 284.895 38.5575C284.703 38.3655 284.479 38.2855 284.207 38.2855ZM283.567 41.4055V49.6775H284.847V41.4055H283.567ZM290.813 41.1815C289.581 41.1815 288.605 41.6135 287.901 42.4935C287.245 43.2935 286.925 44.3175 286.925 45.5815C286.925 46.8455 287.245 47.8695 287.901 48.6535C288.589 49.4855 289.549 49.9015 290.797 49.9015C291.821 49.9015 292.637 49.6295 293.261 49.1015C293.901 48.5575 294.301 47.7415 294.493 46.6855H293.213C293.021 48.1095 292.205 48.8295 290.797 48.8295C289.965 48.8295 289.325 48.5255 288.893 47.9495C288.445 47.3735 288.237 46.5735 288.237 45.5655C288.237 44.5575 288.461 43.7575 288.909 43.1655C289.373 42.5575 290.013 42.2535 290.813 42.2535C291.469 42.2535 291.997 42.3975 292.413 42.7175C292.813 43.0375 293.069 43.5175 293.181 44.1575H294.445C294.301 43.1495 293.917 42.3975 293.277 41.9015C292.653 41.4215 291.837 41.1815 290.813 41.1815ZM299.595 41.1815C298.603 41.1815 297.819 41.3735 297.211 41.7575C296.539 42.1735 296.107 42.8295 295.931 43.6935L297.195 43.7895C297.323 43.2615 297.595 42.8615 298.027 42.6055C298.411 42.3495 298.907 42.2375 299.515 42.2375C300.955 42.2375 301.675 42.9255 301.675 44.3175V44.7495L299.691 44.7815C298.443 44.7975 297.483 45.0375 296.811 45.4855C296.043 45.9655 295.675 46.6695 295.675 47.6135C295.675 48.2855 295.931 48.8455 296.443 49.2775C296.939 49.6935 297.595 49.9015 298.427 49.9015C299.195 49.9015 299.883 49.7255 300.491 49.3895C301.003 49.1015 301.435 48.7335 301.755 48.2855V49.6775H302.955V44.3655C302.955 43.4055 302.699 42.6535 302.219 42.1095C301.643 41.4855 300.779 41.1815 299.595 41.1815ZM301.675 45.7095V46.4135C301.675 47.0535 301.371 47.6295 300.779 48.1255C300.171 48.6375 299.483 48.8935 298.699 48.8935C298.187 48.8935 297.771 48.7655 297.451 48.5255C297.131 48.2695 296.987 47.9655 296.987 47.5815C296.987 46.3815 297.915 45.7735 299.771 45.7415L301.675 45.7095ZM307.141 38.7335L305.877 39.2615V41.4055H304.213V42.4775H305.877V47.7415C305.877 48.3655 306.005 48.8295 306.277 49.1495C306.565 49.5015 307.061 49.6775 307.733 49.6775H308.981V48.6055H307.925C307.637 48.6055 307.429 48.5255 307.317 48.3975C307.189 48.2695 307.141 48.0455 307.141 47.7415V42.4775H309.189V41.4055H307.141V38.7335ZM314.316 41.1815C313.068 41.1815 312.092 41.5975 311.356 42.4615C310.652 43.2775 310.3 44.3015 310.3 45.5495C310.3 46.7815 310.652 47.8055 311.356 48.6055C312.092 49.4695 313.068 49.9015 314.316 49.9015C315.548 49.9015 316.54 49.4695 317.292 48.6055C317.98 47.8055 318.332 46.7815 318.332 45.5495C318.332 44.3015 317.98 43.2775 317.276 42.4615C316.54 41.5975 315.548 41.1815 314.316 41.1815ZM314.316 42.2535C315.18 42.2535 315.868 42.5895 316.38 43.2615C316.812 43.8695 317.036 44.6215 317.036 45.5495C317.036 46.4455 316.812 47.2135 316.38 47.8215C315.868 48.4935 315.18 48.8295 314.316 48.8295C313.436 48.8295 312.748 48.4935 312.268 47.8215C311.82 47.2135 311.612 46.4615 311.612 45.5495C311.612 44.6215 311.82 43.8695 312.268 43.2615C312.748 42.5895 313.436 42.2535 314.316 42.2535ZM323.627 41.1815C323.051 41.1815 322.555 41.3575 322.123 41.7095C321.771 41.9815 321.483 42.3655 321.259 42.8455V41.4055H319.995V49.6775H321.259V45.2935C321.259 44.5255 321.467 43.8695 321.915 43.3255C322.347 42.7495 322.891 42.4775 323.531 42.4775C323.931 42.4775 324.347 42.5255 324.763 42.6535V41.3735C324.459 41.2455 324.075 41.1815 323.627 41.1815ZM328.767 41.1815C327.839 41.1815 327.071 41.3895 326.495 41.8055C325.871 42.2215 325.567 42.7655 325.567 43.4695C325.567 44.1735 325.871 44.7015 326.511 45.0855C326.895 45.3415 327.583 45.5815 328.559 45.8215C329.455 46.0455 330.047 46.2215 330.319 46.3495C330.831 46.6055 331.103 46.9575 331.103 47.4215C331.103 48.3495 330.351 48.8295 328.879 48.8295C328.175 48.8295 327.647 48.7015 327.295 48.4455C326.943 48.1575 326.703 47.6935 326.607 47.0375H325.359C325.551 48.9415 326.735 49.9015 328.911 49.9015C331.247 49.9015 332.415 49.0375 332.415 47.3415C332.415 46.6215 332.079 46.0615 331.423 45.6455C330.991 45.3735 330.287 45.1175 329.295 44.8775C328.463 44.6535 327.887 44.4775 327.583 44.3335C327.103 44.0935 326.879 43.7895 326.879 43.4375C326.879 43.0695 327.055 42.7815 327.407 42.5735C327.727 42.3495 328.175 42.2535 328.751 42.2535C329.407 42.2535 329.919 42.3815 330.271 42.6375C330.591 42.8615 330.799 43.2455 330.911 43.7575H332.159C331.935 42.0295 330.815 41.1815 328.767 41.1815Z" fill="#4E5969"/>
<path d="M264.478 66.4775H277.51V70.1495H267.538L266.242 76.5575L266.314 76.6295C266.866 76.0055 267.562 75.5375 268.402 75.2255C269.266 74.8895 270.118 74.7215 270.958 74.7215C272.206 74.7215 273.322 74.9375 274.306 75.3695C275.29 75.7775 276.118 76.3655 276.79 77.1335C277.462 77.8775 277.966 78.7655 278.302 79.7975C278.662 80.8295 278.842 81.9455 278.842 83.1455C278.842 84.1535 278.674 85.1975 278.338 86.2775C278.026 87.3335 277.51 88.3055 276.79 89.1935C276.094 90.0575 275.194 90.7775 274.09 91.3535C272.986 91.9055 271.666 92.1815 270.13 92.1815C268.906 92.1815 267.766 92.0135 266.71 91.6775C265.678 91.3655 264.766 90.8855 263.974 90.2375C263.182 89.5895 262.546 88.7975 262.066 87.8615C261.61 86.9015 261.358 85.7855 261.31 84.5135H265.414C265.534 85.8815 266.002 86.9375 266.818 87.6815C267.634 88.4015 268.714 88.7615 270.058 88.7615C270.922 88.7615 271.654 88.6175 272.254 88.3295C272.854 88.0415 273.334 87.6455 273.694 87.1415C274.078 86.6375 274.342 86.0495 274.486 85.3775C274.654 84.7055 274.738 83.9855 274.738 83.2175C274.738 82.5215 274.642 81.8615 274.45 81.2375C274.258 80.5895 273.97 80.0255 273.586 79.5455C273.202 79.0655 272.698 78.6815 272.074 78.3935C271.474 78.1055 270.766 77.9615 269.95 77.9615C269.086 77.9615 268.27 78.1295 267.502 78.4655C266.758 78.7775 266.218 79.3775 265.882 80.2655H261.778L264.478 66.4775ZM282.538 86.8175H287.542V91.6775C287.518 93.1655 287.062 94.4135 286.174 95.4215C285.286 96.4295 284.122 97.0775 282.682 97.3655V95.1695C283.474 94.9775 284.062 94.5335 284.446 93.8375C284.854 93.1655 285.046 92.4455 285.022 91.6775H282.538V86.8175ZM308.685 91.6775H291.477C291.501 89.5895 292.005 87.7655 292.989 86.2055C293.973 84.6455 295.317 83.2895 297.021 82.1375C297.837 81.5375 298.689 80.9615 299.577 80.4095C300.465 79.8335 301.281 79.2215 302.025 78.5735C302.769 77.9255 303.381 77.2295 303.861 76.4855C304.341 75.7175 304.593 74.8415 304.617 73.8575C304.617 73.4015 304.557 72.9215 304.437 72.4175C304.341 71.8895 304.137 71.4095 303.825 70.9775C303.513 70.5215 303.081 70.1495 302.529 69.8615C301.977 69.5495 301.257 69.3935 300.369 69.3935C299.553 69.3935 298.869 69.5615 298.317 69.8975C297.789 70.2095 297.357 70.6535 297.021 71.2295C296.709 71.7815 296.469 72.4415 296.301 73.2095C296.157 73.9775 296.073 74.8055 296.049 75.6935H291.945C291.945 74.3015 292.125 73.0175 292.485 71.8415C292.869 70.6415 293.433 69.6095 294.177 68.7455C294.921 67.8815 295.821 67.2095 296.877 66.7295C297.957 66.2255 299.205 65.9735 300.621 65.9735C302.157 65.9735 303.441 66.2255 304.473 66.7295C305.505 67.2335 306.333 67.8695 306.957 68.6375C307.605 69.4055 308.061 70.2455 308.325 71.1575C308.589 72.0455 308.721 72.8975 308.721 73.7135C308.721 74.7215 308.565 75.6335 308.253 76.4495C307.941 77.2655 307.521 78.0215 306.993 78.7175C306.465 79.3895 305.865 80.0135 305.193 80.5895C304.521 81.1655 303.825 81.7055 303.105 82.2095C302.385 82.7135 301.665 83.1935 300.945 83.6495C300.225 84.1055 299.553 84.5615 298.929 85.0175C298.329 85.4735 297.801 85.9535 297.345 86.4575C296.889 86.9375 296.577 87.4535 296.409 88.0055H308.685V91.6775ZM311.337 66.4775H328.581V69.8975C327.261 71.3855 326.061 72.9335 324.981 74.5415C323.901 76.1255 322.953 77.8175 322.137 79.6175C321.345 81.3935 320.697 83.2775 320.193 85.2695C319.689 87.2615 319.353 89.3975 319.185 91.6775H314.685C314.829 89.6855 315.165 87.7175 315.693 85.7735C316.245 83.8295 316.941 81.9455 317.781 80.1215C318.645 78.2975 319.641 76.5455 320.769 74.8655C321.897 73.1855 323.109 71.6135 324.405 70.1495H311.337V66.4775ZM344.301 72.8495C344.205 71.8175 343.833 70.9895 343.185 70.3655C342.561 69.7175 341.709 69.3935 340.629 69.3935C339.885 69.3935 339.237 69.5375 338.685 69.8255C338.157 70.0895 337.701 70.4495 337.317 70.9055C336.957 71.3615 336.657 71.8895 336.417 72.4895C336.201 73.0655 336.021 73.6775 335.877 74.3255C335.733 74.9735 335.625 75.6215 335.553 76.2695C335.505 76.8935 335.457 77.4815 335.409 78.0335L335.481 78.1055C336.033 77.0975 336.789 76.3535 337.749 75.8735C338.733 75.3695 339.789 75.1175 340.917 75.1175C342.165 75.1175 343.281 75.3335 344.265 75.7655C345.249 76.1975 346.077 76.7975 346.749 77.5655C347.445 78.3095 347.973 79.1975 348.333 80.2295C348.693 81.2615 348.873 82.3775 348.873 83.5775C348.873 84.8015 348.669 85.9415 348.261 86.9975C347.877 88.0295 347.313 88.9415 346.569 89.7335C345.825 90.5015 344.937 91.1015 343.905 91.5335C342.873 91.9655 341.733 92.1815 340.485 92.1815C338.637 92.1815 337.113 91.8455 335.913 91.1735C334.737 90.4775 333.801 89.5415 333.105 88.3655C332.433 87.1655 331.965 85.7735 331.701 84.1895C331.437 82.5815 331.305 80.8535 331.305 79.0055C331.305 77.4935 331.461 75.9695 331.773 74.4335C332.109 72.8975 332.649 71.5055 333.393 70.2575C334.137 68.9855 335.109 67.9535 336.309 67.1615C337.533 66.3695 339.033 65.9735 340.809 65.9735C341.817 65.9735 342.765 66.1415 343.653 66.4775C344.541 66.8135 345.321 67.2815 345.993 67.8815C346.689 68.4815 347.253 69.2015 347.685 70.0415C348.117 70.8815 348.357 71.8175 348.405 72.8495H344.301ZM340.341 88.7615C341.085 88.7615 341.733 88.6175 342.285 88.3295C342.837 88.0175 343.293 87.6215 343.653 87.1415C344.037 86.6615 344.313 86.1095 344.481 85.4855C344.673 84.8375 344.769 84.1775 344.769 83.5055C344.769 82.8335 344.673 82.1855 344.481 81.5615C344.313 80.9375 344.037 80.3975 343.653 79.9415C343.293 79.4615 342.837 79.0775 342.285 78.7895C341.733 78.5015 341.085 78.3575 340.341 78.3575C339.597 78.3575 338.937 78.5015 338.361 78.7895C337.809 79.0535 337.341 79.4255 336.957 79.9055C336.573 80.3615 336.285 80.9015 336.093 81.5255C335.901 82.1495 335.805 82.8095 335.805 83.5055C335.805 84.2015 335.901 84.8615 336.093 85.4855C336.285 86.1095 336.573 86.6735 336.957 87.1775C337.341 87.6575 337.809 88.0415 338.361 88.3295C338.937 88.6175 339.597 88.7615 340.341 88.7615ZM352.569 86.8175H357.573V91.6775H352.569V86.8175ZM368.313 76.9175C368.985 76.9415 369.657 76.8935 370.329 76.7735C371.001 76.6535 371.601 76.4495 372.129 76.1615C372.657 75.8495 373.077 75.4295 373.389 74.9015C373.725 74.3735 373.893 73.7255 373.893 72.9575C373.893 71.8775 373.521 71.0135 372.777 70.3655C372.057 69.7175 371.121 69.3935 369.969 69.3935C369.249 69.3935 368.625 69.5375 368.097 69.8255C367.569 70.1135 367.125 70.5095 366.765 71.0135C366.429 71.4935 366.177 72.0455 366.009 72.6695C365.841 73.2695 365.769 73.8935 365.793 74.5415H361.689C361.737 73.3175 361.965 72.1895 362.373 71.1575C362.781 70.1015 363.333 69.1895 364.029 68.4215C364.749 67.6535 365.613 67.0535 366.621 66.6215C367.629 66.1895 368.769 65.9735 370.041 65.9735C371.025 65.9735 371.985 66.1175 372.921 66.4055C373.881 66.6935 374.733 67.1135 375.477 67.6655C376.245 68.2175 376.857 68.9255 377.313 69.7895C377.769 70.6295 377.997 71.6015 377.997 72.7055C377.997 73.9775 377.709 75.0935 377.133 76.0535C376.557 76.9895 375.657 77.6735 374.433 78.1055V78.1775C375.873 78.4655 376.989 79.1855 377.781 80.3375C378.597 81.4655 379.005 82.8455 379.005 84.4775C379.005 85.6775 378.765 86.7575 378.285 87.7175C377.805 88.6535 377.157 89.4575 376.341 90.1295C375.525 90.7775 374.577 91.2815 373.497 91.6415C372.417 92.0015 371.277 92.1815 370.077 92.1815C368.613 92.1815 367.329 91.9775 366.225 91.5695C365.145 91.1375 364.233 90.5375 363.489 89.7695C362.769 89.0015 362.217 88.0775 361.833 86.9975C361.449 85.9175 361.245 84.7175 361.221 83.3975H365.325C365.277 84.9335 365.649 86.2175 366.441 87.2495C367.257 88.2575 368.469 88.7615 370.077 88.7615C371.445 88.7615 372.585 88.3775 373.497 87.6095C374.433 86.8175 374.901 85.7015 374.901 84.2615C374.901 83.2775 374.709 82.4975 374.325 81.9215C373.941 81.3455 373.437 80.9135 372.813 80.6255C372.189 80.3135 371.481 80.1215 370.689 80.0495C369.921 79.9775 369.129 79.9535 368.313 79.9775V76.9175ZM388.317 76.9175C388.989 76.9415 389.661 76.8935 390.333 76.7735C391.005 76.6535 391.605 76.4495 392.133 76.1615C392.661 75.8495 393.081 75.4295 393.393 74.9015C393.729 74.3735 393.897 73.7255 393.897 72.9575C393.897 71.8775 393.525 71.0135 392.781 70.3655C392.061 69.7175 391.125 69.3935 389.973 69.3935C389.253 69.3935 388.629 69.5375 388.101 69.8255C387.573 70.1135 387.129 70.5095 386.769 71.0135C386.433 71.4935 386.181 72.0455 386.013 72.6695C385.845 73.2695 385.773 73.8935 385.797 74.5415H381.693C381.741 73.3175 381.969 72.1895 382.377 71.1575C382.785 70.1015 383.337 69.1895 384.033 68.4215C384.753 67.6535 385.617 67.0535 386.625 66.6215C387.633 66.1895 388.773 65.9735 390.045 65.9735C391.029 65.9735 391.989 66.1175 392.925 66.4055C393.885 66.6935 394.737 67.1135 395.481 67.6655C396.249 68.2175 396.861 68.9255 397.317 69.7895C397.773 70.6295 398.001 71.6015 398.001 72.7055C398.001 73.9775 397.713 75.0935 397.137 76.0535C396.561 76.9895 395.661 77.6735 394.437 78.1055V78.1775C395.877 78.4655 396.993 79.1855 397.785 80.3375C398.601 81.4655 399.009 82.8455 399.009 84.4775C399.009 85.6775 398.769 86.7575 398.289 87.7175C397.809 88.6535 397.161 89.4575 396.345 90.1295C395.529 90.7775 394.581 91.2815 393.501 91.6415C392.421 92.0015 391.281 92.1815 390.081 92.1815C388.617 92.1815 387.333 91.9775 386.229 91.5695C385.149 91.1375 384.237 90.5375 383.493 89.7695C382.773 89.0015 382.221 88.0775 381.837 86.9975C381.453 85.9175 381.249 84.7175 381.225 83.3975H385.329C385.281 84.9335 385.653 86.2175 386.445 87.2495C387.261 88.2575 388.473 88.7615 390.081 88.7615C391.449 88.7615 392.589 88.3775 393.501 87.6095C394.437 86.8175 394.905 85.7015 394.905 84.2615C394.905 83.2775 394.713 82.4975 394.329 81.9215C393.945 81.3455 393.441 80.9135 392.817 80.6255C392.193 80.3135 391.485 80.1215 390.693 80.0495C389.925 79.9775 389.133 79.9535 388.317 79.9775V76.9175Z" fill="#1D2129"/>
<path d="M405.549 83.1095V91.6775H409.353C410.229 91.6775 410.925 91.4975 411.429 91.1615C412.017 90.7535 412.317 90.1295 412.317 89.2895C412.317 88.7135 412.149 88.2575 411.837 87.8975C411.525 87.5375 411.093 87.2975 410.529 87.2015C410.961 87.0575 411.309 86.8295 411.573 86.5175C411.825 86.1695 411.957 85.7495 411.957 85.2695C411.957 84.5975 411.729 84.0695 411.273 83.6855C410.805 83.3015 410.169 83.1095 409.377 83.1095H405.549ZM406.533 83.9375H409.149C409.749 83.9375 410.205 84.0455 410.517 84.2855C410.829 84.5255 410.985 84.8855 410.985 85.3655C410.985 85.8575 410.817 86.2295 410.505 86.4815C410.193 86.7215 409.737 86.8535 409.137 86.8535H406.533V83.9375ZM406.533 87.6695H409.269C409.929 87.6695 410.433 87.7895 410.781 88.0535C411.141 88.3175 411.333 88.7255 411.333 89.2775C411.333 89.8295 411.117 90.2495 410.697 90.5135C410.337 90.7295 409.869 90.8495 409.269 90.8495H406.533V87.6695Z" fill="#86909C"/>
<path d="M267.321 119.069L263.685 115.434H270.956L267.321 119.069Z" fill="#F53F3F"/>
<path d="M278.864 120.948V112.44H278.084C278.028 112.76 277.924 113.024 277.772 113.232C277.62 113.44 277.432 113.604 277.208 113.724C276.992 113.844 276.748 113.928 276.476 113.976C276.204 114.016 275.924 114.036 275.636 114.036V114.852H277.844V120.948H278.864ZM285.532 120.948V112.44H284.752C284.696 112.76 284.592 113.024 284.44 113.232C284.288 113.44 284.1 113.604 283.876 113.724C283.66 113.844 283.416 113.928 283.144 113.976C282.872 114.016 282.592 114.036 282.304 114.036V114.852H284.512V120.948H285.532ZM288.924 119.616V120.948H290.256V119.616H288.924ZM291.796 115.452H292.816C292.808 115.196 292.832 114.944 292.888 114.696C292.952 114.44 293.052 114.212 293.188 114.012C293.324 113.812 293.496 113.652 293.704 113.532C293.92 113.404 294.176 113.34 294.472 113.34C294.696 113.34 294.908 113.376 295.108 113.448C295.308 113.52 295.48 113.624 295.624 113.76C295.776 113.896 295.896 114.06 295.984 114.252C296.072 114.436 296.116 114.644 296.116 114.876C296.116 115.172 296.068 115.432 295.972 115.656C295.884 115.88 295.748 116.088 295.564 116.28C295.388 116.472 295.164 116.664 294.892 116.856C294.62 117.04 294.304 117.244 293.944 117.468C293.648 117.644 293.364 117.832 293.092 118.032C292.82 118.232 292.576 118.464 292.36 118.728C292.144 118.992 291.964 119.304 291.82 119.664C291.684 120.016 291.596 120.444 291.556 120.948H297.112V120.048H292.744C292.792 119.784 292.892 119.552 293.044 119.352C293.204 119.144 293.392 118.952 293.608 118.776C293.832 118.6 294.076 118.436 294.34 118.284C294.604 118.124 294.868 117.964 295.132 117.804C295.396 117.636 295.652 117.46 295.9 117.276C296.148 117.092 296.368 116.888 296.56 116.664C296.752 116.432 296.904 116.172 297.016 115.884C297.136 115.596 297.196 115.264 297.196 114.888C297.196 114.488 297.124 114.136 296.98 113.832C296.844 113.528 296.656 113.276 296.416 113.076C296.176 112.868 295.892 112.712 295.564 112.608C295.244 112.496 294.9 112.44 294.532 112.44C294.084 112.44 293.684 112.516 293.332 112.668C292.98 112.82 292.684 113.032 292.444 113.304C292.212 113.568 292.04 113.884 291.928 114.252C291.816 114.62 291.772 115.02 291.796 115.452ZM299.939 114.852C299.939 114.668 299.951 114.476 299.975 114.276C299.999 114.068 300.047 113.88 300.119 113.712C300.199 113.536 300.307 113.392 300.443 113.28C300.579 113.16 300.759 113.1 300.983 113.1C301.215 113.1 301.395 113.16 301.523 113.28C301.659 113.392 301.763 113.536 301.835 113.712C301.907 113.88 301.951 114.068 301.967 114.276C301.991 114.476 302.003 114.664 302.003 114.84C302.003 115.024 301.991 115.22 301.967 115.428C301.943 115.636 301.891 115.828 301.811 116.004C301.739 116.172 301.635 116.312 301.499 116.424C301.363 116.536 301.179 116.592 300.947 116.592C300.723 116.592 300.543 116.536 300.407 116.424C300.279 116.304 300.179 116.16 300.107 115.992C300.035 115.816 299.987 115.628 299.963 115.428C299.947 115.22 299.939 115.028 299.939 114.852ZM299.039 114.876C299.039 115.204 299.071 115.512 299.135 115.8C299.207 116.088 299.319 116.34 299.471 116.556C299.623 116.772 299.823 116.944 300.071 117.072C300.319 117.192 300.623 117.252 300.983 117.252C301.335 117.252 301.631 117.184 301.871 117.048C302.111 116.912 302.307 116.736 302.459 116.52C302.619 116.296 302.731 116.04 302.795 115.752C302.867 115.456 302.903 115.152 302.903 114.84C302.903 114.512 302.871 114.204 302.807 113.916C302.751 113.62 302.647 113.364 302.495 113.148C302.351 112.932 302.155 112.76 301.907 112.632C301.667 112.504 301.359 112.44 300.983 112.44C300.615 112.44 300.307 112.508 300.059 112.644C299.811 112.772 299.611 112.948 299.459 113.172C299.307 113.396 299.199 113.656 299.135 113.952C299.071 114.24 299.039 114.548 299.039 114.876ZM305.867 118.692C305.867 118.508 305.879 118.316 305.903 118.116C305.927 117.908 305.975 117.72 306.047 117.552C306.127 117.376 306.235 117.232 306.371 117.12C306.507 117 306.687 116.94 306.911 116.94C307.143 116.94 307.323 117 307.451 117.12C307.587 117.232 307.691 117.376 307.763 117.552C307.835 117.72 307.879 117.908 307.895 118.116C307.919 118.316 307.931 118.504 307.931 118.68C307.931 118.864 307.919 119.06 307.895 119.268C307.871 119.476 307.819 119.668 307.739 119.844C307.667 120.012 307.563 120.152 307.427 120.264C307.291 120.376 307.107 120.432 306.875 120.432C306.651 120.432 306.471 120.376 306.335 120.264C306.207 120.144 306.107 120 306.035 119.832C305.963 119.656 305.915 119.468 305.891 119.268C305.875 119.06 305.867 118.868 305.867 118.692ZM304.967 118.716C304.967 119.044 304.999 119.352 305.063 119.64C305.135 119.928 305.247 120.18 305.399 120.396C305.551 120.604 305.751 120.772 305.999 120.9C306.247 121.02 306.551 121.08 306.911 121.08C307.263 121.08 307.559 121.016 307.799 120.888C308.039 120.752 308.235 120.576 308.387 120.36C308.547 120.136 308.659 119.88 308.723 119.592C308.795 119.296 308.831 118.992 308.831 118.68C308.831 118.352 308.799 118.044 308.735 117.756C308.679 117.46 308.575 117.204 308.423 116.988C308.279 116.772 308.083 116.6 307.835 116.472C307.595 116.344 307.287 116.28 306.911 116.28C306.543 116.28 306.235 116.348 305.987 116.484C305.739 116.612 305.539 116.788 305.387 117.012C305.235 117.236 305.127 117.496 305.063 117.792C304.999 118.08 304.967 118.388 304.967 118.716ZM306.647 112.284L300.191 121.2H301.223L307.667 112.284H306.647Z" fill="#F53F3F"/>
<path d="M317.935 114.576C316.999 114.576 316.315 114.972 315.871 115.764V114.744H314.971V123.324H315.931V119.82C316.411 120.684 317.095 121.116 317.983 121.116C318.871 121.116 319.555 120.78 320.059 120.132C320.515 119.532 320.755 118.776 320.755 117.864C320.755 116.928 320.515 116.172 320.047 115.572C319.531 114.9 318.823 114.576 317.935 114.576ZM317.815 115.368C318.475 115.368 318.979 115.608 319.327 116.112C319.615 116.544 319.771 117.132 319.771 117.864C319.771 118.608 319.615 119.196 319.303 119.628C318.955 120.084 318.451 120.324 317.779 120.324C317.203 120.324 316.759 120.096 316.423 119.664C316.063 119.22 315.895 118.644 315.895 117.924V117.804C315.895 117.108 316.051 116.532 316.363 116.1C316.699 115.608 317.191 115.368 317.815 115.368ZM324.558 114.576C323.658 114.576 322.95 114.9 322.422 115.548C321.894 116.16 321.642 116.928 321.642 117.84C321.642 118.848 321.906 119.64 322.458 120.24C322.986 120.816 323.706 121.116 324.594 121.116C325.398 121.116 326.058 120.876 326.574 120.42C326.994 120.036 327.27 119.556 327.414 118.956H326.454C326.298 119.388 326.094 119.712 325.83 119.928C325.518 120.18 325.098 120.312 324.594 120.312C324.006 120.312 323.538 120.12 323.202 119.736C322.866 119.352 322.686 118.812 322.638 118.116H327.534C327.51 117.036 327.27 116.184 326.814 115.584C326.31 114.912 325.554 114.576 324.558 114.576ZM324.582 115.38C325.758 115.38 326.418 116.04 326.538 117.372H322.662C322.722 116.76 322.914 116.28 323.25 115.92C323.586 115.56 324.03 115.38 324.582 115.38ZM331.383 114.576C330.951 114.576 330.579 114.708 330.255 114.972C329.991 115.176 329.775 115.464 329.607 115.824V114.744H328.659V120.948H329.607V117.66C329.607 117.084 329.763 116.592 330.099 116.184C330.423 115.752 330.831 115.548 331.311 115.548C331.611 115.548 331.923 115.584 332.235 115.68V114.72C332.007 114.624 331.719 114.576 331.383 114.576ZM336.354 114.744L338.814 120.804L337.746 123.324H338.79L342.186 114.744H341.13L339.294 119.64L337.398 114.744H336.354ZM345.547 114.576C344.647 114.576 343.939 114.9 343.411 115.548C342.883 116.16 342.631 116.928 342.631 117.84C342.631 118.848 342.895 119.64 343.447 120.24C343.975 120.816 344.695 121.116 345.583 121.116C346.387 121.116 347.047 120.876 347.563 120.42C347.983 120.036 348.259 119.556 348.403 118.956H347.443C347.287 119.388 347.083 119.712 346.819 119.928C346.507 120.18 346.087 120.312 345.583 120.312C344.995 120.312 344.527 120.12 344.191 119.736C343.855 119.352 343.675 118.812 343.627 118.116H348.523C348.499 117.036 348.259 116.184 347.803 115.584C347.299 114.912 346.543 114.576 345.547 114.576ZM345.571 115.38C346.747 115.38 347.407 116.04 347.527 117.372H343.651C343.711 116.76 343.903 116.28 344.239 115.92C344.575 115.56 345.019 115.38 345.571 115.38ZM352.347 114.576C351.603 114.576 351.015 114.72 350.559 115.008C350.055 115.32 349.731 115.812 349.599 116.46L350.547 116.532C350.643 116.136 350.847 115.836 351.171 115.644C351.459 115.452 351.831 115.368 352.287 115.368C353.367 115.368 353.907 115.884 353.907 116.928V117.252L352.419 117.276C351.483 117.288 350.763 117.468 350.259 117.804C349.683 118.164 349.407 118.692 349.407 119.4C349.407 119.904 349.599 120.324 349.983 120.648C350.355 120.96 350.847 121.116 351.471 121.116C352.047 121.116 352.563 120.984 353.019 120.732C353.403 120.516 353.727 120.24 353.967 119.904V120.948H354.867V116.964C354.867 116.244 354.675 115.68 354.315 115.272C353.883 114.804 353.235 114.576 352.347 114.576ZM353.907 117.972V118.5C353.907 118.98 353.679 119.412 353.235 119.784C352.779 120.168 352.263 120.36 351.675 120.36C351.291 120.36 350.979 120.264 350.739 120.084C350.499 119.892 350.391 119.664 350.391 119.376C350.391 118.476 351.087 118.02 352.479 117.996L353.907 117.972ZM359.074 114.576C358.642 114.576 358.27 114.708 357.946 114.972C357.682 115.176 357.466 115.464 357.298 115.824V114.744H356.35V120.948H357.298V117.66C357.298 117.084 357.454 116.592 357.79 116.184C358.114 115.752 358.522 115.548 359.002 115.548C359.302 115.548 359.614 115.584 359.926 115.68V114.72C359.698 114.624 359.41 114.576 359.074 114.576Z" fill="#86909C"/>
<rect x="260.05" y="163.302" width="10.9062" height="10.9062" rx="5.45312" fill="#165DFF"/>
<path d="M275.528 163.931V172.667H276.476V163.931H275.528ZM280.716 166.295C279.816 166.295 279.108 166.619 278.58 167.267C278.052 167.879 277.8 168.647 277.8 169.559C277.8 170.567 278.064 171.359 278.616 171.959C279.144 172.535 279.864 172.835 280.752 172.835C281.556 172.835 282.216 172.595 282.732 172.139C283.152 171.755 283.428 171.275 283.572 170.675H282.612C282.456 171.107 282.252 171.431 281.988 171.647C281.676 171.899 281.256 172.031 280.752 172.031C280.164 172.031 279.696 171.839 279.36 171.455C279.024 171.071 278.844 170.531 278.796 169.835H283.692C283.668 168.755 283.428 167.903 282.972 167.303C282.468 166.631 281.712 166.295 280.716 166.295ZM280.74 167.099C281.916 167.099 282.576 167.759 282.696 169.091H278.82C278.88 168.479 279.072 167.999 279.408 167.639C279.744 167.279 280.188 167.099 280.74 167.099ZM287.372 166.295C286.508 166.295 285.824 166.595 285.32 167.207C284.816 167.783 284.576 168.515 284.576 169.427C284.576 170.327 284.816 171.059 285.32 171.635C285.824 172.223 286.508 172.523 287.372 172.523C288.308 172.523 289.004 172.103 289.46 171.275V172.367C289.46 173.735 288.836 174.431 287.588 174.431C287.024 174.431 286.604 174.323 286.328 174.119C286.052 173.927 285.872 173.615 285.8 173.195H284.84C284.948 173.867 285.224 174.371 285.668 174.707C286.1 175.043 286.748 175.211 287.588 175.211C289.472 175.211 290.42 174.215 290.42 172.235V166.463H289.46V167.531C289.004 166.703 288.308 166.295 287.372 166.295ZM287.516 167.087C288.128 167.087 288.608 167.303 288.968 167.759C289.304 168.167 289.472 168.731 289.472 169.427C289.472 170.099 289.304 170.651 288.968 171.071C288.608 171.503 288.128 171.719 287.504 171.719C286.832 171.719 286.34 171.479 286.004 171.023C285.704 170.615 285.56 170.075 285.56 169.427C285.56 168.731 285.728 168.167 286.064 167.759C286.412 167.303 286.892 167.087 287.516 167.087ZM294.462 166.295C293.562 166.295 292.854 166.619 292.326 167.267C291.798 167.879 291.546 168.647 291.546 169.559C291.546 170.567 291.81 171.359 292.362 171.959C292.89 172.535 293.61 172.835 294.498 172.835C295.302 172.835 295.962 172.595 296.478 172.139C296.898 171.755 297.174 171.275 297.318 170.675H296.358C296.202 171.107 295.998 171.431 295.734 171.647C295.422 171.899 295.002 172.031 294.498 172.031C293.91 172.031 293.442 171.839 293.106 171.455C292.77 171.071 292.59 170.531 292.542 169.835H297.438C297.414 168.755 297.174 167.903 296.718 167.303C296.214 166.631 295.458 166.295 294.462 166.295ZM294.486 167.099C295.662 167.099 296.322 167.759 296.442 169.091H292.566C292.626 168.479 292.818 167.999 293.154 167.639C293.49 167.279 293.934 167.099 294.486 167.099ZM301.466 166.295C301.058 166.295 300.686 166.391 300.35 166.583C300.014 166.763 299.738 167.027 299.522 167.375V166.463H298.562V172.667H299.522V168.923C299.558 168.359 299.738 167.915 300.074 167.579C300.386 167.267 300.758 167.111 301.19 167.111C302.27 167.111 302.822 167.711 302.822 168.923V172.667H303.782V168.851C303.782 167.147 303.002 166.295 301.466 166.295ZM309.849 163.931V167.603C309.369 166.727 308.685 166.295 307.797 166.295C306.909 166.295 306.225 166.619 305.721 167.291C305.253 167.891 305.025 168.635 305.025 169.547C305.025 170.483 305.253 171.251 305.721 171.851C306.225 172.499 306.933 172.835 307.845 172.835C308.781 172.835 309.477 172.439 309.909 171.647V172.667H310.809V163.931H309.849ZM308.001 167.087C308.553 167.087 309.009 167.303 309.357 167.759C309.693 168.203 309.873 168.791 309.873 169.511V169.631C309.873 170.327 309.717 170.891 309.417 171.323C309.069 171.803 308.589 172.043 307.965 172.043C307.293 172.043 306.789 171.791 306.453 171.311C306.153 170.879 306.009 170.291 306.009 169.547C306.009 168.803 306.153 168.227 306.465 167.807C306.801 167.327 307.317 167.087 308.001 167.087ZM319.197 166.295C318.789 166.295 318.417 166.391 318.081 166.583C317.745 166.763 317.469 167.027 317.253 167.375V166.463H316.293V172.667H317.253V168.923C317.289 168.359 317.469 167.915 317.805 167.579C318.117 167.267 318.489 167.111 318.921 167.111C320.001 167.111 320.553 167.711 320.553 168.923V172.667H321.513V168.851C321.513 167.147 320.733 166.295 319.197 166.295ZM325.696 166.295C324.952 166.295 324.364 166.439 323.908 166.727C323.404 167.039 323.08 167.531 322.948 168.179L323.896 168.251C323.992 167.855 324.196 167.555 324.52 167.363C324.808 167.171 325.18 167.087 325.636 167.087C326.716 167.087 327.256 167.603 327.256 168.647V168.971L325.768 168.995C324.832 169.007 324.112 169.187 323.608 169.523C323.032 169.883 322.756 170.411 322.756 171.119C322.756 171.623 322.948 172.043 323.332 172.367C323.704 172.679 324.196 172.835 324.82 172.835C325.396 172.835 325.912 172.703 326.368 172.451C326.752 172.235 327.076 171.959 327.316 171.623V172.667H328.216V168.683C328.216 167.963 328.024 167.399 327.664 166.991C327.232 166.523 326.584 166.295 325.696 166.295ZM327.256 169.691V170.219C327.256 170.699 327.028 171.131 326.584 171.503C326.128 171.887 325.612 172.079 325.024 172.079C324.64 172.079 324.328 171.983 324.088 171.803C323.848 171.611 323.74 171.383 323.74 171.095C323.74 170.195 324.436 169.739 325.828 169.715L327.256 169.691ZM332.411 166.295C331.715 166.295 331.127 166.619 330.659 167.291V166.463H329.699V172.667H330.659V168.887C330.659 168.395 330.803 167.975 331.091 167.639C331.379 167.279 331.739 167.111 332.183 167.111C333.131 167.111 333.611 167.651 333.611 168.755V172.667H334.571V168.779C334.571 168.275 334.703 167.879 334.991 167.567C335.255 167.255 335.603 167.111 336.011 167.111C336.539 167.111 336.923 167.243 337.163 167.531C337.391 167.795 337.511 168.203 337.511 168.755V172.667H338.471V168.599C338.471 167.891 338.267 167.327 337.883 166.907C337.475 166.499 336.959 166.295 336.311 166.295C335.879 166.295 335.519 166.391 335.219 166.583C334.883 166.763 334.595 167.063 334.355 167.471C334.007 166.679 333.359 166.295 332.411 166.295ZM342.521 166.295C341.621 166.295 340.913 166.619 340.385 167.267C339.857 167.879 339.605 168.647 339.605 169.559C339.605 170.567 339.869 171.359 340.421 171.959C340.949 172.535 341.669 172.835 342.557 172.835C343.361 172.835 344.021 172.595 344.537 172.139C344.957 171.755 345.233 171.275 345.377 170.675H344.417C344.261 171.107 344.057 171.431 343.793 171.647C343.481 171.899 343.061 172.031 342.557 172.031C341.969 172.031 341.501 171.839 341.165 171.455C340.829 171.071 340.649 170.531 340.601 169.835H345.497C345.473 168.755 345.233 167.903 344.777 167.303C344.273 166.631 343.517 166.295 342.521 166.295ZM342.545 167.099C343.721 167.099 344.381 167.759 344.501 169.091H340.625C340.685 168.479 340.877 167.999 341.213 167.639C341.549 167.279 341.993 167.099 342.545 167.099ZM353.521 166.295C353.113 166.295 352.741 166.391 352.405 166.583C352.069 166.763 351.793 167.027 351.577 167.375V166.463H350.617V172.667H351.577V168.923C351.613 168.359 351.793 167.915 352.129 167.579C352.441 167.267 352.813 167.111 353.245 167.111C354.325 167.111 354.877 167.711 354.877 168.923V172.667H355.837V168.851C355.837 167.147 355.057 166.295 353.521 166.295ZM360.02 166.295C359.276 166.295 358.688 166.439 358.232 166.727C357.728 167.039 357.404 167.531 357.272 168.179L358.22 168.251C358.316 167.855 358.52 167.555 358.844 167.363C359.132 167.171 359.504 167.087 359.96 167.087C361.04 167.087 361.58 167.603 361.58 168.647V168.971L360.092 168.995C359.156 169.007 358.436 169.187 357.932 169.523C357.356 169.883 357.08 170.411 357.08 171.119C357.08 171.623 357.272 172.043 357.656 172.367C358.028 172.679 358.52 172.835 359.144 172.835C359.72 172.835 360.236 172.703 360.692 172.451C361.076 172.235 361.4 171.959 361.64 171.623V172.667H362.54V168.683C362.54 167.963 362.348 167.399 361.988 166.991C361.556 166.523 360.908 166.295 360.02 166.295ZM361.58 169.691V170.219C361.58 170.699 361.352 171.131 360.908 171.503C360.452 171.887 359.936 172.079 359.348 172.079C358.964 172.079 358.652 171.983 358.412 171.803C358.172 171.611 358.064 171.383 358.064 171.095C358.064 170.195 358.76 169.739 360.152 169.715L361.58 169.691ZM366.735 166.295C366.039 166.295 365.451 166.619 364.983 167.291V166.463H364.023V172.667H364.983V168.887C364.983 168.395 365.127 167.975 365.415 167.639C365.703 167.279 366.063 167.111 366.507 167.111C367.455 167.111 367.935 167.651 367.935 168.755V172.667H368.895V168.779C368.895 168.275 369.027 167.879 369.315 167.567C369.579 167.255 369.927 167.111 370.335 167.111C370.863 167.111 371.247 167.243 371.487 167.531C371.715 167.795 371.835 168.203 371.835 168.755V172.667H372.795V168.599C372.795 167.891 372.591 167.327 372.207 166.907C371.799 166.499 371.283 166.295 370.635 166.295C370.203 166.295 369.843 166.391 369.543 166.583C369.207 166.763 368.919 167.063 368.679 167.471C368.331 166.679 367.683 166.295 366.735 166.295ZM376.845 166.295C375.945 166.295 375.237 166.619 374.709 167.267C374.181 167.879 373.929 168.647 373.929 169.559C373.929 170.567 374.193 171.359 374.745 171.959C375.273 172.535 375.993 172.835 376.881 172.835C377.685 172.835 378.345 172.595 378.861 172.139C379.281 171.755 379.557 171.275 379.701 170.675H378.741C378.585 171.107 378.381 171.431 378.117 171.647C377.805 171.899 377.385 172.031 376.881 172.031C376.293 172.031 375.825 171.839 375.489 171.455C375.153 171.071 374.973 170.531 374.925 169.835H379.821C379.797 168.755 379.557 167.903 379.101 167.303C378.597 166.631 377.841 166.295 376.845 166.295ZM376.869 167.099C378.045 167.099 378.705 167.759 378.825 169.091H374.949C375.009 168.479 375.201 167.999 375.537 167.639C375.873 167.279 376.317 167.099 376.869 167.099Z" fill="#4E5969"/>
<rect x="381.837" y="163.302" width="10.9062" height="10.9062" rx="5.45312" fill="#50CD89"/>
<path d="M397.314 163.931V172.667H398.262V163.931H397.314ZM402.502 166.295C401.602 166.295 400.894 166.619 400.366 167.267C399.838 167.879 399.586 168.647 399.586 169.559C399.586 170.567 399.85 171.359 400.402 171.959C400.93 172.535 401.65 172.835 402.538 172.835C403.342 172.835 404.002 172.595 404.518 172.139C404.938 171.755 405.214 171.275 405.358 170.675H404.398C404.242 171.107 404.038 171.431 403.774 171.647C403.462 171.899 403.042 172.031 402.538 172.031C401.95 172.031 401.482 171.839 401.146 171.455C400.81 171.071 400.63 170.531 400.582 169.835H405.478C405.454 168.755 405.214 167.903 404.758 167.303C404.254 166.631 403.498 166.295 402.502 166.295ZM402.526 167.099C403.702 167.099 404.362 167.759 404.482 169.091H400.606C400.666 168.479 400.858 167.999 401.194 167.639C401.53 167.279 401.974 167.099 402.526 167.099ZM409.159 166.295C408.295 166.295 407.611 166.595 407.107 167.207C406.603 167.783 406.363 168.515 406.363 169.427C406.363 170.327 406.603 171.059 407.107 171.635C407.611 172.223 408.295 172.523 409.159 172.523C410.095 172.523 410.791 172.103 411.247 171.275V172.367C411.247 173.735 410.623 174.431 409.375 174.431C408.811 174.431 408.391 174.323 408.115 174.119C407.839 173.927 407.659 173.615 407.587 173.195H406.627C406.735 173.867 407.011 174.371 407.455 174.707C407.887 175.043 408.535 175.211 409.375 175.211C411.259 175.211 412.207 174.215 412.207 172.235V166.463H411.247V167.531C410.791 166.703 410.095 166.295 409.159 166.295ZM409.303 167.087C409.915 167.087 410.395 167.303 410.755 167.759C411.091 168.167 411.259 168.731 411.259 169.427C411.259 170.099 411.091 170.651 410.755 171.071C410.395 171.503 409.915 171.719 409.291 171.719C408.619 171.719 408.127 171.479 407.791 171.023C407.491 170.615 407.347 170.075 407.347 169.427C407.347 168.731 407.515 168.167 407.851 167.759C408.199 167.303 408.679 167.087 409.303 167.087ZM416.249 166.295C415.349 166.295 414.641 166.619 414.113 167.267C413.585 167.879 413.333 168.647 413.333 169.559C413.333 170.567 413.597 171.359 414.149 171.959C414.677 172.535 415.397 172.835 416.285 172.835C417.089 172.835 417.749 172.595 418.265 172.139C418.685 171.755 418.961 171.275 419.105 170.675H418.145C417.989 171.107 417.785 171.431 417.521 171.647C417.209 171.899 416.789 172.031 416.285 172.031C415.697 172.031 415.229 171.839 414.893 171.455C414.557 171.071 414.377 170.531 414.329 169.835H419.225C419.201 168.755 418.961 167.903 418.505 167.303C418.001 166.631 417.245 166.295 416.249 166.295ZM416.273 167.099C417.449 167.099 418.109 167.759 418.229 169.091H414.353C414.413 168.479 414.605 167.999 414.941 167.639C415.277 167.279 415.721 167.099 416.273 167.099ZM423.253 166.295C422.845 166.295 422.473 166.391 422.137 166.583C421.801 166.763 421.525 167.027 421.309 167.375V166.463H420.349V172.667H421.309V168.923C421.345 168.359 421.525 167.915 421.861 167.579C422.173 167.267 422.545 167.111 422.977 167.111C424.057 167.111 424.609 167.711 424.609 168.923V172.667H425.569V168.851C425.569 167.147 424.789 166.295 423.253 166.295ZM431.636 163.931V167.603C431.156 166.727 430.472 166.295 429.584 166.295C428.696 166.295 428.012 166.619 427.508 167.291C427.04 167.891 426.812 168.635 426.812 169.547C426.812 170.483 427.04 171.251 427.508 171.851C428.012 172.499 428.72 172.835 429.632 172.835C430.568 172.835 431.264 172.439 431.696 171.647V172.667H432.596V163.931H431.636ZM429.788 167.087C430.34 167.087 430.796 167.303 431.144 167.759C431.48 168.203 431.66 168.791 431.66 169.511V169.631C431.66 170.327 431.504 170.891 431.204 171.323C430.856 171.803 430.376 172.043 429.752 172.043C429.08 172.043 428.576 171.791 428.24 171.311C427.94 170.879 427.796 170.291 427.796 169.547C427.796 168.803 427.94 168.227 428.252 167.807C428.588 167.327 429.104 167.087 429.788 167.087ZM440.983 166.295C440.575 166.295 440.203 166.391 439.867 166.583C439.531 166.763 439.255 167.027 439.039 167.375V166.463H438.079V172.667H439.039V168.923C439.075 168.359 439.255 167.915 439.591 167.579C439.903 167.267 440.275 167.111 440.707 167.111C441.787 167.111 442.339 167.711 442.339 168.923V172.667H443.299V168.851C443.299 167.147 442.519 166.295 440.983 166.295ZM447.482 166.295C446.738 166.295 446.15 166.439 445.694 166.727C445.19 167.039 444.866 167.531 444.734 168.179L445.682 168.251C445.778 167.855 445.982 167.555 446.306 167.363C446.594 167.171 446.966 167.087 447.422 167.087C448.502 167.087 449.042 167.603 449.042 168.647V168.971L447.554 168.995C446.618 169.007 445.898 169.187 445.394 169.523C444.818 169.883 444.542 170.411 444.542 171.119C444.542 171.623 444.734 172.043 445.118 172.367C445.49 172.679 445.982 172.835 446.606 172.835C447.182 172.835 447.698 172.703 448.154 172.451C448.538 172.235 448.862 171.959 449.102 171.623V172.667H450.002V168.683C450.002 167.963 449.81 167.399 449.45 166.991C449.018 166.523 448.37 166.295 447.482 166.295ZM449.042 169.691V170.219C449.042 170.699 448.814 171.131 448.37 171.503C447.914 171.887 447.398 172.079 446.81 172.079C446.426 172.079 446.114 171.983 445.874 171.803C445.634 171.611 445.526 171.383 445.526 171.095C445.526 170.195 446.222 169.739 447.614 169.715L449.042 169.691ZM454.198 166.295C453.502 166.295 452.914 166.619 452.446 167.291V166.463H451.486V172.667H452.446V168.887C452.446 168.395 452.59 167.975 452.878 167.639C453.166 167.279 453.526 167.111 453.97 167.111C454.918 167.111 455.398 167.651 455.398 168.755V172.667H456.358V168.779C456.358 168.275 456.49 167.879 456.778 167.567C457.042 167.255 457.39 167.111 457.798 167.111C458.326 167.111 458.71 167.243 458.95 167.531C459.178 167.795 459.298 168.203 459.298 168.755V172.667H460.258V168.599C460.258 167.891 460.054 167.327 459.67 166.907C459.262 166.499 458.746 166.295 458.098 166.295C457.666 166.295 457.306 166.391 457.006 166.583C456.67 166.763 456.382 167.063 456.142 167.471C455.794 166.679 455.146 166.295 454.198 166.295ZM464.307 166.295C463.407 166.295 462.699 166.619 462.171 167.267C461.643 167.879 461.391 168.647 461.391 169.559C461.391 170.567 461.655 171.359 462.207 171.959C462.735 172.535 463.455 172.835 464.343 172.835C465.147 172.835 465.807 172.595 466.323 172.139C466.743 171.755 467.019 171.275 467.163 170.675H466.203C466.047 171.107 465.843 171.431 465.579 171.647C465.267 171.899 464.847 172.031 464.343 172.031C463.755 172.031 463.287 171.839 462.951 171.455C462.615 171.071 462.435 170.531 462.387 169.835H467.283C467.259 168.755 467.019 167.903 466.563 167.303C466.059 166.631 465.303 166.295 464.307 166.295ZM464.331 167.099C465.507 167.099 466.167 167.759 466.287 169.091H462.411C462.471 168.479 462.663 167.999 462.999 167.639C463.335 167.279 463.779 167.099 464.331 167.099Z" fill="#4E5969"/>
<rect x="472.722" y="163.302" width="10.9062" height="10.9062" rx="5.45312" fill="#FFC700"/>
<path d="M488.2 163.931V172.667H489.148V163.931H488.2ZM493.388 166.295C492.488 166.295 491.78 166.619 491.252 167.267C490.724 167.879 490.472 168.647 490.472 169.559C490.472 170.567 490.736 171.359 491.288 171.959C491.816 172.535 492.536 172.835 493.424 172.835C494.228 172.835 494.888 172.595 495.404 172.139C495.824 171.755 496.1 171.275 496.244 170.675H495.284C495.128 171.107 494.924 171.431 494.66 171.647C494.348 171.899 493.928 172.031 493.424 172.031C492.836 172.031 492.368 171.839 492.032 171.455C491.696 171.071 491.516 170.531 491.468 169.835H496.364C496.34 168.755 496.1 167.903 495.644 167.303C495.14 166.631 494.384 166.295 493.388 166.295ZM493.412 167.099C494.588 167.099 495.248 167.759 495.368 169.091H491.492C491.552 168.479 491.744 167.999 492.08 167.639C492.416 167.279 492.86 167.099 493.412 167.099ZM500.044 166.295C499.18 166.295 498.496 166.595 497.992 167.207C497.488 167.783 497.248 168.515 497.248 169.427C497.248 170.327 497.488 171.059 497.992 171.635C498.496 172.223 499.18 172.523 500.044 172.523C500.98 172.523 501.676 172.103 502.132 171.275V172.367C502.132 173.735 501.508 174.431 500.26 174.431C499.696 174.431 499.276 174.323 499 174.119C498.724 173.927 498.544 173.615 498.472 173.195H497.512C497.62 173.867 497.896 174.371 498.34 174.707C498.772 175.043 499.42 175.211 500.26 175.211C502.144 175.211 503.092 174.215 503.092 172.235V166.463H502.132V167.531C501.676 166.703 500.98 166.295 500.044 166.295ZM500.188 167.087C500.8 167.087 501.28 167.303 501.64 167.759C501.976 168.167 502.144 168.731 502.144 169.427C502.144 170.099 501.976 170.651 501.64 171.071C501.28 171.503 500.8 171.719 500.176 171.719C499.504 171.719 499.012 171.479 498.676 171.023C498.376 170.615 498.232 170.075 498.232 169.427C498.232 168.731 498.4 168.167 498.736 167.759C499.084 167.303 499.564 167.087 500.188 167.087ZM507.134 166.295C506.234 166.295 505.526 166.619 504.998 167.267C504.47 167.879 504.218 168.647 504.218 169.559C504.218 170.567 504.482 171.359 505.034 171.959C505.562 172.535 506.282 172.835 507.17 172.835C507.974 172.835 508.634 172.595 509.15 172.139C509.57 171.755 509.846 171.275 509.99 170.675H509.03C508.874 171.107 508.67 171.431 508.406 171.647C508.094 171.899 507.674 172.031 507.17 172.031C506.582 172.031 506.114 171.839 505.778 171.455C505.442 171.071 505.262 170.531 505.214 169.835H510.11C510.086 168.755 509.846 167.903 509.39 167.303C508.886 166.631 508.13 166.295 507.134 166.295ZM507.158 167.099C508.334 167.099 508.994 167.759 509.114 169.091H505.238C505.298 168.479 505.49 167.999 505.826 167.639C506.162 167.279 506.606 167.099 507.158 167.099ZM514.138 166.295C513.73 166.295 513.358 166.391 513.022 166.583C512.686 166.763 512.41 167.027 512.194 167.375V166.463H511.234V172.667H512.194V168.923C512.23 168.359 512.41 167.915 512.746 167.579C513.058 167.267 513.43 167.111 513.862 167.111C514.942 167.111 515.494 167.711 515.494 168.923V172.667H516.454V168.851C516.454 167.147 515.674 166.295 514.138 166.295ZM522.521 163.931V167.603C522.041 166.727 521.357 166.295 520.469 166.295C519.581 166.295 518.897 166.619 518.393 167.291C517.925 167.891 517.697 168.635 517.697 169.547C517.697 170.483 517.925 171.251 518.393 171.851C518.897 172.499 519.605 172.835 520.517 172.835C521.453 172.835 522.149 172.439 522.581 171.647V172.667H523.481V163.931H522.521ZM520.673 167.087C521.225 167.087 521.681 167.303 522.029 167.759C522.365 168.203 522.545 168.791 522.545 169.511V169.631C522.545 170.327 522.389 170.891 522.089 171.323C521.741 171.803 521.261 172.043 520.637 172.043C519.965 172.043 519.461 171.791 519.125 171.311C518.825 170.879 518.681 170.291 518.681 169.547C518.681 168.803 518.825 168.227 519.137 167.807C519.473 167.327 519.989 167.087 520.673 167.087ZM531.869 166.295C531.461 166.295 531.089 166.391 530.753 166.583C530.417 166.763 530.141 167.027 529.925 167.375V166.463H528.965V172.667H529.925V168.923C529.961 168.359 530.141 167.915 530.477 167.579C530.789 167.267 531.161 167.111 531.593 167.111C532.673 167.111 533.225 167.711 533.225 168.923V172.667H534.185V168.851C534.185 167.147 533.405 166.295 531.869 166.295ZM538.368 166.295C537.624 166.295 537.036 166.439 536.58 166.727C536.076 167.039 535.752 167.531 535.62 168.179L536.568 168.251C536.664 167.855 536.868 167.555 537.192 167.363C537.48 167.171 537.852 167.087 538.308 167.087C539.388 167.087 539.928 167.603 539.928 168.647V168.971L538.44 168.995C537.504 169.007 536.784 169.187 536.28 169.523C535.704 169.883 535.428 170.411 535.428 171.119C535.428 171.623 535.62 172.043 536.004 172.367C536.376 172.679 536.868 172.835 537.492 172.835C538.068 172.835 538.584 172.703 539.04 172.451C539.424 172.235 539.748 171.959 539.988 171.623V172.667H540.888V168.683C540.888 167.963 540.696 167.399 540.336 166.991C539.904 166.523 539.256 166.295 538.368 166.295ZM539.928 169.691V170.219C539.928 170.699 539.7 171.131 539.256 171.503C538.8 171.887 538.284 172.079 537.696 172.079C537.312 172.079 537 171.983 536.76 171.803C536.52 171.611 536.412 171.383 536.412 171.095C536.412 170.195 537.108 169.739 538.5 169.715L539.928 169.691ZM545.083 166.295C544.387 166.295 543.799 166.619 543.331 167.291V166.463H542.371V172.667H543.331V168.887C543.331 168.395 543.475 167.975 543.763 167.639C544.051 167.279 544.411 167.111 544.855 167.111C545.803 167.111 546.283 167.651 546.283 168.755V172.667H547.243V168.779C547.243 168.275 547.375 167.879 547.663 167.567C547.927 167.255 548.275 167.111 548.683 167.111C549.211 167.111 549.595 167.243 549.835 167.531C550.063 167.795 550.183 168.203 550.183 168.755V172.667H551.143V168.599C551.143 167.891 550.939 167.327 550.555 166.907C550.147 166.499 549.631 166.295 548.983 166.295C548.551 166.295 548.191 166.391 547.891 166.583C547.555 166.763 547.267 167.063 547.027 167.471C546.679 166.679 546.031 166.295 545.083 166.295ZM555.192 166.295C554.292 166.295 553.584 166.619 553.056 167.267C552.528 167.879 552.276 168.647 552.276 169.559C552.276 170.567 552.54 171.359 553.092 171.959C553.62 172.535 554.34 172.835 555.228 172.835C556.032 172.835 556.692 172.595 557.208 172.139C557.628 171.755 557.904 171.275 558.048 170.675H557.088C556.932 171.107 556.728 171.431 556.464 171.647C556.152 171.899 555.732 172.031 555.228 172.031C554.64 172.031 554.172 171.839 553.836 171.455C553.5 171.071 553.32 170.531 553.272 169.835H558.168C558.144 168.755 557.904 167.903 557.448 167.303C556.944 166.631 556.188 166.295 555.192 166.295ZM555.216 167.099C556.392 167.099 557.052 167.759 557.172 169.091H553.296C553.356 168.479 553.548 167.999 553.884 167.639C554.22 167.279 554.664 167.099 555.216 167.099Z" fill="#4E5969"/>
<rect x="260.05" y="192.386" width="10.9062" height="10.9062" rx="5.45312" fill="#7239EA"/>
<path d="M275.528 193.014V201.75H276.476V193.014H275.528ZM280.716 195.378C279.816 195.378 279.108 195.702 278.58 196.35C278.052 196.962 277.8 197.73 277.8 198.642C277.8 199.65 278.064 200.442 278.616 201.042C279.144 201.618 279.864 201.918 280.752 201.918C281.556 201.918 282.216 201.678 282.732 201.222C283.152 200.838 283.428 200.358 283.572 199.758H282.612C282.456 200.19 282.252 200.514 281.988 200.73C281.676 200.982 281.256 201.114 280.752 201.114C280.164 201.114 279.696 200.922 279.36 200.538C279.024 200.154 278.844 199.614 278.796 198.918H283.692C283.668 197.838 283.428 196.986 282.972 196.386C282.468 195.714 281.712 195.378 280.716 195.378ZM280.74 196.182C281.916 196.182 282.576 196.842 282.696 198.174H278.82C278.88 197.562 279.072 197.082 279.408 196.722C279.744 196.362 280.188 196.182 280.74 196.182ZM287.372 195.378C286.508 195.378 285.824 195.678 285.32 196.29C284.816 196.866 284.576 197.598 284.576 198.51C284.576 199.41 284.816 200.142 285.32 200.718C285.824 201.306 286.508 201.606 287.372 201.606C288.308 201.606 289.004 201.186 289.46 200.358V201.45C289.46 202.818 288.836 203.514 287.588 203.514C287.024 203.514 286.604 203.406 286.328 203.202C286.052 203.01 285.872 202.698 285.8 202.278H284.84C284.948 202.95 285.224 203.454 285.668 203.79C286.1 204.126 286.748 204.294 287.588 204.294C289.472 204.294 290.42 203.298 290.42 201.318V195.546H289.46V196.614C289.004 195.786 288.308 195.378 287.372 195.378ZM287.516 196.17C288.128 196.17 288.608 196.386 288.968 196.842C289.304 197.25 289.472 197.814 289.472 198.51C289.472 199.182 289.304 199.734 288.968 200.154C288.608 200.586 288.128 200.802 287.504 200.802C286.832 200.802 286.34 200.562 286.004 200.106C285.704 199.698 285.56 199.158 285.56 198.51C285.56 197.814 285.728 197.25 286.064 196.842C286.412 196.386 286.892 196.17 287.516 196.17ZM294.462 195.378C293.562 195.378 292.854 195.702 292.326 196.35C291.798 196.962 291.546 197.73 291.546 198.642C291.546 199.65 291.81 200.442 292.362 201.042C292.89 201.618 293.61 201.918 294.498 201.918C295.302 201.918 295.962 201.678 296.478 201.222C296.898 200.838 297.174 200.358 297.318 199.758H296.358C296.202 200.19 295.998 200.514 295.734 200.73C295.422 200.982 295.002 201.114 294.498 201.114C293.91 201.114 293.442 200.922 293.106 200.538C292.77 200.154 292.59 199.614 292.542 198.918H297.438C297.414 197.838 297.174 196.986 296.718 196.386C296.214 195.714 295.458 195.378 294.462 195.378ZM294.486 196.182C295.662 196.182 296.322 196.842 296.442 198.174H292.566C292.626 197.562 292.818 197.082 293.154 196.722C293.49 196.362 293.934 196.182 294.486 196.182ZM301.466 195.378C301.058 195.378 300.686 195.474 300.35 195.666C300.014 195.846 299.738 196.11 299.522 196.458V195.546H298.562V201.75H299.522V198.006C299.558 197.442 299.738 196.998 300.074 196.662C300.386 196.35 300.758 196.194 301.19 196.194C302.27 196.194 302.822 196.794 302.822 198.006V201.75H303.782V197.934C303.782 196.23 303.002 195.378 301.466 195.378ZM309.85 193.014V196.686C309.37 195.81 308.686 195.378 307.798 195.378C306.91 195.378 306.226 195.702 305.722 196.374C305.254 196.974 305.026 197.718 305.026 198.63C305.026 199.566 305.254 200.334 305.722 200.934C306.226 201.582 306.934 201.918 307.846 201.918C308.782 201.918 309.478 201.522 309.91 200.73V201.75H310.81V193.014H309.85ZM308.002 196.17C308.554 196.17 309.01 196.386 309.358 196.842C309.694 197.286 309.874 197.874 309.874 198.594V198.714C309.874 199.41 309.718 199.974 309.418 200.406C309.07 200.886 308.59 201.126 307.966 201.126C307.294 201.126 306.79 200.874 306.454 200.394C306.154 199.962 306.01 199.374 306.01 198.63C306.01 197.886 306.154 197.31 306.466 196.89C306.802 196.41 307.318 196.17 308.002 196.17ZM319.197 195.378C318.789 195.378 318.417 195.474 318.081 195.666C317.745 195.846 317.469 196.11 317.253 196.458V195.546H316.293V201.75H317.253V198.006C317.289 197.442 317.469 196.998 317.805 196.662C318.117 196.35 318.489 196.194 318.921 196.194C320.001 196.194 320.553 196.794 320.553 198.006V201.75H321.513V197.934C321.513 196.23 320.733 195.378 319.197 195.378ZM325.696 195.378C324.952 195.378 324.364 195.522 323.908 195.81C323.404 196.122 323.08 196.614 322.948 197.262L323.896 197.334C323.992 196.938 324.196 196.638 324.52 196.446C324.808 196.254 325.18 196.17 325.636 196.17C326.716 196.17 327.256 196.686 327.256 197.73V198.054L325.768 198.078C324.832 198.09 324.112 198.27 323.608 198.606C323.032 198.966 322.756 199.494 322.756 200.202C322.756 200.706 322.948 201.126 323.332 201.45C323.704 201.762 324.196 201.918 324.82 201.918C325.396 201.918 325.912 201.786 326.368 201.534C326.752 201.318 327.076 201.042 327.316 200.706V201.75H328.216V197.766C328.216 197.046 328.024 196.482 327.664 196.074C327.232 195.606 326.584 195.378 325.696 195.378ZM327.256 198.774V199.302C327.256 199.782 327.028 200.214 326.584 200.586C326.128 200.97 325.612 201.162 325.024 201.162C324.64 201.162 324.328 201.066 324.088 200.886C323.848 200.694 323.74 200.466 323.74 200.178C323.74 199.278 324.436 198.822 325.828 198.798L327.256 198.774ZM332.411 195.378C331.715 195.378 331.127 195.702 330.659 196.374V195.546H329.699V201.75H330.659V197.97C330.659 197.478 330.803 197.058 331.091 196.722C331.379 196.362 331.739 196.194 332.183 196.194C333.131 196.194 333.611 196.734 333.611 197.838V201.75H334.571V197.862C334.571 197.358 334.703 196.962 334.991 196.65C335.255 196.338 335.603 196.194 336.011 196.194C336.539 196.194 336.923 196.326 337.163 196.614C337.391 196.878 337.511 197.286 337.511 197.838V201.75H338.471V197.682C338.471 196.974 338.267 196.41 337.883 195.99C337.475 195.582 336.959 195.378 336.311 195.378C335.879 195.378 335.519 195.474 335.219 195.666C334.883 195.846 334.595 196.146 334.355 196.554C334.007 195.762 333.359 195.378 332.411 195.378ZM342.521 195.378C341.621 195.378 340.913 195.702 340.385 196.35C339.857 196.962 339.605 197.73 339.605 198.642C339.605 199.65 339.869 200.442 340.421 201.042C340.949 201.618 341.669 201.918 342.557 201.918C343.361 201.918 344.021 201.678 344.537 201.222C344.957 200.838 345.233 200.358 345.377 199.758H344.417C344.261 200.19 344.057 200.514 343.793 200.73C343.481 200.982 343.061 201.114 342.557 201.114C341.969 201.114 341.501 200.922 341.165 200.538C340.829 200.154 340.649 199.614 340.601 198.918H345.497C345.473 197.838 345.233 196.986 344.777 196.386C344.273 195.714 343.517 195.378 342.521 195.378ZM342.545 196.182C343.721 196.182 344.381 196.842 344.501 198.174H340.625C340.685 197.562 340.877 197.082 341.213 196.722C341.549 196.362 341.993 196.182 342.545 196.182Z" fill="#4E5969"/>
<rect x="351.39" y="192.84" width="9.99739" height="9.99739" rx="4.99869" fill="#0FC6C2" stroke="#0FC6C2" stroke-width="0.908854"/>
<path d="M366.413 193.014V201.75H367.361V193.014H366.413ZM371.602 195.378C370.702 195.378 369.994 195.702 369.466 196.35C368.938 196.962 368.686 197.73 368.686 198.642C368.686 199.65 368.95 200.442 369.502 201.042C370.03 201.618 370.75 201.918 371.638 201.918C372.442 201.918 373.102 201.678 373.618 201.222C374.038 200.838 374.314 200.358 374.458 199.758H373.498C373.342 200.19 373.138 200.514 372.874 200.73C372.562 200.982 372.142 201.114 371.638 201.114C371.05 201.114 370.582 200.922 370.246 200.538C369.91 200.154 369.73 199.614 369.682 198.918H374.578C374.554 197.838 374.314 196.986 373.858 196.386C373.354 195.714 372.598 195.378 371.602 195.378ZM371.626 196.182C372.802 196.182 373.462 196.842 373.582 198.174H369.706C369.766 197.562 369.958 197.082 370.294 196.722C370.63 196.362 371.074 196.182 371.626 196.182ZM378.258 195.378C377.394 195.378 376.71 195.678 376.206 196.29C375.702 196.866 375.462 197.598 375.462 198.51C375.462 199.41 375.702 200.142 376.206 200.718C376.71 201.306 377.394 201.606 378.258 201.606C379.194 201.606 379.89 201.186 380.346 200.358V201.45C380.346 202.818 379.722 203.514 378.474 203.514C377.91 203.514 377.49 203.406 377.214 203.202C376.938 203.01 376.758 202.698 376.686 202.278H375.726C375.834 202.95 376.11 203.454 376.554 203.79C376.986 204.126 377.634 204.294 378.474 204.294C380.358 204.294 381.306 203.298 381.306 201.318V195.546H380.346V196.614C379.89 195.786 379.194 195.378 378.258 195.378ZM378.402 196.17C379.014 196.17 379.494 196.386 379.854 196.842C380.19 197.25 380.358 197.814 380.358 198.51C380.358 199.182 380.19 199.734 379.854 200.154C379.494 200.586 379.014 200.802 378.39 200.802C377.718 200.802 377.226 200.562 376.89 200.106C376.59 199.698 376.446 199.158 376.446 198.51C376.446 197.814 376.614 197.25 376.95 196.842C377.298 196.386 377.778 196.17 378.402 196.17ZM385.348 195.378C384.448 195.378 383.74 195.702 383.212 196.35C382.684 196.962 382.432 197.73 382.432 198.642C382.432 199.65 382.696 200.442 383.248 201.042C383.776 201.618 384.496 201.918 385.384 201.918C386.188 201.918 386.848 201.678 387.364 201.222C387.784 200.838 388.06 200.358 388.204 199.758H387.244C387.088 200.19 386.884 200.514 386.62 200.73C386.308 200.982 385.888 201.114 385.384 201.114C384.796 201.114 384.328 200.922 383.992 200.538C383.656 200.154 383.476 199.614 383.428 198.918H388.324C388.3 197.838 388.06 196.986 387.604 196.386C387.1 195.714 386.344 195.378 385.348 195.378ZM385.372 196.182C386.548 196.182 387.208 196.842 387.328 198.174H383.452C383.512 197.562 383.704 197.082 384.04 196.722C384.376 196.362 384.82 196.182 385.372 196.182ZM392.352 195.378C391.944 195.378 391.572 195.474 391.236 195.666C390.9 195.846 390.624 196.11 390.408 196.458V195.546H389.448V201.75H390.408V198.006C390.444 197.442 390.624 196.998 390.96 196.662C391.272 196.35 391.644 196.194 392.076 196.194C393.156 196.194 393.708 196.794 393.708 198.006V201.75H394.668V197.934C394.668 196.23 393.888 195.378 392.352 195.378ZM400.735 193.014V196.686C400.255 195.81 399.571 195.378 398.683 195.378C397.795 195.378 397.111 195.702 396.607 196.374C396.139 196.974 395.911 197.718 395.911 198.63C395.911 199.566 396.139 200.334 396.607 200.934C397.111 201.582 397.819 201.918 398.731 201.918C399.667 201.918 400.363 201.522 400.795 200.73V201.75H401.695V193.014H400.735ZM398.887 196.17C399.439 196.17 399.895 196.386 400.243 196.842C400.579 197.286 400.759 197.874 400.759 198.594V198.714C400.759 199.41 400.603 199.974 400.303 200.406C399.955 200.886 399.475 201.126 398.851 201.126C398.179 201.126 397.675 200.874 397.339 200.394C397.039 199.962 396.895 199.374 396.895 198.63C396.895 197.886 397.039 197.31 397.351 196.89C397.687 196.41 398.203 196.17 398.887 196.17ZM410.082 195.378C409.674 195.378 409.302 195.474 408.966 195.666C408.63 195.846 408.354 196.11 408.138 196.458V195.546H407.178V201.75H408.138V198.006C408.174 197.442 408.354 196.998 408.69 196.662C409.002 196.35 409.374 196.194 409.806 196.194C410.886 196.194 411.438 196.794 411.438 198.006V201.75H412.398V197.934C412.398 196.23 411.618 195.378 410.082 195.378ZM416.581 195.378C415.837 195.378 415.249 195.522 414.793 195.81C414.289 196.122 413.965 196.614 413.833 197.262L414.781 197.334C414.877 196.938 415.081 196.638 415.405 196.446C415.693 196.254 416.065 196.17 416.521 196.17C417.601 196.17 418.141 196.686 418.141 197.73V198.054L416.653 198.078C415.717 198.09 414.997 198.27 414.493 198.606C413.917 198.966 413.641 199.494 413.641 200.202C413.641 200.706 413.833 201.126 414.217 201.45C414.589 201.762 415.081 201.918 415.705 201.918C416.281 201.918 416.797 201.786 417.253 201.534C417.637 201.318 417.961 201.042 418.201 200.706V201.75H419.101V197.766C419.101 197.046 418.909 196.482 418.549 196.074C418.117 195.606 417.469 195.378 416.581 195.378ZM418.141 198.774V199.302C418.141 199.782 417.913 200.214 417.469 200.586C417.013 200.97 416.497 201.162 415.909 201.162C415.525 201.162 415.213 201.066 414.973 200.886C414.733 200.694 414.625 200.466 414.625 200.178C414.625 199.278 415.321 198.822 416.713 198.798L418.141 198.774ZM423.297 195.378C422.601 195.378 422.013 195.702 421.545 196.374V195.546H420.585V201.75H421.545V197.97C421.545 197.478 421.689 197.058 421.977 196.722C422.265 196.362 422.625 196.194 423.069 196.194C424.017 196.194 424.497 196.734 424.497 197.838V201.75H425.457V197.862C425.457 197.358 425.589 196.962 425.877 196.65C426.141 196.338 426.489 196.194 426.897 196.194C427.425 196.194 427.809 196.326 428.049 196.614C428.277 196.878 428.397 197.286 428.397 197.838V201.75H429.357V197.682C429.357 196.974 429.153 196.41 428.769 195.99C428.361 195.582 427.845 195.378 427.197 195.378C426.765 195.378 426.405 195.474 426.105 195.666C425.769 195.846 425.481 196.146 425.241 196.554C424.893 195.762 424.245 195.378 423.297 195.378ZM433.406 195.378C432.506 195.378 431.798 195.702 431.27 196.35C430.742 196.962 430.49 197.73 430.49 198.642C430.49 199.65 430.754 200.442 431.306 201.042C431.834 201.618 432.554 201.918 433.442 201.918C434.246 201.918 434.906 201.678 435.422 201.222C435.842 200.838 436.118 200.358 436.262 199.758H435.302C435.146 200.19 434.942 200.514 434.678 200.73C434.366 200.982 433.946 201.114 433.442 201.114C432.854 201.114 432.386 200.922 432.05 200.538C431.714 200.154 431.534 199.614 431.486 198.918H436.382C436.358 197.838 436.118 196.986 435.662 196.386C435.158 195.714 434.402 195.378 433.406 195.378ZM433.43 196.182C434.606 196.182 435.266 196.842 435.386 198.174H431.51C431.57 197.562 431.762 197.082 432.098 196.722C432.434 196.362 432.878 196.182 433.43 196.182Z" fill="#4E5969"/>
<rect x="441.821" y="192.386" width="10.9062" height="10.9062" rx="5.45312" fill="#B5BDCB"/>
<path d="M459.879 195.378C458.943 195.378 458.211 195.69 457.659 196.338C457.131 196.95 456.867 197.718 456.867 198.654C456.867 199.578 457.131 200.346 457.659 200.946C458.211 201.594 458.943 201.918 459.879 201.918C460.803 201.918 461.547 201.594 462.111 200.946C462.627 200.346 462.891 199.578 462.891 198.654C462.891 197.718 462.627 196.95 462.099 196.338C461.547 195.69 460.803 195.378 459.879 195.378ZM459.879 196.182C460.527 196.182 461.043 196.434 461.427 196.938C461.751 197.394 461.919 197.958 461.919 198.654C461.919 199.326 461.751 199.902 461.427 200.358C461.043 200.862 460.527 201.114 459.879 201.114C459.219 201.114 458.703 200.862 458.343 200.358C458.007 199.902 457.851 199.338 457.851 198.654C457.851 197.958 458.007 197.394 458.343 196.938C458.703 196.434 459.219 196.182 459.879 196.182ZM465.794 193.542L464.846 193.938V195.546H463.598V196.35H464.846V200.298C464.846 200.766 464.942 201.114 465.146 201.354C465.362 201.618 465.734 201.75 466.238 201.75H467.174V200.946H466.382C466.166 200.946 466.01 200.886 465.926 200.79C465.83 200.694 465.794 200.526 465.794 200.298V196.35H467.33V195.546H465.794V193.542ZM468.403 193.014V201.75H469.363V198.21C469.363 197.634 469.519 197.142 469.843 196.758C470.155 196.374 470.551 196.182 471.031 196.182C471.547 196.182 471.943 196.338 472.231 196.65C472.495 196.962 472.639 197.406 472.639 197.982V201.75H473.599V197.838C473.599 197.046 473.407 196.434 473.023 196.014C472.639 195.582 472.075 195.378 471.355 195.378C470.935 195.378 470.563 195.474 470.227 195.666C469.867 195.87 469.579 196.17 469.363 196.566V193.014H468.403ZM477.627 195.378C476.727 195.378 476.019 195.702 475.491 196.35C474.963 196.962 474.711 197.73 474.711 198.642C474.711 199.65 474.975 200.442 475.527 201.042C476.055 201.618 476.775 201.918 477.663 201.918C478.467 201.918 479.127 201.678 479.643 201.222C480.063 200.838 480.339 200.358 480.483 199.758H479.523C479.367 200.19 479.163 200.514 478.899 200.73C478.587 200.982 478.167 201.114 477.663 201.114C477.075 201.114 476.607 200.922 476.271 200.538C475.935 200.154 475.755 199.614 475.707 198.918H480.603C480.579 197.838 480.339 196.986 479.883 196.386C479.379 195.714 478.623 195.378 477.627 195.378ZM477.651 196.182C478.827 196.182 479.487 196.842 479.607 198.174H475.731C475.791 197.562 475.983 197.082 476.319 196.722C476.655 196.362 477.099 196.182 477.651 196.182ZM484.452 195.378C484.02 195.378 483.648 195.51 483.324 195.774C483.06 195.978 482.844 196.266 482.676 196.626V195.546H481.728V201.75H482.676V198.462C482.676 197.886 482.832 197.394 483.168 196.986C483.492 196.554 483.9 196.35 484.38 196.35C484.68 196.35 484.992 196.386 485.304 196.482V195.522C485.076 195.426 484.788 195.378 484.452 195.378Z" fill="#4E5969"/>
</svg>
