<svg width="657" height="224" viewBox="0 0 657 224" fill="none" xmlns="http://www.w3.org/2000/svg">
<g clip-path="url(#clip0_8_332)">
<path opacity="0.4" d="M44.0724 110.385V106.997L43.4406 107.137V106.812L44.229 106.471H44.5477V110.385H44.0724ZM46.5966 110.917L48.0001 106.113H48.4642L47.0607 110.917H46.5966ZM50.9037 110.385V106.997L50.2719 107.137V106.812L51.0603 106.471H51.379V110.385H50.9037ZM52.1437 110.385V110.056C52.4084 109.847 52.6582 109.636 52.893 109.424C53.1316 109.208 53.3422 108.995 53.5249 108.786C53.7113 108.578 53.8566 108.372 53.961 108.171C54.0691 107.97 54.1232 107.776 54.1232 107.59C54.1232 107.452 54.099 107.323 54.0505 107.204C54.0058 107.085 53.9312 106.989 53.8268 106.919C53.7224 106.844 53.5808 106.807 53.4019 106.807C53.2304 106.807 53.0869 106.846 52.9713 106.924C52.8557 106.999 52.7681 107.099 52.7085 107.226C52.6526 107.353 52.6246 107.489 52.6246 107.634H52.1717C52.1717 107.377 52.2257 107.157 52.3338 106.975C52.4419 106.788 52.5892 106.647 52.7756 106.55C52.962 106.453 53.1726 106.404 53.4074 106.404C53.7541 106.404 54.0374 106.503 54.2574 106.701C54.4811 106.894 54.5929 107.185 54.5929 107.573C54.5929 107.804 54.5351 108.033 54.4195 108.261C54.304 108.484 54.1567 108.702 53.9778 108.915C53.7989 109.124 53.6069 109.319 53.4019 109.502C53.2006 109.685 53.0123 109.849 52.8371 109.994H54.7271V110.385H52.1437Z" fill="black"/>
<path opacity="0.4" d="M95.9929 110.385V110.056C96.2576 109.847 96.5073 109.636 96.7422 109.424C96.9808 109.208 97.1914 108.995 97.3741 108.786C97.5604 108.578 97.7058 108.372 97.8102 108.171C97.9183 107.97 97.9724 107.776 97.9724 107.59C97.9724 107.452 97.9481 107.323 97.8997 107.204C97.8549 107.085 97.7804 106.989 97.676 106.919C97.5716 106.844 97.43 106.807 97.251 106.807C97.0796 106.807 96.936 106.846 96.8205 106.924C96.7049 106.999 96.6173 107.099 96.5577 107.226C96.5017 107.353 96.4738 107.489 96.4738 107.634H96.0209C96.0209 107.377 96.0749 107.157 96.183 106.975C96.2911 106.788 96.4384 106.647 96.6248 106.55C96.8112 106.453 97.0218 106.404 97.2566 106.404C97.6033 106.404 97.8866 106.503 98.1066 106.701C98.3302 106.894 98.4421 107.185 98.4421 107.573C98.4421 107.804 98.3843 108.033 98.2687 108.261C98.1532 108.484 98.0059 108.702 97.827 108.915C97.648 109.124 97.4561 109.319 97.251 109.502C97.0497 109.685 96.8615 109.849 96.6863 109.994H98.5763V110.385H95.9929ZM100.477 110.917L101.88 106.113H102.345L100.941 110.917H100.477ZM104.784 110.385V106.997L104.152 107.137V106.812L104.941 106.471H105.259V110.385H104.784ZM106.024 110.385V110.056C106.289 109.847 106.539 109.636 106.773 109.424C107.012 109.208 107.223 108.995 107.405 108.786C107.592 108.578 107.737 108.372 107.841 108.171C107.95 107.97 108.004 107.776 108.004 107.59C108.004 107.452 107.979 107.323 107.931 107.204C107.886 107.085 107.812 106.989 107.707 106.919C107.603 106.844 107.461 106.807 107.282 106.807C107.111 106.807 106.967 106.846 106.852 106.924C106.736 106.999 106.649 107.099 106.589 107.226C106.533 107.353 106.505 107.489 106.505 107.634H106.052C106.052 107.377 106.106 107.157 106.214 106.975C106.322 106.788 106.47 106.647 106.656 106.55C106.842 106.453 107.053 106.404 107.288 106.404C107.635 106.404 107.918 106.503 108.138 106.701C108.361 106.894 108.473 107.185 108.473 107.573C108.473 107.804 108.416 108.033 108.3 108.261C108.184 108.484 108.037 108.702 107.858 108.915C107.679 109.124 107.487 109.319 107.282 109.502C107.081 109.685 106.893 109.849 106.717 109.994H108.607V110.385H106.024Z" fill="black"/>
<path opacity="0.4" d="M150.126 110.453C149.876 110.453 149.651 110.408 149.449 110.318C149.248 110.225 149.086 110.087 148.963 109.905C148.844 109.722 148.78 109.495 148.773 109.222H149.248C149.252 109.446 149.33 109.64 149.483 109.804C149.636 109.964 149.85 110.044 150.126 110.044C150.402 110.044 150.609 109.968 150.747 109.815C150.888 109.662 150.959 109.478 150.959 109.262C150.959 109.079 150.914 108.93 150.825 108.814C150.739 108.699 150.622 108.613 150.473 108.557C150.327 108.501 150.167 108.473 149.992 108.473H149.701V108.076H149.992C150.245 108.076 150.443 108.018 150.584 107.903C150.73 107.787 150.803 107.625 150.803 107.416C150.803 107.241 150.745 107.098 150.629 106.986C150.517 106.87 150.35 106.812 150.126 106.812C149.91 106.812 149.736 106.878 149.606 107.008C149.475 107.135 149.403 107.295 149.388 107.489H148.913C148.924 107.277 148.98 107.088 149.08 106.924C149.185 106.76 149.326 106.633 149.505 106.544C149.684 106.451 149.891 106.404 150.126 106.404C150.379 106.404 150.59 106.449 150.758 106.538C150.929 106.628 151.058 106.747 151.144 106.896C151.233 107.045 151.278 107.209 151.278 107.388C151.278 107.586 151.224 107.767 151.116 107.931C151.008 108.091 150.845 108.199 150.629 108.255C150.86 108.304 151.052 108.413 151.205 108.585C151.358 108.756 151.434 108.982 151.434 109.262C151.434 109.478 151.384 109.677 151.283 109.86C151.187 110.039 151.041 110.182 150.847 110.29C150.653 110.399 150.413 110.453 150.126 110.453ZM153.417 110.917L154.82 106.113H155.285L153.881 110.917H153.417ZM157.724 110.385V106.997L157.092 107.137V106.812L157.881 106.471H158.199V110.385H157.724ZM158.964 110.385V110.056C159.229 109.847 159.478 109.636 159.713 109.424C159.952 109.208 160.163 108.995 160.345 108.786C160.532 108.578 160.677 108.372 160.781 108.171C160.889 107.97 160.943 107.776 160.943 107.59C160.943 107.452 160.919 107.323 160.871 107.204C160.826 107.085 160.752 106.989 160.647 106.919C160.543 106.844 160.401 106.807 160.222 106.807C160.051 106.807 159.907 106.846 159.792 106.924C159.676 106.999 159.588 107.099 159.529 107.226C159.473 107.353 159.445 107.489 159.445 107.634H158.992C158.992 107.377 159.046 107.157 159.154 106.975C159.262 106.788 159.41 106.647 159.596 106.55C159.782 106.453 159.993 106.404 160.228 106.404C160.574 106.404 160.858 106.503 161.078 106.701C161.301 106.894 161.413 107.185 161.413 107.573C161.413 107.804 161.355 108.033 161.24 108.261C161.124 108.484 160.977 108.702 160.798 108.915C160.619 109.124 160.427 109.319 160.222 109.502C160.021 109.685 159.833 109.849 159.657 109.994H161.547V110.385H158.964Z" fill="black"/>
<path opacity="0.4" d="M203.532 110.385V109.547H201.547V109.183L203.448 106.471H203.996V109.133H204.578V109.547H203.996V110.385H203.532ZM202.067 109.133H203.555V106.991L202.067 109.133ZM206.368 110.917L207.772 106.113H208.236L206.832 110.917H206.368ZM210.675 110.385V106.997L210.043 107.137V106.812L210.832 106.471H211.15V110.385H210.675ZM211.915 110.385V110.056C212.18 109.847 212.43 109.636 212.664 109.424C212.903 109.208 213.114 108.995 213.296 108.786C213.483 108.578 213.628 108.372 213.732 108.171C213.841 107.97 213.895 107.776 213.895 107.59C213.895 107.452 213.87 107.323 213.822 107.204C213.777 107.085 213.703 106.989 213.598 106.919C213.494 106.844 213.352 106.807 213.173 106.807C213.002 106.807 212.858 106.846 212.743 106.924C212.627 106.999 212.54 107.099 212.48 107.226C212.424 107.353 212.396 107.489 212.396 107.634H211.943C211.943 107.377 211.997 107.157 212.105 106.975C212.213 106.788 212.361 106.647 212.547 106.55C212.733 106.453 212.944 106.404 213.179 106.404C213.526 106.404 213.809 106.503 214.029 106.701C214.252 106.894 214.364 107.185 214.364 107.573C214.364 107.804 214.307 108.033 214.191 108.261C214.075 108.484 213.928 108.702 213.749 108.915C213.57 109.124 213.378 109.319 213.173 109.502C212.972 109.685 212.784 109.849 212.609 109.994H214.499V110.385H211.915Z" fill="black"/>
<path opacity="0.4" d="M255.943 110.453C255.675 110.453 255.442 110.404 255.244 110.307C255.047 110.21 254.888 110.078 254.769 109.91C254.654 109.739 254.583 109.545 254.557 109.329H255.015C255.06 109.545 255.164 109.72 255.328 109.854C255.492 109.985 255.699 110.05 255.949 110.05C256.135 110.05 256.296 110.007 256.43 109.921C256.564 109.832 256.667 109.713 256.737 109.564C256.812 109.414 256.849 109.249 256.849 109.066C256.849 108.775 256.767 108.54 256.603 108.361C256.439 108.182 256.227 108.093 255.966 108.093C255.75 108.093 255.565 108.141 255.412 108.238C255.259 108.335 255.148 108.462 255.077 108.619H254.629L254.965 106.471H257.017V106.879H255.328L255.099 108.071C255.189 107.962 255.312 107.873 255.468 107.802C255.628 107.731 255.811 107.696 256.016 107.696C256.273 107.696 256.497 107.756 256.687 107.875C256.881 107.994 257.032 108.156 257.14 108.361C257.248 108.566 257.302 108.799 257.302 109.06C257.302 109.31 257.248 109.541 257.14 109.754C257.036 109.966 256.881 110.136 256.676 110.262C256.475 110.389 256.23 110.453 255.943 110.453ZM259.259 110.917L260.663 106.113H261.127L259.723 110.917H259.259ZM263.566 110.385V106.997L262.934 107.137V106.812L263.723 106.471H264.041V110.385H263.566ZM264.806 110.385V110.056C265.071 109.847 265.321 109.636 265.555 109.424C265.794 109.208 266.005 108.995 266.187 108.786C266.374 108.578 266.519 108.372 266.623 108.171C266.732 107.97 266.786 107.776 266.786 107.59C266.786 107.452 266.761 107.323 266.713 107.204C266.668 107.085 266.594 106.989 266.489 106.919C266.385 106.844 266.243 106.807 266.064 106.807C265.893 106.807 265.749 106.846 265.634 106.924C265.518 106.999 265.431 107.099 265.371 107.226C265.315 107.353 265.287 107.489 265.287 107.634H264.834C264.834 107.377 264.888 107.157 264.996 106.975C265.104 106.788 265.252 106.647 265.438 106.55C265.624 106.453 265.835 106.404 266.07 106.404C266.417 106.404 266.7 106.503 266.92 106.701C267.144 106.894 267.255 107.185 267.255 107.573C267.255 107.804 267.198 108.033 267.082 108.261C266.966 108.484 266.819 108.702 266.64 108.915C266.461 109.124 266.269 109.319 266.064 109.502C265.863 109.685 265.675 109.849 265.5 109.994H267.39V110.385H264.806Z" fill="black"/>
<path opacity="0.4" d="M308.874 110.453C308.591 110.453 308.352 110.4 308.158 110.296C307.964 110.188 307.808 110.044 307.689 109.865C307.573 109.687 307.487 109.487 307.431 109.267C307.379 109.043 307.353 108.816 307.353 108.585C307.353 108.153 307.413 107.774 307.532 107.45C307.651 107.122 307.823 106.866 308.046 106.684C308.274 106.497 308.548 106.404 308.868 106.404C309.114 106.404 309.325 106.453 309.5 106.55C309.676 106.647 309.813 106.777 309.914 106.941C310.018 107.101 310.084 107.28 310.11 107.478H309.674C309.633 107.265 309.541 107.101 309.4 106.986C309.258 106.87 309.079 106.812 308.863 106.812C308.568 106.812 308.32 106.952 308.119 107.232C307.922 107.508 307.815 107.94 307.8 108.529C307.89 108.354 308.032 108.203 308.225 108.076C308.423 107.946 308.66 107.88 308.936 107.88C309.159 107.88 309.368 107.933 309.562 108.037C309.759 108.141 309.92 108.289 310.043 108.479C310.166 108.665 310.227 108.885 310.227 109.139C310.227 109.358 310.173 109.569 310.065 109.77C309.957 109.972 309.8 110.136 309.595 110.262C309.394 110.389 309.154 110.453 308.874 110.453ZM308.84 110.039C309.016 110.039 309.172 110.002 309.31 109.927C309.448 109.852 309.556 109.75 309.635 109.619C309.713 109.485 309.752 109.332 309.752 109.161C309.752 108.896 309.664 108.686 309.489 108.529C309.318 108.369 309.101 108.289 308.84 108.289C308.665 108.289 308.509 108.33 308.371 108.412C308.233 108.49 308.123 108.596 308.041 108.73C307.963 108.865 307.923 109.01 307.923 109.167C307.923 109.334 307.963 109.485 308.041 109.619C308.123 109.75 308.233 109.852 308.371 109.927C308.509 110.002 308.665 110.039 308.84 110.039ZM312.21 110.917L313.613 106.113H314.077L312.674 110.917H312.21ZM316.517 110.385V106.997L315.885 107.137V106.812L316.673 106.471H316.992V110.385H316.517ZM317.757 110.385V110.056C318.021 109.847 318.271 109.636 318.506 109.424C318.745 109.208 318.955 108.995 319.138 108.786C319.324 108.578 319.47 108.372 319.574 108.171C319.682 107.97 319.736 107.776 319.736 107.59C319.736 107.452 319.712 107.323 319.664 107.204C319.619 107.085 319.544 106.989 319.44 106.919C319.336 106.844 319.194 106.807 319.015 106.807C318.843 106.807 318.7 106.846 318.584 106.924C318.469 106.999 318.381 107.099 318.322 107.226C318.266 107.353 318.238 107.489 318.238 107.634H317.785C317.785 107.377 317.839 107.157 317.947 106.975C318.055 106.788 318.202 106.647 318.389 106.55C318.575 106.453 318.786 106.404 319.021 106.404C319.367 106.404 319.651 106.503 319.87 106.701C320.094 106.894 320.206 107.185 320.206 107.573C320.206 107.804 320.148 108.033 320.033 108.261C319.917 108.484 319.77 108.702 319.591 108.915C319.412 109.124 319.22 109.319 319.015 109.502C318.814 109.685 318.625 109.849 318.45 109.994H320.34V110.385H317.757Z" fill="black"/>
<path opacity="0.4" d="M360.642 110.385L362.196 106.874H360.049V106.471H362.677V106.824L361.14 110.385H360.642ZM364.522 110.917L365.925 106.113H366.389L364.986 110.917H364.522ZM368.829 110.385V106.997L368.197 107.137V106.812L368.985 106.471H369.304V110.385H368.829ZM370.069 110.385V110.056C370.334 109.847 370.583 109.636 370.818 109.424C371.057 109.208 371.267 108.995 371.45 108.786C371.636 108.578 371.782 108.372 371.886 108.171C371.994 107.97 372.048 107.776 372.048 107.59C372.048 107.452 372.024 107.323 371.976 107.204C371.931 107.085 371.856 106.989 371.752 106.919C371.648 106.844 371.506 106.807 371.327 106.807C371.156 106.807 371.012 106.846 370.897 106.924C370.781 106.999 370.693 107.099 370.634 107.226C370.578 107.353 370.55 107.489 370.55 107.634H370.097C370.097 107.377 370.151 107.157 370.259 106.975C370.367 106.788 370.514 106.647 370.701 106.55C370.887 106.453 371.098 106.404 371.333 106.404C371.679 106.404 371.963 106.503 372.183 106.701C372.406 106.894 372.518 107.185 372.518 107.573C372.518 107.804 372.46 108.033 372.345 108.261C372.229 108.484 372.082 108.702 371.903 108.915C371.724 109.124 371.532 109.319 371.327 109.502C371.126 109.685 370.938 109.849 370.762 109.994H372.652V110.385H370.069Z" fill="black"/>
<path opacity="0.4" d="M414.462 110.453C414.205 110.453 413.974 110.406 413.769 110.313C413.564 110.216 413.402 110.084 413.282 109.916C413.167 109.744 413.109 109.547 413.109 109.323C413.109 109.084 413.178 108.87 413.316 108.68C413.458 108.49 413.644 108.363 413.875 108.3C413.663 108.229 413.499 108.115 413.383 107.959C413.267 107.802 413.21 107.631 413.21 107.444C413.21 107.254 413.26 107.081 413.361 106.924C413.461 106.764 413.605 106.637 413.791 106.544C413.978 106.451 414.201 106.404 414.462 106.404C414.723 106.404 414.947 106.451 415.133 106.544C415.32 106.637 415.463 106.764 415.564 106.924C415.664 107.081 415.715 107.254 415.715 107.444C415.715 107.627 415.657 107.798 415.541 107.959C415.426 108.115 415.262 108.229 415.049 108.3C415.28 108.363 415.465 108.49 415.603 108.68C415.745 108.87 415.815 109.084 415.815 109.323C415.815 109.547 415.756 109.744 415.636 109.916C415.521 110.084 415.361 110.216 415.156 110.313C414.951 110.406 414.719 110.453 414.462 110.453ZM414.462 108.132C414.701 108.132 414.889 108.072 415.027 107.953C415.169 107.83 415.239 107.67 415.239 107.472C415.239 107.252 415.17 107.086 415.033 106.975C414.895 106.863 414.704 106.807 414.462 106.807C414.22 106.807 414.03 106.863 413.892 106.975C413.758 107.086 413.691 107.252 413.691 107.472C413.691 107.67 413.759 107.83 413.897 107.953C414.035 108.072 414.224 108.132 414.462 108.132ZM414.462 110.039C414.757 110.039 414.977 109.972 415.122 109.838C415.271 109.7 415.346 109.519 415.346 109.295C415.346 109.042 415.266 108.85 415.105 108.719C414.945 108.589 414.731 108.523 414.462 108.523C414.194 108.523 413.979 108.589 413.819 108.719C413.659 108.85 413.579 109.042 413.579 109.295C413.579 109.519 413.651 109.7 413.797 109.838C413.946 109.972 414.168 110.039 414.462 110.039ZM417.806 110.917L419.21 106.113H419.674L418.27 110.917H417.806ZM422.113 110.385V106.997L421.481 107.137V106.812L422.27 106.471H422.588V110.385H422.113ZM423.353 110.385V110.056C423.618 109.847 423.868 109.636 424.102 109.424C424.341 109.208 424.552 108.995 424.734 108.786C424.921 108.578 425.066 108.372 425.17 108.171C425.279 107.97 425.333 107.776 425.333 107.59C425.333 107.452 425.308 107.323 425.26 107.204C425.215 107.085 425.141 106.989 425.036 106.919C424.932 106.844 424.79 106.807 424.611 106.807C424.44 106.807 424.296 106.846 424.181 106.924C424.065 106.999 423.978 107.099 423.918 107.226C423.862 107.353 423.834 107.489 423.834 107.634H423.381C423.381 107.377 423.435 107.157 423.543 106.975C423.651 106.788 423.799 106.647 423.985 106.55C424.171 106.453 424.382 106.404 424.617 106.404C424.964 106.404 425.247 106.503 425.467 106.701C425.691 106.894 425.802 107.185 425.802 107.573C425.802 107.804 425.745 108.033 425.629 108.261C425.513 108.484 425.366 108.702 425.187 108.915C425.008 109.124 424.816 109.319 424.611 109.502C424.41 109.685 424.222 109.849 424.047 109.994H425.937V110.385H423.353Z" fill="black"/>
<path opacity="0.4" d="M467.314 110.453C467.068 110.453 466.858 110.404 466.683 110.307C466.507 110.21 466.368 110.082 466.263 109.921C466.163 109.757 466.101 109.577 466.079 109.379H466.515C466.552 109.591 466.642 109.755 466.783 109.871C466.925 109.987 467.104 110.044 467.32 110.044C467.618 110.044 467.866 109.906 468.064 109.631C468.261 109.351 468.368 108.917 468.382 108.328C468.293 108.503 468.15 108.656 467.952 108.786C467.758 108.913 467.523 108.976 467.247 108.976C467.027 108.976 466.819 108.924 466.621 108.82C466.424 108.715 466.263 108.57 466.14 108.384C466.017 108.194 465.956 107.972 465.956 107.718C465.956 107.498 466.01 107.288 466.118 107.086C466.23 106.885 466.386 106.721 466.588 106.594C466.789 106.468 467.029 106.404 467.309 106.404C467.592 106.404 467.831 106.458 468.025 106.566C468.218 106.671 468.373 106.812 468.489 106.991C468.608 107.17 468.694 107.372 468.746 107.595C468.802 107.815 468.83 108.041 468.83 108.272C468.83 108.704 468.77 109.084 468.651 109.413C468.532 109.737 468.358 109.992 468.131 110.179C467.907 110.361 467.635 110.453 467.314 110.453ZM467.342 108.568C467.518 108.568 467.674 108.529 467.812 108.451C467.95 108.369 468.06 108.261 468.142 108.126C468.224 107.992 468.265 107.847 468.265 107.69C468.265 107.523 468.224 107.373 468.142 107.243C468.06 107.109 467.95 107.004 467.812 106.93C467.674 106.855 467.518 106.818 467.342 106.818C467.167 106.818 467.011 106.855 466.873 106.93C466.735 107.004 466.627 107.109 466.548 107.243C466.47 107.373 466.431 107.524 466.431 107.696C466.431 107.961 466.517 108.173 466.688 108.333C466.863 108.49 467.081 108.568 467.342 108.568ZM470.768 110.917L472.171 106.113H472.635L471.232 110.917H470.768ZM475.075 110.385V106.997L474.443 107.137V106.812L475.231 106.471H475.55V110.385H475.075ZM476.315 110.385V110.056C476.579 109.847 476.829 109.636 477.064 109.424C477.303 109.208 477.513 108.995 477.696 108.786C477.882 108.578 478.028 108.372 478.132 108.171C478.24 107.97 478.294 107.776 478.294 107.59C478.294 107.452 478.27 107.323 478.221 107.204C478.177 107.085 478.102 106.989 477.998 106.919C477.893 106.844 477.752 106.807 477.573 106.807C477.401 106.807 477.258 106.846 477.142 106.924C477.027 106.999 476.939 107.099 476.879 107.226C476.824 107.353 476.796 107.489 476.796 107.634H476.343C476.343 107.377 476.397 107.157 476.505 106.975C476.613 106.788 476.76 106.647 476.947 106.55C477.133 106.453 477.344 106.404 477.578 106.404C477.925 106.404 478.208 106.503 478.428 106.701C478.652 106.894 478.764 107.185 478.764 107.573C478.764 107.804 478.706 108.033 478.591 108.261C478.475 108.484 478.328 108.702 478.149 108.915C477.97 109.124 477.778 109.319 477.573 109.502C477.372 109.685 477.183 109.849 477.008 109.994H478.898V110.385H476.315Z" fill="black"/>
<path opacity="0.4" d="M519.261 110.385V106.997L518.63 107.137V106.812L519.418 106.471H519.737V110.385H519.261ZM522.089 110.453C521.743 110.453 521.443 110.369 521.189 110.201C520.939 110.029 520.747 109.793 520.613 109.491C520.479 109.185 520.412 108.831 520.412 108.428C520.412 108.026 520.479 107.674 520.613 107.372C520.747 107.066 520.939 106.829 521.189 106.661C521.443 106.49 521.743 106.404 522.089 106.404C522.436 106.404 522.734 106.49 522.984 106.661C523.234 106.829 523.426 107.066 523.56 107.372C523.694 107.674 523.761 108.026 523.761 108.428C523.761 108.831 523.694 109.185 523.56 109.491C523.426 109.793 523.234 110.029 522.984 110.201C522.734 110.369 522.436 110.453 522.089 110.453ZM522.089 110.039C522.317 110.039 522.52 109.975 522.699 109.849C522.882 109.718 523.023 109.534 523.124 109.295C523.228 109.053 523.28 108.764 523.28 108.428C523.28 108.093 523.228 107.806 523.124 107.567C523.023 107.329 522.882 107.146 522.699 107.019C522.52 106.889 522.317 106.824 522.089 106.824C521.858 106.824 521.653 106.889 521.474 107.019C521.295 107.146 521.154 107.329 521.049 107.567C520.945 107.806 520.893 108.093 520.893 108.428C520.893 108.764 520.945 109.053 521.049 109.295C521.154 109.534 521.295 109.718 521.474 109.849C521.653 109.975 521.858 110.039 522.089 110.039ZM525.663 110.917L527.066 106.113H527.53L526.127 110.917H525.663ZM529.97 110.385V106.997L529.338 107.137V106.812L530.126 106.471H530.445V110.385H529.97ZM531.21 110.385V110.056C531.474 109.847 531.724 109.636 531.959 109.424C532.198 109.208 532.408 108.995 532.591 108.786C532.777 108.578 532.923 108.372 533.027 108.171C533.135 107.97 533.189 107.776 533.189 107.59C533.189 107.452 533.165 107.323 533.117 107.204C533.072 107.085 532.997 106.989 532.893 106.919C532.788 106.844 532.647 106.807 532.468 106.807C532.296 106.807 532.153 106.846 532.037 106.924C531.922 106.999 531.834 107.099 531.775 107.226C531.719 107.353 531.691 107.489 531.691 107.634H531.238C531.238 107.377 531.292 107.157 531.4 106.975C531.508 106.788 531.655 106.647 531.842 106.55C532.028 106.453 532.239 106.404 532.473 106.404C532.82 106.404 533.103 106.503 533.323 106.701C533.547 106.894 533.659 107.185 533.659 107.573C533.659 107.804 533.601 108.033 533.486 108.261C533.37 108.484 533.223 108.702 533.044 108.915C532.865 109.124 532.673 109.319 532.468 109.502C532.267 109.685 532.078 109.849 531.903 109.994H533.793V110.385H531.21Z" fill="black"/>
<path opacity="0.4" d="M572.114 110.385V106.997L571.482 107.137V106.812L572.271 106.471H572.59V110.385H572.114ZM573.802 110.385V106.997L573.17 107.137V106.812L573.958 106.471H574.277V110.385H573.802ZM576.326 110.917L577.729 106.113H578.193L576.79 110.917H576.326ZM580.633 110.385V106.997L580.001 107.137V106.812L580.789 106.471H581.108V110.385H580.633ZM581.873 110.385V110.056C582.138 109.847 582.387 109.636 582.622 109.424C582.861 109.208 583.071 108.995 583.254 108.786C583.44 108.578 583.586 108.372 583.69 108.171C583.798 107.97 583.852 107.776 583.852 107.59C583.852 107.452 583.828 107.323 583.78 107.204C583.735 107.085 583.66 106.989 583.556 106.919C583.452 106.844 583.31 106.807 583.131 106.807C582.96 106.807 582.816 106.846 582.7 106.924C582.585 106.999 582.497 107.099 582.438 107.226C582.382 107.353 582.354 107.489 582.354 107.634H581.901C581.901 107.377 581.955 107.157 582.063 106.975C582.171 106.788 582.318 106.647 582.505 106.55C582.691 106.453 582.902 106.404 583.137 106.404C583.483 106.404 583.767 106.503 583.987 106.701C584.21 106.894 584.322 107.185 584.322 107.573C584.322 107.804 584.264 108.033 584.149 108.261C584.033 108.484 583.886 108.702 583.707 108.915C583.528 109.124 583.336 109.319 583.131 109.502C582.93 109.685 582.741 109.849 582.566 109.994H584.456V110.385H581.873Z" fill="black"/>
<path opacity="0.4" d="M624.967 110.385V106.997L624.335 107.137V106.812L625.124 106.471H625.442V110.385H624.967ZM626.207 110.385V110.056C626.472 109.847 626.722 109.636 626.956 109.424C627.195 109.208 627.406 108.995 627.588 108.786C627.775 108.578 627.92 108.372 628.024 108.171C628.133 107.97 628.187 107.776 628.187 107.59C628.187 107.452 628.162 107.323 628.114 107.204C628.069 107.085 627.995 106.989 627.89 106.919C627.786 106.844 627.644 106.807 627.465 106.807C627.294 106.807 627.15 106.846 627.035 106.924C626.919 106.999 626.832 107.099 626.772 107.226C626.716 107.353 626.688 107.489 626.688 107.634H626.235C626.235 107.377 626.289 107.157 626.397 106.975C626.505 106.788 626.653 106.647 626.839 106.55C627.025 106.453 627.236 106.404 627.471 106.404C627.818 106.404 628.101 106.503 628.321 106.701C628.544 106.894 628.656 107.185 628.656 107.573C628.656 107.804 628.598 108.033 628.483 108.261C628.367 108.484 628.22 108.702 628.041 108.915C627.862 109.124 627.67 109.319 627.465 109.502C627.264 109.685 627.076 109.849 626.9 109.994H628.79V110.385H626.207ZM630.691 110.917L632.095 106.113H632.559L631.155 110.917H630.691ZM634.998 110.385V106.997L634.366 107.137V106.812L635.155 106.471H635.474V110.385H634.998ZM636.238 110.385V110.056C636.503 109.847 636.753 109.636 636.988 109.424C637.226 109.208 637.437 108.995 637.619 108.786C637.806 108.578 637.951 108.372 638.056 108.171C638.164 107.97 638.218 107.776 638.218 107.59C638.218 107.452 638.194 107.323 638.145 107.204C638.1 107.085 638.026 106.989 637.921 106.919C637.817 106.844 637.675 106.807 637.496 106.807C637.325 106.807 637.181 106.846 637.066 106.924C636.95 106.999 636.863 107.099 636.803 107.226C636.747 107.353 636.719 107.489 636.719 107.634H636.266C636.266 107.377 636.32 107.157 636.428 106.975C636.537 106.788 636.684 106.647 636.87 106.55C637.057 106.453 637.267 106.404 637.502 106.404C637.849 106.404 638.132 106.503 638.352 106.701C638.576 106.894 638.687 107.185 638.687 107.573C638.687 107.804 638.63 108.033 638.514 108.261C638.399 108.484 638.251 108.702 638.072 108.915C637.893 109.124 637.701 109.319 637.496 109.502C637.295 109.685 637.107 109.849 636.932 109.994H638.822V110.385H636.238Z" fill="black"/>
</g>
<g clip-path="url(#clip1_8_332)">
<path opacity="0.4" d="M1.94069 43.1848C1.65738 43.1848 1.4188 43.1326 1.22496 43.0282C1.03111 42.9201 0.874542 42.7766 0.755252 42.5976C0.639691 42.4187 0.553951 42.2193 0.498034 41.9993C0.445845 41.7757 0.41975 41.5483 0.41975 41.3171C0.41975 40.8847 0.479395 40.5063 0.598685 40.182C0.717974 39.854 0.889453 39.5986 1.11312 39.416C1.34052 39.2296 1.61451 39.1364 1.9351 39.1364C2.18114 39.1364 2.39176 39.1848 2.56697 39.2818C2.74217 39.3787 2.8801 39.5092 2.98075 39.6732C3.08513 39.8335 3.15037 40.0124 3.17646 40.21H2.74031C2.6993 39.9975 2.60797 39.8335 2.46631 39.7179C2.32466 39.6024 2.14572 39.5446 1.92951 39.5446C1.63501 39.5446 1.38712 39.6844 1.18581 39.964C0.98824 40.2398 0.881998 40.6722 0.867087 41.2612C0.956554 41.086 1.09821 40.935 1.29206 40.8083C1.48963 40.6778 1.72635 40.6126 2.0022 40.6126C2.22587 40.6126 2.43463 40.6648 2.62847 40.7692C2.82605 40.8735 2.98634 41.0208 3.10936 41.2109C3.23238 41.3973 3.29389 41.6172 3.29389 41.8707C3.29389 42.0907 3.23983 42.3013 3.13173 42.5026C3.02362 42.7039 2.86705 42.8679 2.66202 42.9947C2.46072 43.1214 2.22028 43.1848 1.94069 43.1848ZM1.90714 42.771C2.08235 42.771 2.23892 42.7337 2.37685 42.6592C2.51478 42.5846 2.62288 42.4821 2.70117 42.3516C2.77945 42.2174 2.81859 42.0646 2.81859 41.8931C2.81859 41.6284 2.73099 41.4178 2.55578 41.2612C2.3843 41.1009 2.16809 41.0208 1.90714 41.0208C1.73194 41.0208 1.57537 41.0618 1.43744 41.1438C1.29951 41.2221 1.18954 41.3283 1.10753 41.4625C1.02925 41.5967 0.990104 41.7421 0.990104 41.8987C0.990104 42.0664 1.02925 42.2174 1.10753 42.3516C1.18954 42.4821 1.29951 42.5846 1.43744 42.6592C1.57537 42.7337 1.73194 42.771 1.90714 42.771ZM5.58024 43.1848C5.23355 43.1848 4.93347 43.1009 4.67998 42.9331C4.43021 42.7617 4.23823 42.525 4.10403 42.223C3.96983 41.9173 3.90273 41.5632 3.90273 41.1606C3.90273 40.758 3.96983 40.4057 4.10403 40.1037C4.23823 39.7981 4.43021 39.5614 4.67998 39.3936C4.93347 39.2221 5.23355 39.1364 5.58024 39.1364C5.92693 39.1364 6.22515 39.2221 6.47491 39.3936C6.72468 39.5614 6.91666 39.7981 7.05086 40.1037C7.18506 40.4057 7.25216 40.758 7.25216 41.1606C7.25216 41.5632 7.18506 41.9173 7.05086 42.223C6.91666 42.525 6.72468 42.7617 6.47491 42.9331C6.22515 43.1009 5.92693 43.1848 5.58024 43.1848ZM5.58024 42.771C5.80764 42.771 6.0108 42.7076 6.18974 42.5809C6.3724 42.4504 6.51406 42.2659 6.61471 42.0273C6.71908 41.785 6.77127 41.4961 6.77127 41.1606C6.77127 40.8251 6.71908 40.538 6.61471 40.2995C6.51406 40.0609 6.3724 39.8782 6.18974 39.7515C6.0108 39.621 5.80764 39.5558 5.58024 39.5558C5.34912 39.5558 5.14409 39.621 4.96515 39.7515C4.78622 39.8782 4.64456 40.0609 4.54018 40.2995C4.4358 40.538 4.38361 40.8251 4.38361 41.1606C4.38361 41.4961 4.4358 41.785 4.54018 42.0273C4.64456 42.2659 4.78622 42.4504 4.96515 42.5809C5.14409 42.7076 5.34912 42.771 5.58024 42.771ZM9.4573 43.1848C9.11062 43.1848 8.81053 43.1009 8.55704 42.9331C8.30727 42.7617 8.11529 42.525 7.98109 42.223C7.84689 41.9173 7.77979 41.5632 7.77979 41.1606C7.77979 40.758 7.84689 40.4057 7.98109 40.1037C8.11529 39.7981 8.30727 39.5614 8.55704 39.3936C8.81053 39.2221 9.11062 39.1364 9.4573 39.1364C9.80399 39.1364 10.1022 39.2221 10.352 39.3936C10.6017 39.5614 10.7937 39.7981 10.9279 40.1037C11.0621 40.4057 11.1292 40.758 11.1292 41.1606C11.1292 41.5632 11.0621 41.9173 10.9279 42.223C10.7937 42.525 10.6017 42.7617 10.352 42.9331C10.1022 43.1009 9.80399 43.1848 9.4573 43.1848ZM9.4573 42.771C9.6847 42.771 9.88786 42.7076 10.0668 42.5809C10.2495 42.4504 10.3911 42.2659 10.4918 42.0273C10.5961 41.785 10.6483 41.4961 10.6483 41.1606C10.6483 40.8251 10.5961 40.538 10.4918 40.2995C10.3911 40.0609 10.2495 39.8782 10.0668 39.7515C9.88786 39.621 9.6847 39.5558 9.4573 39.5558C9.22618 39.5558 9.02115 39.621 8.84221 39.7515C8.66328 39.8782 8.52162 40.0609 8.41725 40.2995C8.31287 40.538 8.26068 40.8251 8.26068 41.1606C8.26068 41.4961 8.31287 41.785 8.41725 42.0273C8.52162 42.2659 8.66328 42.4504 8.84221 42.5809C9.02115 42.7076 9.22618 42.771 9.4573 42.771Z" fill="black"/>
<path opacity="0.4" d="M1.86241 82.3266C1.59401 82.3266 1.36102 82.2782 1.16345 82.1812C0.965873 82.0843 0.807442 81.952 0.688152 81.7842C0.57259 81.6127 0.501762 81.4189 0.475667 81.2027H0.934187C0.978921 81.4189 1.0833 81.5941 1.24732 81.7283C1.41135 81.8588 1.61824 81.924 1.868 81.924C2.05439 81.924 2.21469 81.8811 2.34889 81.7954C2.48309 81.7059 2.5856 81.5867 2.65643 81.4375C2.73099 81.2884 2.76827 81.1225 2.76827 80.9399C2.76827 80.6491 2.68626 80.4143 2.52223 80.2353C2.35821 80.0564 2.14572 79.9669 1.88478 79.9669C1.66856 79.9669 1.48404 80.0154 1.3312 80.1123C1.17836 80.2092 1.06652 80.336 0.995696 80.4925H0.548359L0.883862 78.3453H2.93602V78.7535H1.24732L1.01806 79.9446C1.10753 79.8364 1.23055 79.747 1.38712 79.6762C1.54741 79.6053 1.73007 79.5699 1.9351 79.5699C2.19232 79.5699 2.41599 79.6296 2.60611 79.7488C2.79995 79.8681 2.95093 80.0303 3.05904 80.2353C3.16714 80.4404 3.2212 80.6733 3.2212 80.9343C3.2212 81.184 3.16714 81.4152 3.05904 81.6277C2.95466 81.8401 2.79995 82.0098 2.59492 82.1365C2.39362 82.2632 2.14945 82.3266 1.86241 82.3266ZM5.48195 82.3266C5.13526 82.3266 4.83517 82.2427 4.58168 82.075C4.33192 81.9035 4.13994 81.6668 4.00574 81.3648C3.87154 81.0592 3.80444 80.705 3.80444 80.3024C3.80444 79.8998 3.87154 79.5475 4.00574 79.2456C4.13994 78.9399 4.33192 78.7032 4.58168 78.5354C4.83517 78.364 5.13526 78.2782 5.48195 78.2782C5.82863 78.2782 6.12686 78.364 6.37662 78.5354C6.62638 78.7032 6.81837 78.9399 6.95257 79.2456C7.08677 79.5475 7.15387 79.8998 7.15387 80.3024C7.15387 80.705 7.08677 81.0592 6.95257 81.3648C6.81837 81.6668 6.62638 81.9035 6.37662 82.075C6.12686 82.2427 5.82863 82.3266 5.48195 82.3266ZM5.48195 81.9128C5.70934 81.9128 5.91251 81.8495 6.09144 81.7227C6.27411 81.5922 6.41576 81.4077 6.51641 81.1691C6.62079 80.9268 6.67298 80.6379 6.67298 80.3024C6.67298 79.9669 6.62079 79.6799 6.51641 79.4413C6.41576 79.2027 6.27411 79.0201 6.09144 78.8933C5.91251 78.7628 5.70934 78.6976 5.48195 78.6976C5.25082 78.6976 5.0458 78.7628 4.86686 78.8933C4.68793 79.0201 4.54627 79.2027 4.44189 79.4413C4.33751 79.6799 4.28532 79.9669 4.28532 80.3024C4.28532 80.6379 4.33751 80.9268 4.44189 81.1691C4.54627 81.4077 4.68793 81.5922 4.86686 81.7227C5.0458 81.8495 5.25082 81.9128 5.48195 81.9128ZM9.35901 82.3266C9.01233 82.3266 8.71224 82.2427 8.45875 82.075C8.20898 81.9035 8.017 81.6668 7.8828 81.3648C7.7486 81.0592 7.6815 80.705 7.6815 80.3024C7.6815 79.8998 7.7486 79.5475 7.8828 79.2456C8.017 78.9399 8.20898 78.7032 8.45875 78.5354C8.71224 78.364 9.01233 78.2782 9.35901 78.2782C9.7057 78.2782 10.0039 78.364 10.2537 78.5354C10.5034 78.7032 10.6954 78.9399 10.8296 79.2456C10.9638 79.5475 11.0309 79.8998 11.0309 80.3024C11.0309 80.705 10.9638 81.0592 10.8296 81.3648C10.6954 81.6668 10.5034 81.9035 10.2537 82.075C10.0039 82.2427 9.7057 82.3266 9.35901 82.3266ZM9.35901 81.9128C9.58641 81.9128 9.78957 81.8495 9.96851 81.7227C10.1512 81.5922 10.2928 81.4077 10.3935 81.1691C10.4979 80.9268 10.55 80.6379 10.55 80.3024C10.55 79.9669 10.4979 79.6799 10.3935 79.4413C10.2928 79.2027 10.1512 79.0201 9.96851 78.8933C9.78957 78.7628 9.58641 78.6976 9.35901 78.6976C9.12789 78.6976 8.92286 78.7628 8.74392 78.8933C8.56499 79.0201 8.42333 79.2027 8.31895 79.4413C8.21458 79.6799 8.16239 79.9669 8.16239 80.3024C8.16239 80.6379 8.21458 80.9268 8.31895 81.1691C8.42333 81.4077 8.56499 81.5922 8.74392 81.7227C8.92286 81.8495 9.12789 81.9128 9.35901 81.9128Z" fill="black"/>
<path opacity="0.4" d="M2.30416 121.402V120.563H0.319099V120.199L2.22028 117.487H2.76827V120.149H3.3498V120.563H2.76827V121.402H2.30416ZM0.839128 120.149H2.32652V118.007L0.839128 120.149ZM5.44372 121.469C5.09704 121.469 4.79695 121.385 4.54346 121.217C4.2937 121.046 4.10171 120.809 3.96751 120.507C3.83331 120.201 3.76621 119.847 3.76621 119.445C3.76621 119.042 3.83331 118.69 3.96751 118.388C4.10171 118.082 4.2937 117.845 4.54346 117.678C4.79695 117.506 5.09704 117.42 5.44372 117.42C5.79041 117.42 6.08863 117.506 6.3384 117.678C6.58816 117.845 6.78014 118.082 6.91434 118.388C7.04854 118.69 7.11564 119.042 7.11564 119.445C7.11564 119.847 7.04854 120.201 6.91434 120.507C6.78014 120.809 6.58816 121.046 6.3384 121.217C6.08863 121.385 5.79041 121.469 5.44372 121.469ZM5.44372 121.055C5.67112 121.055 5.87429 120.992 6.05322 120.865C6.23588 120.734 6.37754 120.55 6.47819 120.311C6.58257 120.069 6.63476 119.78 6.63476 119.445C6.63476 119.109 6.58257 118.822 6.47819 118.583C6.37754 118.345 6.23588 118.162 6.05322 118.035C5.87429 117.905 5.67112 117.84 5.44372 117.84C5.2126 117.84 5.00757 117.905 4.82864 118.035C4.6497 118.162 4.50804 118.345 4.40367 118.583C4.29929 118.822 4.2471 119.109 4.2471 119.445C4.2471 119.78 4.29929 120.069 4.40367 120.311C4.50804 120.55 4.6497 120.734 4.82864 120.865C5.00757 120.992 5.2126 121.055 5.44372 121.055ZM9.32079 121.469C8.9741 121.469 8.67401 121.385 8.42052 121.217C8.17076 121.046 7.97878 120.809 7.84458 120.507C7.71037 120.201 7.64327 119.847 7.64327 119.445C7.64327 119.042 7.71037 118.69 7.84458 118.388C7.97878 118.082 8.17076 117.845 8.42052 117.678C8.67401 117.506 8.9741 117.42 9.32079 117.42C9.66747 117.42 9.9657 117.506 10.2155 117.678C10.4652 117.845 10.6572 118.082 10.7914 118.388C10.9256 118.69 10.9927 119.042 10.9927 119.445C10.9927 119.847 10.9256 120.201 10.7914 120.507C10.6572 120.809 10.4652 121.046 10.2155 121.217C9.9657 121.385 9.66747 121.469 9.32079 121.469ZM9.32079 121.055C9.54818 121.055 9.75135 120.992 9.93028 120.865C10.1129 120.734 10.2546 120.55 10.3553 120.311C10.4596 120.069 10.5118 119.78 10.5118 119.445C10.5118 119.109 10.4596 118.822 10.3553 118.583C10.2546 118.345 10.1129 118.162 9.93028 118.035C9.75135 117.905 9.54818 117.84 9.32079 117.84C9.08966 117.84 8.88463 117.905 8.7057 118.035C8.52676 118.162 8.38511 118.345 8.28073 118.583C8.17635 118.822 8.12416 119.109 8.12416 119.445C8.12416 119.78 8.17635 120.069 8.28073 120.311C8.38511 120.55 8.52676 120.734 8.7057 120.865C8.88463 120.992 9.08966 121.055 9.32079 121.055Z" fill="black"/>
<path opacity="0.4" d="M1.75058 160.611C1.50081 160.611 1.27528 160.566 1.07398 160.476C0.872678 160.383 0.710519 160.245 0.587501 160.063C0.468211 159.88 0.404839 159.653 0.397383 159.38H0.872678C0.876406 159.604 0.95469 159.798 1.10753 159.962C1.26037 160.122 1.47472 160.202 1.75058 160.202C2.02643 160.202 2.23333 160.126 2.37126 159.973C2.51291 159.82 2.58374 159.636 2.58374 159.42C2.58374 159.237 2.53901 159.088 2.44954 158.972C2.3638 158.857 2.24637 158.771 2.09726 158.715C1.95188 158.659 1.79158 158.631 1.61638 158.631H1.32561V158.234H1.61638C1.86987 158.234 2.06744 158.176 2.2091 158.061C2.35448 157.945 2.42717 157.783 2.42717 157.574C2.42717 157.399 2.36939 157.256 2.25383 157.144C2.142 157.028 1.97424 156.97 1.75058 156.97C1.53436 156.97 1.36102 157.036 1.23055 157.166C1.10007 157.293 1.02738 157.453 1.01247 157.647H0.537176C0.548359 157.434 0.604276 157.246 0.704927 157.082C0.809306 156.918 0.950962 156.791 1.1299 156.702C1.30883 156.609 1.51572 156.562 1.75058 156.562C2.00407 156.562 2.21469 156.607 2.38244 156.696C2.55392 156.786 2.68253 156.905 2.76827 157.054C2.85773 157.203 2.90247 157.367 2.90247 157.546C2.90247 157.744 2.84841 157.925 2.74031 158.089C2.6322 158.249 2.47004 158.357 2.25383 158.413C2.48495 158.461 2.67694 158.571 2.82978 158.743C2.98262 158.914 3.05904 159.14 3.05904 159.42C3.05904 159.636 3.00871 159.835 2.90806 160.018C2.81114 160.197 2.66575 160.34 2.47191 160.448C2.27806 160.557 2.03762 160.611 1.75058 160.611ZM5.34543 160.611C4.99875 160.611 4.69866 160.527 4.44517 160.359C4.1954 160.187 4.00342 159.951 3.86922 159.649C3.73502 159.343 3.66792 158.989 3.66792 158.586C3.66792 158.184 3.73502 157.831 3.86922 157.53C4.00342 157.224 4.1954 156.987 4.44517 156.819C4.69866 156.648 4.99875 156.562 5.34543 156.562C5.69212 156.562 5.99034 156.648 6.24011 156.819C6.48987 156.987 6.68185 157.224 6.81605 157.53C6.95025 157.831 7.01735 158.184 7.01735 158.586C7.01735 158.989 6.95025 159.343 6.81605 159.649C6.68185 159.951 6.48987 160.187 6.24011 160.359C5.99034 160.527 5.69212 160.611 5.34543 160.611ZM5.34543 160.197C5.57283 160.197 5.77599 160.133 5.95493 160.007C6.13759 159.876 6.27925 159.692 6.3799 159.453C6.48428 159.211 6.53647 158.922 6.53647 158.586C6.53647 158.251 6.48428 157.964 6.3799 157.725C6.27925 157.487 6.13759 157.304 5.95493 157.177C5.77599 157.047 5.57283 156.982 5.34543 156.982C5.11431 156.982 4.90928 157.047 4.73034 157.177C4.55141 157.304 4.40975 157.487 4.30537 157.725C4.201 157.964 4.14881 158.251 4.14881 158.586C4.14881 158.922 4.201 159.211 4.30537 159.453C4.40975 159.692 4.55141 159.876 4.73034 160.007C4.90928 160.133 5.11431 160.197 5.34543 160.197ZM9.22249 160.611C8.87581 160.611 8.57572 160.527 8.32223 160.359C8.07247 160.187 7.88048 159.951 7.74628 159.649C7.61208 159.343 7.54498 158.989 7.54498 158.586C7.54498 158.184 7.61208 157.831 7.74628 157.53C7.88048 157.224 8.07247 156.987 8.32223 156.819C8.57572 156.648 8.87581 156.562 9.22249 156.562C9.56918 156.562 9.8674 156.648 10.1172 156.819C10.3669 156.987 10.5589 157.224 10.6931 157.53C10.8273 157.831 10.8944 158.184 10.8944 158.586C10.8944 158.989 10.8273 159.343 10.6931 159.649C10.5589 159.951 10.3669 160.187 10.1172 160.359C9.8674 160.527 9.56918 160.611 9.22249 160.611ZM9.22249 160.197C9.44989 160.197 9.65306 160.133 9.83199 160.007C10.0147 159.876 10.1563 159.692 10.257 159.453C10.3613 159.211 10.4135 158.922 10.4135 158.586C10.4135 158.251 10.3613 157.964 10.257 157.725C10.1563 157.487 10.0147 157.304 9.83199 157.177C9.65306 157.047 9.44989 156.982 9.22249 156.982C8.99137 156.982 8.78634 157.047 8.60741 157.177C8.42847 157.304 8.28682 157.487 8.18244 157.725C8.07806 157.964 8.02587 158.251 8.02587 158.586C8.02587 158.922 8.07806 159.211 8.18244 159.453C8.28682 159.692 8.42847 159.876 8.60741 160.007C8.78634 160.133 8.99137 160.197 9.22249 160.197Z" fill="black"/>
<path opacity="0.4" d="M0.470075 199.686V199.356C0.73475 199.147 0.984512 198.936 1.21936 198.724C1.45794 198.508 1.66856 198.295 1.85123 198.086C2.03762 197.878 2.183 197.673 2.28738 197.471C2.39549 197.27 2.44954 197.076 2.44954 196.89C2.44954 196.752 2.42531 196.623 2.37685 196.504C2.33211 196.385 2.25756 196.29 2.15318 196.219C2.0488 196.144 1.90714 196.107 1.72821 196.107C1.55673 196.107 1.41321 196.146 1.29765 196.224C1.18209 196.299 1.09448 196.399 1.03484 196.526C0.978921 196.653 0.950962 196.789 0.950962 196.934H0.498034C0.498034 196.677 0.552087 196.457 0.660193 196.275C0.7683 196.088 0.915548 195.947 1.10194 195.85C1.28833 195.753 1.49895 195.704 1.7338 195.704C2.08049 195.704 2.3638 195.803 2.58374 196.001C2.80741 196.194 2.91924 196.485 2.91924 196.873C2.91924 197.104 2.86146 197.333 2.7459 197.561C2.63034 197.784 2.48309 198.002 2.30416 198.215C2.12522 198.424 1.93324 198.619 1.72821 198.802C1.52691 198.985 1.33865 199.149 1.16345 199.294H3.05344V199.686H0.470075ZM5.20346 199.753C4.85677 199.753 4.55668 199.669 4.30319 199.501C4.05343 199.33 3.86145 199.093 3.72724 198.791C3.59304 198.485 3.52594 198.131 3.52594 197.728C3.52594 197.326 3.59304 196.974 3.72724 196.672C3.86145 196.366 4.05343 196.129 4.30319 195.961C4.55668 195.79 4.85677 195.704 5.20346 195.704C5.55014 195.704 5.84837 195.79 6.09813 195.961C6.34789 196.129 6.53987 196.366 6.67407 196.672C6.80828 196.974 6.87538 197.326 6.87538 197.728C6.87538 198.131 6.80828 198.485 6.67407 198.791C6.53987 199.093 6.34789 199.33 6.09813 199.501C5.84837 199.669 5.55014 199.753 5.20346 199.753ZM5.20346 199.339C5.43085 199.339 5.63402 199.275 5.81295 199.149C5.99561 199.018 6.13727 198.834 6.23792 198.595C6.3423 198.353 6.39449 198.064 6.39449 197.728C6.39449 197.393 6.3423 197.106 6.23792 196.867C6.13727 196.629 5.99561 196.446 5.81295 196.319C5.63402 196.189 5.43085 196.124 5.20346 196.124C4.97233 196.124 4.7673 196.189 4.58837 196.319C4.40943 196.446 4.26778 196.629 4.1634 196.867C4.05902 197.106 4.00683 197.393 4.00683 197.728C4.00683 198.064 4.05902 198.353 4.1634 198.595C4.26778 198.834 4.40943 199.018 4.58837 199.149C4.7673 199.275 4.97233 199.339 5.20346 199.339ZM9.08052 199.753C8.73383 199.753 8.43374 199.669 8.18025 199.501C7.93049 199.33 7.73851 199.093 7.60431 198.791C7.47011 198.485 7.40301 198.131 7.40301 197.728C7.40301 197.326 7.47011 196.974 7.60431 196.672C7.73851 196.366 7.93049 196.129 8.18025 195.961C8.43374 195.79 8.73383 195.704 9.08052 195.704C9.4272 195.704 9.72543 195.79 9.97519 195.961C10.225 196.129 10.4169 196.366 10.5511 196.672C10.6853 196.974 10.7524 197.326 10.7524 197.728C10.7524 198.131 10.6853 198.485 10.5511 198.791C10.4169 199.093 10.225 199.33 9.97519 199.501C9.72543 199.669 9.4272 199.753 9.08052 199.753ZM9.08052 199.339C9.30791 199.339 9.51108 199.275 9.69001 199.149C9.87268 199.018 10.0143 198.834 10.115 198.595C10.2194 198.353 10.2716 198.064 10.2716 197.728C10.2716 197.393 10.2194 197.106 10.115 196.867C10.0143 196.629 9.87268 196.446 9.69001 196.319C9.51108 196.189 9.30791 196.124 9.08052 196.124C8.84939 196.124 8.64436 196.189 8.46543 196.319C8.28649 196.446 8.14484 196.629 8.04046 196.867C7.93608 197.106 7.88389 197.393 7.88389 197.728C7.88389 198.064 7.93608 198.353 8.04046 198.595C8.14484 198.834 8.28649 199.018 8.46543 199.149C8.64436 199.275 8.84939 199.339 9.08052 199.339Z" fill="black"/>
</g>
<g opacity="0.1">
<rect width="627.444" height="0.342023" transform="translate(29.2106 19.4202)" fill="black"/>
</g>
<g opacity="0.1">
<rect width="627.444" height="0.342023" transform="translate(29.2106 52.9385)" fill="black"/>
</g>
<g opacity="0.1">
<rect width="627.444" height="0.342023" transform="translate(29.2106 86.4568)" fill="black"/>
</g>
<g opacity="0.1">
<rect width="627.444" height="0.342023" transform="translate(29.2106 119.975)" fill="black"/>
</g>
<g opacity="0.1">
<rect width="627.444" height="0.342023" transform="translate(29.2106 153.493)" fill="black"/>
</g>
<g opacity="0.1">
<rect width="627.444" height="0.342023" transform="translate(29.2106 187.012)" fill="black"/>
</g>
<g opacity="0.1">
<rect width="627.444" height="0.342023" transform="translate(29.2106 220.53)" fill="black"/>
</g>
<path fill-rule="evenodd" clip-rule="evenodd" d="M45.2122 0.476562C47.0868 0.476562 48.6064 1.9962 48.6064 3.87077L48.6064 217.48C48.6064 219.354 47.0868 220.874 45.2122 220.874C43.3377 220.874 41.818 219.354 41.818 217.48L41.818 3.87077C41.818 1.9962 43.3377 0.476562 45.2122 0.476562Z" fill="#96C9F9"/>
<path fill-rule="evenodd" clip-rule="evenodd" d="M56.8494 23.9484C58.724 23.9484 60.2436 25.468 60.2436 27.3426L60.2436 217.48C60.2436 219.354 58.724 220.874 56.8494 220.874C54.9748 220.874 53.4552 219.354 53.4552 217.48L53.4552 27.3426C53.4552 25.468 54.9748 23.9484 56.8494 23.9484Z" fill="#8EDE96"/>
<path fill-rule="evenodd" clip-rule="evenodd" d="M98.065 100.332C99.9395 100.332 101.459 101.851 101.459 103.726L101.459 217.48C101.459 219.354 99.9395 220.874 98.065 220.874C96.1904 220.874 94.6708 219.354 94.6708 217.48L94.6708 103.726C94.6708 101.851 96.1904 100.332 98.065 100.332Z" fill="#96C9F9"/>
<path fill-rule="evenodd" clip-rule="evenodd" d="M109.702 45.8291C111.577 45.8291 113.096 47.3487 113.096 49.2233L113.096 217.48C113.096 219.354 111.577 220.874 109.702 220.874C107.828 220.874 106.308 219.354 106.308 217.48L106.308 49.2233C106.308 47.3487 107.828 45.8291 109.702 45.8291Z" fill="#8EDE96"/>
<path fill-rule="evenodd" clip-rule="evenodd" d="M150.918 68.9033C152.792 68.9033 154.312 70.423 154.312 72.2975L154.312 217.48C154.312 219.355 152.792 220.874 150.918 220.874C149.043 220.874 147.523 219.355 147.523 217.48L147.523 72.2975C147.523 70.423 149.043 68.9033 150.918 68.9033Z" fill="#96C9F9"/>
<path fill-rule="evenodd" clip-rule="evenodd" d="M162.555 85.6121C164.43 85.6121 165.949 87.1317 165.949 89.0063L165.949 217.48C165.949 219.354 164.43 220.874 162.555 220.874C160.681 220.874 159.161 219.354 159.161 217.48L159.161 89.0063C159.161 87.1317 160.681 85.6121 162.555 85.6121Z" fill="#8EDE96"/>
<path fill-rule="evenodd" clip-rule="evenodd" d="M203.771 44.6357C205.645 44.6357 207.165 46.1554 207.165 48.03L207.165 217.48C207.165 219.355 205.645 220.874 203.771 220.874C201.896 220.874 200.377 219.355 200.377 217.48L200.377 48.03C200.377 46.1554 201.896 44.6357 203.771 44.6357Z" fill="#96C9F9"/>
<path fill-rule="evenodd" clip-rule="evenodd" d="M215.407 25.5398C217.282 25.5398 218.802 27.0594 218.802 28.934L218.802 217.48C218.802 219.354 217.282 220.874 215.407 220.874C213.533 220.874 212.013 219.354 212.013 217.48L212.013 28.934C212.013 27.0594 213.533 25.5398 215.407 25.5398Z" fill="#8EDE96"/>
<path fill-rule="evenodd" clip-rule="evenodd" d="M256.623 13.207C258.497 13.207 260.017 14.7267 260.017 16.6012V217.48C260.017 219.354 258.497 220.874 256.623 220.874C254.748 220.874 253.229 219.354 253.229 217.48L253.229 16.6012C253.229 14.7267 254.748 13.207 256.623 13.207Z" fill="#96C9F9"/>
<path fill-rule="evenodd" clip-rule="evenodd" d="M268.26 39.0662C270.135 39.0662 271.654 40.5858 271.654 42.4604V217.48C271.654 219.355 270.135 220.874 268.26 220.874C266.386 220.874 264.866 219.355 264.866 217.48V42.4604C264.866 40.5858 266.386 39.0662 268.26 39.0662Z" fill="#8EDE96"/>
<path fill-rule="evenodd" clip-rule="evenodd" d="M309.476 89.5906C311.35 89.5906 312.87 91.1102 312.87 92.9848V217.48C312.87 219.355 311.35 220.874 309.476 220.874C307.601 220.874 306.082 219.355 306.082 217.48V92.9848C306.082 91.1102 307.601 89.5906 309.476 89.5906Z" fill="#96C9F9"/>
<path fill-rule="evenodd" clip-rule="evenodd" d="M321.113 47.0227C322.988 47.0227 324.507 48.5423 324.507 50.4169V217.48C324.507 219.355 322.988 220.874 321.113 220.874C319.239 220.874 317.719 219.355 317.719 217.48V50.4169C317.719 48.5423 319.239 47.0227 321.113 47.0227Z" fill="#8EDE96"/>
<path fill-rule="evenodd" clip-rule="evenodd" d="M362.329 0.476562C364.203 0.476562 365.723 1.9962 365.723 3.87077V217.48C365.723 219.354 364.203 220.874 362.329 220.874C360.454 220.874 358.934 219.354 358.934 217.48V3.87077C358.934 1.9962 360.454 0.476562 362.329 0.476562Z" fill="#96C9F9"/>
<path fill-rule="evenodd" clip-rule="evenodd" d="M373.966 29.916C375.841 29.916 377.36 31.4357 377.36 33.3102V217.48C377.36 219.354 375.841 220.874 373.966 220.874C372.092 220.874 370.572 219.354 370.572 217.48V33.3102C370.572 31.4357 372.092 29.916 373.966 29.916Z" fill="#8EDE96"/>
<path fill-rule="evenodd" clip-rule="evenodd" d="M415.182 77.6555C417.057 77.6555 418.576 79.1752 418.576 81.0497V217.48C418.576 219.354 417.057 220.874 415.182 220.874C413.308 220.874 411.788 219.354 411.788 217.48V81.0497C411.788 79.1752 413.308 77.6555 415.182 77.6555Z" fill="#96C9F9"/>
<path fill-rule="evenodd" clip-rule="evenodd" d="M426.82 49.0117C428.695 49.0117 430.214 50.5314 430.214 52.4059V217.48C430.214 219.354 428.695 220.874 426.82 220.874C424.945 220.874 423.426 219.354 423.426 217.48V52.4059C423.426 50.5314 424.945 49.0117 426.82 49.0117Z" fill="#8EDE96"/>
<path fill-rule="evenodd" clip-rule="evenodd" d="M468.033 19.5725C469.908 19.5725 471.427 21.0921 471.427 22.9667V217.48C471.427 219.355 469.908 220.874 468.033 220.874C466.159 220.874 464.639 219.355 464.639 217.48V22.9667C464.639 21.0922 466.159 19.5725 468.033 19.5725Z" fill="#96C9F9"/>
<path fill-rule="evenodd" clip-rule="evenodd" d="M479.671 40.6575C481.546 40.6575 483.065 42.1771 483.065 44.0517V217.48C483.065 219.355 481.546 220.874 479.671 220.874C477.796 220.874 476.277 219.355 476.277 217.48V44.0517C476.277 42.1771 477.796 40.6575 479.671 40.6575Z" fill="#8EDE96"/>
<path fill-rule="evenodd" clip-rule="evenodd" d="M520.886 12.0137C522.761 12.0137 524.281 13.5333 524.281 15.4079V217.48C524.281 219.354 522.761 220.874 520.886 220.874C519.012 220.874 517.492 219.354 517.492 217.48V15.4079C517.492 13.5333 519.012 12.0137 520.886 12.0137Z" fill="#96C9F9"/>
<path fill-rule="evenodd" clip-rule="evenodd" d="M532.524 22.3572C534.398 22.3572 535.918 23.8768 535.918 25.7514V217.48C535.918 219.354 534.398 220.874 532.524 220.874C530.649 220.874 529.129 219.354 529.129 217.48V25.7514C529.129 23.8768 530.649 22.3572 532.524 22.3572Z" fill="#8EDE96"/>
<path fill-rule="evenodd" clip-rule="evenodd" d="M573.739 119.825C575.613 119.825 577.133 121.345 577.133 123.22V217.48C577.133 219.354 575.613 220.874 573.739 220.874C571.864 220.874 570.344 219.354 570.344 217.48V123.22C570.344 121.345 571.864 119.825 573.739 119.825Z" fill="#96C9F9"/>
<path fill-rule="evenodd" clip-rule="evenodd" d="M585.376 91.5796C587.25 91.5796 588.77 93.0992 588.77 94.9738V217.48C588.77 219.354 587.25 220.874 585.376 220.874C583.501 220.874 581.982 219.355 581.982 217.48V94.9738C581.982 93.0992 583.501 91.5796 585.376 91.5796Z" fill="#8EDE96"/>
<path fill-rule="evenodd" clip-rule="evenodd" d="M626.592 36.2812C628.466 36.2812 629.986 37.8009 629.986 39.6755V217.48C629.986 219.354 628.466 220.874 626.592 220.874C624.717 220.874 623.197 219.354 623.197 217.48V39.6755C623.197 37.8009 624.717 36.2812 626.592 36.2812Z" fill="#96C9F9"/>
<path fill-rule="evenodd" clip-rule="evenodd" d="M638.229 56.1726C640.104 56.1726 641.623 57.6922 641.623 59.5668V217.48C641.623 219.354 640.104 220.874 638.229 220.874C636.355 220.874 634.835 219.354 634.835 217.48V59.5668C634.835 57.6923 636.355 56.1726 638.229 56.1726Z" fill="#8EDE96"/>
<defs>
<clipPath id="clip0_8_332">
<rect width="599.32" height="6.84046" fill="white" transform="translate(43.2728 105.385)"/>
</clipPath>
<clipPath id="clip1_8_332">
<rect width="14.0617" height="207.95" fill="white" transform="translate(0.117889 16)"/>
</clipPath>
</defs>
</svg>
