<svg width="653" height="240" viewBox="0 0 653 240" fill="none" xmlns="http://www.w3.org/2000/svg">
<path d="M5.1551 9.91528H3.99011V8.41176H0.823752V7.47579L3.552 3.27389H5.1551V7.38618H6.04128V8.41176H5.1551V9.91528ZM3.99011 7.38618V4.31938L1.96882 7.38618H3.99011ZM9.39761 10.0348C8.94622 10.0348 8.54461 9.9352 8.19279 9.73606C7.84761 9.53691 7.57213 9.27139 7.36635 8.93949C7.16057 8.60758 7.00458 8.24249 6.89837 7.8442C6.79216 7.44592 6.73906 7.03104 6.73906 6.59956C6.73906 6.16809 6.78884 5.75321 6.88841 5.35492C6.99462 4.95664 7.15062 4.59155 7.3564 4.25964C7.56882 3.92774 7.84761 3.66553 8.19279 3.47303C8.54461 3.27389 8.94622 3.17432 9.39761 3.17432C9.98839 3.17432 10.4896 3.34691 10.9011 3.69209C11.3127 4.03727 11.6048 4.4621 11.7774 4.9666C11.9566 5.46445 12.0462 6.00877 12.0462 6.59956C12.0462 7.18371 11.9566 7.72804 11.7774 8.23253C11.6048 8.73702 11.3127 9.16518 10.9011 9.517C10.4896 9.86218 9.98839 10.0348 9.39761 10.0348ZM8.28241 8.32214C8.52138 8.77353 8.89311 8.99923 9.39761 8.99923C9.9021 8.99923 10.2705 8.77353 10.5028 8.32214C10.7418 7.87076 10.8613 7.29656 10.8613 6.59956C10.8613 6.14817 10.8148 5.75321 10.7219 5.41467C10.6356 5.06949 10.4796 4.78405 10.2539 4.55835C10.0282 4.32602 9.74279 4.20986 9.39761 4.20986C9.05243 4.20986 8.76367 4.32602 8.53134 4.55835C8.30564 4.78405 8.14633 5.06949 8.0534 5.41467C7.9671 5.75321 7.92395 6.14817 7.92395 6.59956C7.92395 7.29656 8.04344 7.87076 8.28241 8.32214ZM17.644 9.91528H16.3296L14.8659 7.92386L14.1888 8.62086V9.91528H13.1433V3.27389H14.1888V7.426L16.3097 5.106H17.6041L15.6127 7.2866L17.644 9.91528ZM3.29312 39.0348C2.73552 39.0348 2.23766 38.9352 1.79955 38.7361C1.36807 38.5369 1.02953 38.278 0.783923 37.9594L1.42118 37.1927C1.6336 37.4449 1.90244 37.6441 2.22771 37.7901C2.55961 37.9295 2.90147 37.9992 3.25329 37.9992C3.68476 37.9992 4.0233 37.9063 4.26891 37.7204C4.51452 37.5346 4.63733 37.289 4.63733 36.9836C4.63733 36.353 4.14611 36.0377 3.16367 36.0377C2.79194 36.0377 2.53969 36.0443 2.40693 36.0576V35.0021C2.47995 35.0088 2.7322 35.0121 3.16367 35.0121C3.57523 35.0121 3.90714 34.9391 4.15939 34.793C4.41163 34.647 4.53776 34.4279 4.53776 34.1359C4.53776 33.8438 4.40831 33.6181 4.14943 33.4588C3.89718 33.2928 3.57855 33.2099 3.19355 33.2099C2.5231 33.2099 1.94891 33.4555 1.47096 33.9467L0.873537 33.2198C1.47096 32.5228 2.28081 32.1743 3.30307 32.1743C4.02662 32.1743 4.60414 32.3336 5.03561 32.6523C5.47372 32.9709 5.69278 33.4057 5.69278 33.9566C5.69278 34.3748 5.54674 34.72 5.25467 34.9922C4.96923 35.2577 4.63733 35.4203 4.25896 35.4801C4.63733 35.5199 4.98914 35.6825 5.31441 35.968C5.63968 36.2534 5.80231 36.6285 5.80231 37.0931C5.80231 37.6706 5.5733 38.1386 5.11527 38.4971C4.66388 38.8555 4.0565 39.0348 3.29312 39.0348ZM9.33926 39.0348C8.88787 39.0348 8.48627 38.9352 8.13445 38.7361C7.78927 38.5369 7.51379 38.2714 7.30801 37.9395C7.10223 37.6076 6.94624 37.2425 6.84003 36.8442C6.73382 36.4459 6.68071 36.031 6.68071 35.5996C6.68071 35.1681 6.7305 34.7532 6.83007 34.3549C6.93628 33.9566 7.09227 33.5915 7.29805 33.2596C7.51047 32.9277 7.78927 32.6655 8.13445 32.473C8.48627 32.2739 8.88787 32.1743 9.33926 32.1743C9.93005 32.1743 10.4312 32.3469 10.8428 32.6921C11.2543 33.0373 11.5464 33.4621 11.719 33.9666C11.8982 34.4645 11.9879 35.0088 11.9879 35.5996C11.9879 36.1837 11.8982 36.728 11.719 37.2325C11.5464 37.737 11.2543 38.1652 10.8428 38.517C10.4312 38.8622 9.93005 39.0348 9.33926 39.0348ZM8.22407 37.3221C8.46304 37.7735 8.83477 37.9992 9.33926 37.9992C9.84376 37.9992 10.2122 37.7735 10.4445 37.3221C10.6835 36.8708 10.803 36.2966 10.803 35.5996C10.803 35.1482 10.7565 34.7532 10.6636 34.4147C10.5773 34.0695 10.4213 33.784 10.1956 33.5584C9.96988 33.326 9.68444 33.2099 9.33926 33.2099C8.99408 33.2099 8.70533 33.326 8.47299 33.5584C8.2473 33.784 8.08799 34.0695 7.99505 34.4147C7.90876 34.7532 7.86561 35.1482 7.86561 35.5996C7.86561 36.2966 7.9851 36.8708 8.22407 37.3221ZM17.5856 38.9153H16.2713L14.8076 36.9239L14.1305 37.6209V38.9153H13.085V32.2739H14.1305V36.426L16.2514 34.106H17.5458L15.5544 36.2866L17.5856 38.9153ZM5.8521 68.9153H1.04281V67.9893C2.44344 66.9272 3.39269 66.1472 3.89054 65.6493C4.3884 65.1515 4.63733 64.6736 4.63733 64.2155C4.63733 63.8903 4.51784 63.6413 4.27887 63.4687C4.0399 63.2962 3.75446 63.2099 3.42256 63.2099C2.69901 63.2099 2.10158 63.4721 1.63028 63.9965L0.953194 63.2397C1.23863 62.8945 1.59709 62.6323 2.02856 62.4531C2.46668 62.2672 2.92802 62.1743 3.4126 62.1743C4.08969 62.1743 4.65724 62.3569 5.11527 62.722C5.57993 63.0804 5.81227 63.5783 5.81227 64.2155C5.81227 64.793 5.5733 65.3639 5.09535 65.9281C4.62405 66.4924 3.89718 67.1462 2.91475 67.8897H5.8521V68.9153ZM9.49368 69.0348C8.43822 69.0348 7.61842 68.6929 7.03427 68.0092L7.7014 67.2027C8.15278 67.7337 8.74689 67.9992 9.48372 67.9992C9.89528 67.9992 10.2239 67.8897 10.4695 67.6706C10.7217 67.4449 10.8478 67.1628 10.8478 66.8243C10.8478 66.4725 10.725 66.1904 10.4794 65.9779C10.2405 65.7589 9.91851 65.6493 9.51359 65.6493C8.94935 65.6493 8.46477 65.8385 8.05985 66.2169L7.23341 65.9779V62.2739H11.5847V63.2995H8.39839V65.2112C8.80332 64.8329 9.30449 64.6437 9.90192 64.6437C10.4927 64.6437 10.9939 64.8362 11.4054 65.2212C11.8236 65.6062 12.0327 66.1273 12.0327 66.7845C12.0327 67.4615 11.7971 68.0059 11.3258 68.4174C10.8545 68.829 10.2438 69.0348 9.49368 69.0348ZM17.6148 68.9153H16.3005L14.8368 66.9239L14.1597 67.6209V68.9153H13.1142V62.2739H14.1597V66.426L16.2805 64.106H17.575L15.5835 66.2866L17.6148 68.9153ZM5.8521 97.9153H1.04281V96.9893C2.44344 95.9272 3.39269 95.1472 3.89054 94.6493C4.3884 94.1515 4.63733 93.6736 4.63733 93.2155C4.63733 92.8903 4.51784 92.6413 4.27887 92.4687C4.0399 92.2962 3.75446 92.2099 3.42256 92.2099C2.69901 92.2099 2.10158 92.4721 1.63028 92.9965L0.953194 92.2397C1.23863 91.8945 1.59709 91.6323 2.02856 91.4531C2.46668 91.2672 2.92802 91.1743 3.4126 91.1743C4.08969 91.1743 4.65724 91.3569 5.11527 91.722C5.57993 92.0804 5.81227 92.5783 5.81227 93.2155C5.81227 93.793 5.5733 94.3639 5.09535 94.9281C4.62405 95.4924 3.89718 96.1462 2.91475 96.8897H5.8521V97.9153ZM9.54346 98.0348C9.09207 98.0348 8.69047 97.9352 8.33865 97.7361C7.99347 97.5369 7.71799 97.2714 7.51221 96.9395C7.30643 96.6076 7.15044 96.2425 7.04423 95.8442C6.93802 95.4459 6.88491 95.031 6.88491 94.5996C6.88491 94.1681 6.9347 93.7532 7.03427 93.3549C7.14048 92.9566 7.29647 92.5915 7.50225 92.2596C7.71467 91.9277 7.99347 91.6655 8.33865 91.473C8.69047 91.2739 9.09207 91.1743 9.54346 91.1743C10.1343 91.1743 10.6354 91.3469 11.047 91.6921C11.4585 92.0373 11.7506 92.4621 11.9232 92.9666C12.1024 93.4645 12.1921 94.0088 12.1921 94.5996C12.1921 95.1837 12.1024 95.728 11.9232 96.2325C11.7506 96.737 11.4585 97.1652 11.047 97.517C10.6354 97.8622 10.1343 98.0348 9.54346 98.0348ZM8.42827 96.3221C8.66724 96.7735 9.03897 96.9992 9.54346 96.9992C10.048 96.9992 10.4164 96.7735 10.6487 96.3221C10.8877 95.8708 11.0072 95.2966 11.0072 94.5996C11.0072 94.1482 10.9607 93.7532 10.8678 93.4147C10.7815 93.0695 10.6255 92.784 10.3998 92.5584C10.1741 92.326 9.88864 92.2099 9.54346 92.2099C9.19828 92.2099 8.90953 92.326 8.67719 92.5584C8.4515 92.784 8.29218 93.0695 8.19925 93.4147C8.11296 93.7532 8.06981 94.1482 8.06981 94.5996C8.06981 95.2966 8.18929 95.8708 8.42827 96.3221ZM17.7898 97.9153H16.4755L15.0118 95.9239L14.3347 96.6209V97.9153H13.2892V91.2739H14.3347V95.426L16.4556 93.106H17.75L15.7586 95.2866L17.7898 97.9153ZM3.6217 127.915H2.45672V122.777L1.37139 123.913L0.694309 123.206L2.60608 121.274H3.6217V127.915ZM7.35445 128.035C6.299 128.035 5.4792 127.693 4.89504 127.009L5.56217 126.203C6.01356 126.734 6.60767 126.999 7.3445 126.999C7.75606 126.999 8.08464 126.89 8.33025 126.671C8.5825 126.445 8.70862 126.163 8.70862 125.824C8.70862 125.472 8.58582 125.19 8.34021 124.978C8.10124 124.759 7.77929 124.649 7.37437 124.649C6.81013 124.649 6.32555 124.839 5.92063 125.217L5.09419 124.978V121.274H9.44545V122.299H6.25917V124.211C6.66409 123.833 7.16527 123.644 7.76269 123.644C8.35348 123.644 8.85466 123.836 9.26622 124.221C9.68442 124.606 9.89352 125.127 9.89352 125.784C9.89352 126.462 9.65787 127.006 9.18656 127.417C8.71526 127.829 8.10456 128.035 7.35445 128.035ZM15.4756 127.915H14.1612L12.6975 125.924L12.0204 126.621V127.915H10.975V121.274H12.0204V125.426L14.1413 123.106H15.4357L13.4443 125.287L15.4756 127.915ZM3.6217 156.915H2.45672V151.777L1.37139 152.913L0.694309 152.206L2.60608 150.274H3.6217V156.915ZM7.40424 157.035C6.95285 157.035 6.55125 156.935 6.19943 156.736C5.85425 156.537 5.57877 156.271 5.37299 155.939C5.16721 155.608 5.01121 155.242 4.905 154.844C4.79879 154.446 4.74569 154.031 4.74569 153.6C4.74569 153.168 4.79547 152.753 4.89504 152.355C5.00125 151.957 5.15725 151.592 5.36303 151.26C5.57545 150.928 5.85425 150.666 6.19943 150.473C6.55125 150.274 6.95285 150.174 7.40424 150.174C7.99503 150.174 8.4962 150.347 8.90776 150.692C9.31932 151.037 9.6114 151.462 9.78399 151.967C9.96322 152.464 10.0528 153.009 10.0528 153.6C10.0528 154.184 9.96322 154.728 9.78399 155.233C9.6114 155.737 9.31932 156.165 8.90776 156.517C8.4962 156.862 7.99503 157.035 7.40424 157.035ZM6.28904 155.322C6.52801 155.774 6.89974 155.999 7.40424 155.999C7.90873 155.999 8.27715 155.774 8.50948 155.322C8.74845 154.871 8.86793 154.297 8.86793 153.6C8.86793 153.148 8.82147 152.753 8.72853 152.415C8.64224 152.069 8.48624 151.784 8.26055 151.558C8.03486 151.326 7.74942 151.21 7.40424 151.21C7.05906 151.21 6.7703 151.326 6.53797 151.558C6.31227 151.784 6.15296 152.069 6.06003 152.415C5.97373 152.753 5.93059 153.148 5.93059 153.6C5.93059 154.297 6.05007 154.871 6.28904 155.322ZM15.6506 156.915H14.3363L12.8726 154.924L12.1955 155.621V156.915H11.15V150.274H12.1955V154.426L14.3163 152.106H15.6108L13.6193 154.287L15.6506 156.915ZM3.57192 187.035C2.51646 187.035 1.69666 186.693 1.11251 186.009L1.77963 185.203C2.23102 185.734 2.82513 185.999 3.56196 185.999C3.97352 185.999 4.3021 185.89 4.54771 185.671C4.79996 185.445 4.92608 185.163 4.92608 184.824C4.92608 184.472 4.80328 184.19 4.55767 183.978C4.3187 183.759 3.99675 183.649 3.59183 183.649C3.02759 183.649 2.54301 183.839 2.13809 184.217L1.31165 183.978V180.274H5.66291V181.299H2.47663V183.211C2.88156 182.833 3.38273 182.644 3.98016 182.644C4.57095 182.644 5.07212 182.836 5.48368 183.221C5.90188 183.606 6.11098 184.127 6.11098 184.784C6.11098 185.462 5.87533 186.006 5.40402 186.417C4.93272 186.829 4.32202 187.035 3.57192 187.035ZM11.693 186.915H10.3787L8.915 184.924L8.23791 185.621V186.915H7.19242V180.274H8.23791V184.426L10.3588 182.106H11.6532L9.66178 184.287L11.693 186.915ZM3.6217 216.035C3.17031 216.035 2.76871 215.935 2.41689 215.736C2.07171 215.537 1.79623 215.271 1.59045 214.939C1.38467 214.608 1.22867 214.242 1.12247 213.844C1.01626 213.446 0.963151 213.031 0.963151 212.6C0.963151 212.168 1.01294 211.753 1.11251 211.355C1.21872 210.957 1.37471 210.592 1.58049 210.26C1.79291 209.928 2.07171 209.666 2.41689 209.473C2.76871 209.274 3.17031 209.174 3.6217 209.174C4.21249 209.174 4.71366 209.347 5.12523 209.692C5.53679 210.037 5.82886 210.462 6.00145 210.967C6.18068 211.464 6.27029 212.009 6.27029 212.6C6.27029 213.184 6.18068 213.728 6.00145 214.233C5.82886 214.737 5.53679 215.165 5.12523 215.517C4.71366 215.862 4.21249 216.035 3.6217 216.035ZM2.5065 214.322C2.74547 214.774 3.11721 214.999 3.6217 214.999C4.1262 214.999 4.49461 214.774 4.72694 214.322C4.96591 213.871 5.0854 213.297 5.0854 212.6C5.0854 212.148 5.03893 211.753 4.946 211.415C4.8597 211.069 4.70371 210.784 4.47801 210.558C4.25232 210.326 3.96688 210.21 3.6217 210.21C3.27652 210.21 2.98776 210.326 2.75543 210.558C2.52974 210.784 2.37042 211.069 2.27749 211.415C2.1912 211.753 2.14805 212.148 2.14805 212.6C2.14805 213.297 2.26753 213.871 2.5065 214.322ZM11.8681 215.915H10.5537L9.09002 213.924L8.41294 214.621V215.915H7.36744V209.274H8.41294V213.426L10.5338 211.106H11.8282L9.83681 213.287L11.8681 215.915Z" fill="#809FB8"/>
<path d="M30.1755 237.202C29.4454 237.202 28.8546 236.966 28.4032 236.495L28.9508 235.609C29.2761 235.981 29.6545 236.166 30.0859 236.166C30.4377 236.166 30.7199 236.057 30.9323 235.838C31.1447 235.612 31.2509 235.32 31.2509 234.962V230.441H32.4159V234.972C32.4159 235.702 32.2101 236.256 31.7986 236.634C31.387 237.013 30.846 237.202 30.1755 237.202ZM37.7969 237.083H36.7514V236.555C36.3797 236.986 35.8586 237.202 35.1882 237.202C34.7567 237.202 34.3717 237.059 34.0331 236.774C33.6946 236.488 33.5253 236.1 33.5253 235.609C33.5253 235.091 33.6913 234.699 34.0232 234.434C34.3551 234.168 34.7434 234.036 35.1882 234.036C35.8719 234.036 36.393 234.241 36.7514 234.653V233.936C36.7514 233.664 36.6452 233.448 36.4328 233.289C36.227 233.123 35.9582 233.04 35.6263 233.04C35.082 233.04 34.6073 233.246 34.2024 233.657L33.7643 232.93C34.302 232.413 34.9758 232.154 35.7856 232.154C36.3764 232.154 36.8576 232.293 37.2294 232.572C37.6077 232.844 37.7969 233.282 37.7969 233.886V237.083ZM35.6064 236.485C36.1175 236.485 36.4992 236.319 36.7514 235.987V235.25C36.4992 234.919 36.1175 234.753 35.6064 234.753C35.3077 234.753 35.0587 234.832 34.8596 234.992C34.6671 235.151 34.5708 235.36 34.5708 235.619C34.5708 235.878 34.6671 236.087 34.8596 236.246C35.0587 236.405 35.3077 236.485 35.6064 236.485ZM43.4537 237.083H42.4082V234.075C42.4082 233.717 42.3219 233.461 42.1493 233.309C41.9833 233.156 41.7444 233.08 41.4324 233.08C41.1868 233.08 40.9544 233.143 40.7354 233.269C40.5163 233.388 40.3371 233.538 40.1977 233.717V237.083H39.1522V232.273H40.1977V232.92C40.3769 232.708 40.6159 232.529 40.9146 232.383C41.22 232.23 41.5485 232.154 41.9004 232.154C42.4115 232.154 42.7965 232.287 43.0554 232.552C43.3209 232.818 43.4537 233.199 43.4537 233.697V237.083ZM81.9452 237.083H80.7802V230.441H85.3306V231.467H81.9452V233.179H85.2609V234.205H81.9452V237.083ZM88.5914 237.202C87.8545 237.202 87.2505 236.97 86.7792 236.505C86.3079 236.04 86.0722 235.43 86.0722 234.673C86.0722 233.969 86.3012 233.375 86.7593 232.891C87.2239 232.399 87.8081 232.154 88.5117 232.154C89.222 232.154 89.7929 232.399 90.2243 232.891C90.6558 233.375 90.8715 233.999 90.8715 234.763V235.021H87.1675C87.2073 235.4 87.3633 235.715 87.6355 235.967C87.9076 236.22 88.2595 236.346 88.6909 236.346C89.2485 236.346 89.7066 236.166 90.065 235.808L90.543 236.495C90.0385 236.966 89.3879 237.202 88.5914 237.202ZM89.8659 234.275C89.846 233.943 89.7198 233.651 89.4875 233.398C89.2618 233.14 88.9332 233.01 88.5018 233.01C88.0902 233.01 87.7682 233.14 87.5359 233.398C87.3036 233.651 87.1775 233.943 87.1575 234.275H89.8659ZM92.949 235.639C93.0685 235.825 93.2444 235.977 93.4767 236.097C93.7091 236.216 93.948 236.276 94.1936 236.276C94.6052 236.276 94.9338 236.127 95.1794 235.828C95.425 235.529 95.5478 235.144 95.5478 234.673C95.5478 234.202 95.425 233.82 95.1794 233.528C94.9338 233.229 94.6052 233.08 94.1936 233.08C93.948 233.08 93.7091 233.143 93.4767 233.269C93.2444 233.388 93.0685 233.541 92.949 233.727V235.639ZM92.949 237.083H91.9035V230.441H92.949V232.94C93.3407 232.416 93.8551 232.154 94.4924 232.154C95.123 232.154 95.6374 232.383 96.0357 232.841C96.434 233.299 96.6331 233.91 96.6331 234.673C96.6331 235.456 96.434 236.074 96.0357 236.525C95.6374 236.976 95.123 237.202 94.4924 237.202C93.8617 237.202 93.3473 236.943 92.949 236.425V237.083ZM140.558 237.083H139.393V231.955L137.362 237.083H136.864L134.823 231.955V237.083H133.658V230.441H135.301L137.113 235.001L138.915 230.441H140.558V237.083ZM145.935 237.083H144.889V236.555C144.517 236.986 143.996 237.202 143.326 237.202C142.894 237.202 142.509 237.059 142.171 236.774C141.832 236.488 141.663 236.1 141.663 235.609C141.663 235.091 141.829 234.699 142.161 234.434C142.493 234.168 142.881 234.036 143.326 234.036C144.01 234.036 144.531 234.241 144.889 234.653V233.936C144.889 233.664 144.783 233.448 144.571 233.289C144.365 233.123 144.096 233.04 143.764 233.04C143.22 233.04 142.745 233.246 142.34 233.657L141.902 232.93C142.44 232.413 143.114 232.154 143.923 232.154C144.514 232.154 144.995 232.293 145.367 232.572C145.746 232.844 145.935 233.282 145.935 233.886V237.083ZM143.744 236.485C144.255 236.485 144.637 236.319 144.889 235.987V235.25C144.637 234.919 144.255 234.753 143.744 234.753C143.445 234.753 143.196 234.832 142.997 234.992C142.805 235.151 142.709 235.36 142.709 235.619C142.709 235.878 142.805 236.087 142.997 236.246C143.196 236.405 143.445 236.485 143.744 236.485ZM148.335 237.083H147.29V232.273H148.335V232.97C148.528 232.731 148.76 232.535 149.032 232.383C149.311 232.23 149.6 232.154 149.899 232.154V233.189C149.812 233.169 149.706 233.159 149.58 233.159C149.354 233.159 149.115 233.226 148.863 233.359C148.618 233.485 148.442 233.634 148.335 233.807V237.083ZM192.695 237.083H191.371L190.883 235.798H187.836L187.348 237.083H186.024L188.632 230.441H190.086L192.695 237.083ZM190.554 234.772L189.359 231.606L188.164 234.772H190.554ZM195.969 237.202C195.352 237.202 194.838 236.94 194.426 236.415V238.915H193.381V232.273H194.426V232.93C194.818 232.413 195.332 232.154 195.969 232.154C196.6 232.154 197.111 232.379 197.503 232.831C197.901 233.282 198.1 233.896 198.1 234.673C198.1 235.45 197.901 236.067 197.503 236.525C197.111 236.976 196.6 237.202 195.969 237.202ZM195.661 236.276C196.072 236.276 196.401 236.127 196.646 235.828C196.899 235.529 197.025 235.144 197.025 234.673C197.025 234.202 196.899 233.82 196.646 233.528C196.401 233.229 196.072 233.08 195.661 233.08C195.422 233.08 195.186 233.143 194.954 233.269C194.721 233.388 194.545 233.538 194.426 233.717V235.619C194.545 235.805 194.721 235.961 194.954 236.087C195.186 236.213 195.422 236.276 195.661 236.276ZM200.192 237.083H199.147V232.273H200.192V232.97C200.385 232.731 200.617 232.535 200.889 232.383C201.168 232.23 201.457 232.154 201.755 232.154V233.189C201.669 233.169 201.563 233.159 201.437 233.159C201.211 233.159 200.972 233.226 200.72 233.359C200.474 233.485 200.298 233.634 200.192 233.807V237.083ZM242.901 237.083H241.736V231.955L239.704 237.083H239.207L237.165 231.955V237.083H236V230.441H237.643L239.456 235.001L241.258 230.441H242.901V237.083ZM248.277 237.083H247.232V236.555C246.86 236.986 246.339 237.202 245.668 237.202C245.237 237.202 244.852 237.059 244.513 236.774C244.175 236.488 244.006 236.1 244.006 235.609C244.006 235.091 244.171 234.699 244.503 234.434C244.835 234.168 245.224 234.036 245.668 234.036C246.352 234.036 246.873 234.241 247.232 234.653V233.936C247.232 233.664 247.125 233.448 246.913 233.289C246.707 233.123 246.438 233.04 246.106 233.04C245.562 233.04 245.088 233.246 244.683 233.657L244.244 232.93C244.782 232.413 245.456 232.154 246.266 232.154C246.857 232.154 247.338 232.293 247.71 232.572C248.088 232.844 248.277 233.282 248.277 233.886V237.083ZM246.087 236.485C246.598 236.485 246.979 236.319 247.232 235.987V235.25C246.979 234.919 246.598 234.753 246.087 234.753C245.788 234.753 245.539 234.832 245.34 234.992C245.147 235.151 245.051 235.36 245.051 235.619C245.051 235.878 245.147 236.087 245.34 236.246C245.539 236.405 245.788 236.485 246.087 236.485ZM249.433 238.964L249.583 238.028C249.702 238.082 249.835 238.108 249.981 238.108C250.326 238.108 250.558 237.969 250.678 237.69L250.917 237.142L248.935 232.273H250.061L251.465 235.878L252.868 232.273H253.984L251.664 237.949C251.504 238.34 251.289 238.616 251.016 238.775C250.751 238.941 250.419 239.027 250.021 239.034C249.788 239.034 249.593 239.011 249.433 238.964ZM289.187 237.202C288.457 237.202 287.866 236.966 287.415 236.495L287.962 235.609C288.287 235.981 288.666 236.166 289.097 236.166C289.449 236.166 289.731 236.057 289.944 235.838C290.156 235.612 290.262 235.32 290.262 234.962V230.441H291.427V234.972C291.427 235.702 291.222 236.256 290.81 236.634C290.398 237.013 289.857 237.202 289.187 237.202ZM297.107 237.083H296.062V236.445C295.61 236.95 295.046 237.202 294.369 237.202C293.858 237.202 293.469 237.073 293.204 236.814C292.945 236.548 292.816 236.17 292.816 235.679V232.273H293.861V235.29C293.861 235.649 293.944 235.904 294.11 236.057C294.276 236.203 294.518 236.276 294.837 236.276C295.082 236.276 295.315 236.216 295.534 236.097C295.753 235.971 295.929 235.821 296.062 235.649V232.273H297.107V237.083ZM302.767 237.083H301.721V234.075C301.721 233.717 301.635 233.461 301.462 233.309C301.296 233.156 301.057 233.08 300.745 233.08C300.5 233.08 300.267 233.143 300.048 233.269C299.829 233.388 299.65 233.538 299.511 233.717V237.083H298.465V232.273H299.511V232.92C299.69 232.708 299.929 232.529 300.227 232.383C300.533 232.23 300.861 232.154 301.213 232.154C301.724 232.154 302.109 232.287 302.368 232.552C302.634 232.818 302.767 233.199 302.767 233.697V237.083ZM341.238 237.202C340.508 237.202 339.917 236.966 339.466 236.495L340.013 235.609C340.339 235.981 340.717 236.166 341.149 236.166C341.5 236.166 341.782 236.057 341.995 235.838C342.207 235.612 342.314 235.32 342.314 234.962V230.441H343.479V234.972C343.479 235.702 343.273 236.256 342.861 236.634C342.45 237.013 341.909 237.202 341.238 237.202ZM349.158 237.083H348.113V236.445C347.661 236.95 347.097 237.202 346.42 237.202C345.909 237.202 345.521 237.073 345.255 236.814C344.996 236.548 344.867 236.17 344.867 235.679V232.273H345.912V235.29C345.912 235.649 345.995 235.904 346.161 236.057C346.327 236.203 346.569 236.276 346.888 236.276C347.134 236.276 347.366 236.216 347.585 236.097C347.804 235.971 347.98 235.821 348.113 235.649V232.273H349.158V237.083ZM351.562 237.083H350.516V230.441H351.562V237.083ZM392.304 237.083H390.98L390.492 235.798H387.445L386.957 237.083H385.633L388.242 230.441H389.695L392.304 237.083ZM390.163 234.772L388.968 231.606L387.774 234.772H390.163ZM397.155 237.083H396.109V236.445C395.658 236.95 395.094 237.202 394.416 237.202C393.905 237.202 393.517 237.073 393.251 236.814C392.993 236.548 392.863 236.17 392.863 235.679V232.273H393.909V235.29C393.909 235.649 393.992 235.904 394.158 236.057C394.324 236.203 394.566 236.276 394.884 236.276C395.13 236.276 395.362 236.216 395.581 236.097C395.8 235.971 395.976 235.821 396.109 235.649V232.273H397.155V237.083ZM400.474 239.034C399.658 239.034 398.984 238.795 398.453 238.317L398.941 237.56C399.306 237.972 399.817 238.178 400.474 238.178C400.872 238.178 401.208 238.072 401.48 237.859C401.759 237.647 401.898 237.305 401.898 236.834V236.286C401.493 236.824 400.979 237.092 400.355 237.092C399.724 237.092 399.21 236.873 398.811 236.435C398.42 235.997 398.224 235.393 398.224 234.623C398.224 233.853 398.42 233.249 398.811 232.811C399.203 232.373 399.717 232.154 400.355 232.154C400.992 232.154 401.506 232.416 401.898 232.94V232.273H402.944V236.834C402.944 237.245 402.871 237.6 402.725 237.899C402.585 238.204 402.389 238.433 402.137 238.586C401.891 238.745 401.633 238.858 401.36 238.925C401.088 238.998 400.793 239.034 400.474 239.034ZM400.663 236.157C400.902 236.157 401.135 236.097 401.36 235.977C401.593 235.851 401.772 235.698 401.898 235.519V233.717C401.772 233.538 401.593 233.388 401.36 233.269C401.135 233.143 400.902 233.08 400.663 233.08C400.245 233.08 399.913 233.222 399.668 233.508C399.422 233.787 399.299 234.158 399.299 234.623C399.299 235.088 399.422 235.46 399.668 235.738C399.913 236.017 400.245 236.157 400.663 236.157ZM439.98 237.202C438.858 237.202 437.956 236.85 437.272 236.147L437.929 235.24C438.493 235.858 439.194 236.166 440.03 236.166C440.475 236.166 440.807 236.077 441.026 235.898C441.245 235.718 441.354 235.503 441.354 235.25C441.354 235.038 441.258 234.862 441.066 234.723C440.88 234.577 440.641 234.47 440.349 234.404C440.063 234.338 439.755 234.255 439.423 234.155C439.091 234.056 438.779 233.946 438.487 233.827C438.201 233.707 437.962 233.515 437.77 233.249C437.584 232.984 437.491 232.662 437.491 232.283C437.491 231.719 437.713 231.254 438.158 230.889C438.603 230.517 439.187 230.332 439.911 230.332C440.926 230.332 441.753 230.644 442.39 231.268L441.733 232.134C441.222 231.623 440.578 231.367 439.801 231.367C439.462 231.367 439.19 231.443 438.985 231.596C438.785 231.749 438.686 231.948 438.686 232.194C438.686 232.36 438.756 232.502 438.895 232.622C439.041 232.735 439.227 232.828 439.453 232.901C439.678 232.967 439.927 233.033 440.199 233.1C440.478 233.159 440.754 233.239 441.026 233.339C441.305 233.438 441.557 233.558 441.782 233.697C442.008 233.83 442.191 234.022 442.33 234.275C442.476 234.52 442.549 234.809 442.549 235.141C442.549 235.732 442.33 236.223 441.892 236.615C441.461 237.006 440.823 237.202 439.98 237.202ZM445.813 237.202C445.076 237.202 444.472 236.97 444 236.505C443.529 236.04 443.293 235.43 443.293 234.673C443.293 233.969 443.522 233.375 443.98 232.891C444.445 232.399 445.029 232.154 445.733 232.154C446.443 232.154 447.014 232.399 447.446 232.891C447.877 233.375 448.093 233.999 448.093 234.763V235.021H444.389C444.429 235.4 444.585 235.715 444.857 235.967C445.129 236.22 445.481 236.346 445.912 236.346C446.47 236.346 446.928 236.166 447.286 235.808L447.764 236.495C447.26 236.966 446.609 237.202 445.813 237.202ZM447.087 234.275C447.067 233.943 446.941 233.651 446.709 233.398C446.483 233.14 446.154 233.01 445.723 233.01C445.311 233.01 444.989 233.14 444.757 233.398C444.525 233.651 444.399 233.943 444.379 234.275H447.087ZM451.714 237.202C451.096 237.202 450.582 236.94 450.17 236.415V238.915H449.125V232.273H450.17V232.93C450.562 232.413 451.076 232.154 451.714 232.154C452.344 232.154 452.855 232.379 453.247 232.831C453.645 233.282 453.844 233.896 453.844 234.673C453.844 235.45 453.645 236.067 453.247 236.525C452.855 236.976 452.344 237.202 451.714 237.202ZM451.405 236.276C451.816 236.276 452.145 236.127 452.391 235.828C452.643 235.529 452.769 235.144 452.769 234.673C452.769 234.202 452.643 233.82 452.391 233.528C452.145 233.229 451.816 233.08 451.405 233.08C451.166 233.08 450.93 233.143 450.698 233.269C450.466 233.388 450.29 233.538 450.17 233.717V235.619C450.29 235.805 450.466 235.961 450.698 236.087C450.93 236.213 451.166 236.276 451.405 236.276ZM493.839 236.236C493.202 236.88 492.388 237.202 491.399 237.202C490.41 237.202 489.597 236.88 488.96 236.236C488.323 235.586 488.004 234.763 488.004 233.767C488.004 232.771 488.323 231.951 488.96 231.307C489.597 230.657 490.41 230.332 491.399 230.332C492.388 230.332 493.202 230.657 493.839 231.307C494.476 231.951 494.795 232.771 494.795 233.767C494.795 234.763 494.476 235.586 493.839 236.236ZM491.399 236.166C492.056 236.166 492.588 235.941 492.992 235.489C493.397 235.031 493.6 234.457 493.6 233.767C493.6 233.07 493.397 232.496 492.992 232.044C492.588 231.593 492.056 231.367 491.399 231.367C490.735 231.367 490.201 231.593 489.796 232.044C489.398 232.496 489.199 233.07 489.199 233.767C489.199 234.464 489.398 235.038 489.796 235.489C490.201 235.941 490.735 236.166 491.399 236.166ZM498.067 237.202C497.344 237.202 496.749 236.963 496.285 236.485C495.82 236.007 495.588 235.403 495.588 234.673C495.588 233.943 495.82 233.342 496.285 232.871C496.749 232.393 497.344 232.154 498.067 232.154C498.87 232.154 499.484 232.439 499.909 233.01L499.222 233.637C498.957 233.266 498.588 233.08 498.117 233.08C497.685 233.08 497.334 233.229 497.061 233.528C496.796 233.82 496.663 234.202 496.663 234.673C496.663 235.144 496.796 235.529 497.061 235.828C497.334 236.127 497.685 236.276 498.117 236.276C498.582 236.276 498.95 236.083 499.222 235.698L499.909 236.346C499.478 236.917 498.864 237.202 498.067 237.202ZM502.289 237.202C501.466 237.202 501.055 236.787 501.055 235.957V233.179H500.258V232.273H501.055V230.959H502.1V232.273H503.076V233.179H502.1V235.698C502.1 235.871 502.14 236.01 502.22 236.117C502.299 236.223 502.412 236.276 502.558 236.276C502.757 236.276 502.91 236.216 503.016 236.097L503.265 236.893C503.033 237.099 502.708 237.202 502.289 237.202ZM543.172 237.083H542.047L538.582 232.333V237.083H537.417V230.441H538.612L542.007 235.041V230.441H543.172V237.083ZM548.526 236.475C548.075 236.96 547.478 237.202 546.734 237.202C545.991 237.202 545.393 236.96 544.942 236.475C544.491 235.984 544.265 235.383 544.265 234.673C544.265 233.956 544.491 233.359 544.942 232.881C545.393 232.396 545.991 232.154 546.734 232.154C547.478 232.154 548.075 232.396 548.526 232.881C548.978 233.359 549.204 233.956 549.204 234.673C549.204 235.383 548.978 235.984 548.526 236.475ZM546.734 236.276C547.166 236.276 547.504 236.123 547.75 235.818C547.995 235.506 548.118 235.124 548.118 234.673C548.118 234.228 547.995 233.853 547.75 233.548C547.504 233.236 547.166 233.08 546.734 233.08C546.309 233.08 545.971 233.236 545.719 233.548C545.473 233.853 545.35 234.228 545.35 234.673C545.35 235.124 545.473 235.506 545.719 235.818C545.971 236.123 546.309 236.276 546.734 236.276ZM552.661 237.083H551.536L549.574 232.273H550.699L552.103 235.878L553.507 232.273H554.622L552.661 237.083ZM588.593 237.083H586.114V230.441H588.583C589.619 230.441 590.455 230.75 591.092 231.367C591.736 231.984 592.058 232.781 592.058 233.757C592.058 234.739 591.739 235.539 591.102 236.157C590.465 236.774 589.628 237.083 588.593 237.083ZM588.583 236.057C589.28 236.057 589.834 235.838 590.246 235.4C590.657 234.962 590.863 234.414 590.863 233.757C590.863 233.093 590.661 232.545 590.256 232.114C589.857 231.682 589.303 231.467 588.593 231.467H587.279V236.057H588.583ZM595.383 237.202C594.646 237.202 594.042 236.97 593.571 236.505C593.1 236.04 592.864 235.43 592.864 234.673C592.864 233.969 593.093 233.375 593.551 232.891C594.016 232.399 594.6 232.154 595.304 232.154C596.014 232.154 596.585 232.399 597.016 232.891C597.448 233.375 597.663 233.999 597.663 234.763V235.021H593.959C593.999 235.4 594.155 235.715 594.427 235.967C594.7 236.22 595.051 236.346 595.483 236.346C596.04 236.346 596.498 236.166 596.857 235.808L597.335 236.495C596.83 236.966 596.18 237.202 595.383 237.202ZM596.658 234.275C596.638 233.943 596.512 233.651 596.279 233.398C596.054 233.14 595.725 233.01 595.294 233.01C594.882 233.01 594.56 233.14 594.328 233.398C594.095 233.651 593.969 233.943 593.949 234.275H596.658ZM600.886 237.202C600.162 237.202 599.568 236.963 599.104 236.485C598.639 236.007 598.407 235.403 598.407 234.673C598.407 233.943 598.639 233.342 599.104 232.871C599.568 232.393 600.162 232.154 600.886 232.154C601.689 232.154 602.303 232.439 602.728 233.01L602.041 233.637C601.775 233.266 601.407 233.08 600.936 233.08C600.504 233.08 600.152 233.229 599.88 233.528C599.615 233.82 599.482 234.202 599.482 234.673C599.482 235.144 599.615 235.529 599.88 235.828C600.152 236.127 600.504 236.276 600.936 236.276C601.4 236.276 601.769 236.083 602.041 235.698L602.728 236.346C602.297 236.917 601.683 237.202 600.886 237.202Z" fill="#809FB8"/>
<path fill-rule="evenodd" clip-rule="evenodd" d="M650.496 214.868V0.891878H652.985V214.868H650.496ZM636.805 214.868V0.891878H639.294V214.868H636.805ZM623.114 214.868V0.891878H625.603V214.868H623.114ZM609.422 214.868V0.891878H611.912V214.868H609.422ZM595.731 214.868V0.891878H598.221V214.868H595.731ZM582.04 214.868V0.891878H584.53V214.868H582.04ZM568.349 214.868V0.891878H570.838V214.868H568.349ZM554.658 214.868V0.891878H557.147V214.868H554.658ZM540.967 214.868V0.891878H543.457V214.868H540.967ZM527.276 214.868V0.891878H529.765V214.868H527.276ZM513.585 214.868V0.891878H516.074V214.868H513.585ZM499.894 214.868V0.891878H502.383V214.868H499.894ZM486.203 214.868V0.891878H488.693V214.868H486.203ZM472.512 214.868V0.891878H475.002V214.868H472.512ZM458.821 214.868V0.891878H461.31V214.868H458.821ZM445.13 214.868V0.891878H447.619V214.868H445.13ZM431.439 214.868V0.891878H433.928V214.868H431.439ZM417.748 214.868V0.891878H420.237V214.868H417.748ZM404.057 214.868V0.891878H406.546V214.868H404.057ZM390.366 214.868V0.891878H392.855V214.868H390.366ZM376.675 214.868V0.891878H379.164V214.868H376.675ZM362.984 214.868V0.891878H365.473V214.868H362.984ZM349.293 214.868V0.891878H351.782V214.868H349.293ZM335.602 214.868V0.891878H338.091V214.868H335.602ZM321.911 214.868V0.891878H324.4V214.868H321.911ZM308.22 214.868V0.891878H310.709V214.868H308.22ZM294.529 214.868V0.891878H297.018V214.868H294.529ZM280.838 214.868V0.891878H283.327V214.868H280.838ZM267.147 214.868V0.891878H269.636V214.868H267.147ZM253.456 214.868V0.891878H255.945V214.868H253.456ZM239.765 214.868V0.891878H242.254V214.868H239.765ZM226.073 214.868V0.891878H228.563V214.868H226.073ZM212.383 214.868V0.891878H214.872V214.868H212.383ZM198.691 214.868V0.891878H201.181V214.868H198.691ZM185 214.868V0.891878H187.49V214.868H185ZM171.309 214.868V0.891878H173.799V214.868H171.309ZM157.618 214.868V0.891878H160.108V214.868H157.618ZM143.927 214.868V0.891878H146.417V214.868H143.927ZM130.236 214.868V0.891878H132.726V214.868H130.236ZM116.545 214.868V0.891878H119.035V214.868H116.545ZM102.854 214.868V0.891878H105.344V214.868H102.854ZM89.1631 214.868V0.891878H91.6523V214.868H89.1631ZM75.4721 214.868V0.891878H77.9614V214.868H75.4721ZM61.781 214.868V0.891878H64.2702V214.868H61.781ZM48.09 214.868V0.891878H50.5793V214.868H48.09ZM34.3991 214.868V0.891846H36.8884V214.868H34.3991Z" fill="#D9E1E7" fill-opacity="0.2"/>
<path fill-rule="evenodd" clip-rule="evenodd" d="M35.0215 215.336C41.8464 205.85 52.4389 194.234 66.644 190.763C84.5668 186.383 89.3917 199.571 105.514 195.488C127.402 189.947 129.369 162.891 152.29 155.794C168.478 150.781 172.017 162.879 186.548 161.465C227.981 157.43 232.413 61.0435 257.99 61.0435C275.166 61.0435 283.95 109.504 309.085 120.824C327.934 129.314 335.058 105.732 360.472 108.538C390.565 111.861 392.397 146.23 425.691 153.904C452.675 160.124 458.587 139.189 481.032 151.068C501.977 162.153 504.938 184.677 522.537 184.148C534.835 183.777 539.325 172.601 554.818 174.696C566.166 176.231 566.847 182.643 575.242 182.257C591.805 181.494 596.712 155.737 609.5 152.958C620.37 150.596 631.423 168.141 652.981 215.336H35.0215Z" fill="#8EDE96" fill-opacity="0.8"/>
<path fill-rule="evenodd" clip-rule="evenodd" d="M35.0215 215.427C39.7698 204.291 48.7666 184.82 60.343 179.433C65.8947 176.85 70.6256 178.771 75.1082 178.054C96.8489 174.587 99.9661 127.791 113.256 127.35C122.863 127.031 126.628 151.306 141.058 152.099C149.398 152.557 151.742 144.649 161.749 144.252C175.585 143.7 180.447 158.449 189.551 158.739C211.626 159.442 224.614 74.0641 241.922 74.2312C260.605 74.411 270.106 174.124 301.407 176.244C313.423 177.058 327.215 163.394 342.787 170.208C349.313 173.065 350.149 176.892 354.424 176.848C368.687 176.7 373.131 133.954 384.812 133.386C398.652 132.714 405.124 192.097 425.546 193.749C442.478 195.118 454.362 155.616 470.805 158.135C484.487 160.23 485.861 189.05 497.961 189.524C510.123 190 515.193 161.136 534.815 159.343C541.217 158.757 541.686 161.737 550.979 162.964C572.293 165.779 583.388 151.901 596.239 152.1C607.533 152.274 634.564 171.145 651.74 215.426L35.0215 215.427Z" fill="#96C9F9" fill-opacity="0.8"/>
</svg>
