<svg width="655" height="226" viewBox="0 0 655 226" fill="none" xmlns="http://www.w3.org/2000/svg">
<path d="M3.05318 14.3842H4.20299V5.34814H1.85337V6.38547H3.05318V14.3842ZM6.15657 9.77241C6.15657 12.397 6.80647 14.3842 9.30606 14.3842C11.7931 14.3842 12.443 12.397 12.443 9.77241C12.443 7.18534 11.7931 5.21066 9.30606 5.21066C6.80647 5.21066 6.15657 7.18534 6.15657 9.77241ZM11.3182 9.77241C11.3182 11.7221 11.0808 13.3468 9.30606 13.3468C7.51885 13.3468 7.28139 11.7221 7.28139 9.77241C7.28139 7.89772 7.51885 6.24799 9.30606 6.24799C11.0808 6.24799 11.3182 7.89772 11.3182 9.77241ZM14.0044 9.77241C14.0044 12.397 14.6543 14.3842 17.1539 14.3842C19.641 14.3842 20.2909 12.397 20.2909 9.77241C20.2909 7.18534 19.641 5.21066 17.1539 5.21066C14.6543 5.21066 14.0044 7.18534 14.0044 9.77241ZM19.1661 9.77241C19.1661 11.7221 18.9286 13.3468 17.1539 13.3468C15.3667 13.3468 15.1292 11.7221 15.1292 9.77241C15.1292 7.89772 15.3667 6.24799 17.1539 6.24799C18.9286 6.24799 19.1661 7.89772 19.1661 9.77241Z" fill="#7C8DB5"/>
<line x1="34.4681" y1="9.4378" x2="654.009" y2="9.43785" stroke="#E6EDFF" stroke-width="0.892711"/>
<path d="M6.87698 45.6465C5.86465 45.9464 5.20226 46.7713 5.20226 47.9086C5.20226 49.5458 6.48954 50.5957 8.38923 50.5957C10.3014 50.5957 11.6012 49.5458 11.6012 47.9086C11.6012 46.7838 10.9388 45.9589 9.91398 45.6465C10.8013 45.2965 11.3637 44.5467 11.3637 43.5718C11.3637 42.2595 10.3514 41.1722 8.38923 41.1722C6.42706 41.1722 5.42722 42.247 5.42722 43.5718C5.42722 44.5841 5.95213 45.284 6.87698 45.6465ZM8.38923 45.2715C7.28941 45.2715 6.52704 44.6591 6.52704 43.7218C6.52704 42.6595 7.27692 42.1221 8.38923 42.1221C9.52655 42.1221 10.2639 42.672 10.2639 43.7093C10.2639 44.6466 9.50155 45.2715 8.38923 45.2715ZM8.38923 46.1464C9.57654 46.1464 10.4764 46.7088 10.4764 47.8711C10.4764 48.9209 9.67652 49.6458 8.38923 49.6458C7.10194 49.6458 6.28958 48.9334 6.28958 47.8711C6.28958 46.6713 7.22692 46.1464 8.38923 46.1464ZM13.1117 45.734C13.1117 48.3585 13.7616 50.3457 16.2612 50.3457C18.7483 50.3457 19.3982 48.3585 19.3982 45.734C19.3982 43.1469 18.7483 41.1722 16.2612 41.1722C13.7616 41.1722 13.1117 43.1469 13.1117 45.734ZM18.2734 45.734C18.2734 47.6836 18.0359 49.3084 16.2612 49.3084C14.474 49.3084 14.2365 47.6836 14.2365 45.734C14.2365 43.8593 14.474 42.2095 16.2612 42.2095C18.0359 42.2095 18.2734 43.8593 18.2734 45.734Z" fill="#7C8DB5"/>
<line x1="34.4684" y1="45.1762" x2="654.01" y2="45.6226" stroke="#E6EDFF" stroke-width="0.892711"/>
<path d="M11.2649 79.4208C11.115 78.1585 10.2401 77.0836 8.5154 77.0836C6.22827 77.0836 5.31592 78.8334 5.31592 81.6704C5.31592 84.4074 5.95332 86.3321 8.62788 86.3321C10.6026 86.3321 11.5774 84.9823 11.5774 83.3326C11.5774 81.4329 10.4401 80.3206 8.75286 80.3206C7.67804 80.3206 6.6907 80.8205 6.30326 81.7079C6.29076 79.0208 7.06564 78.0335 8.5029 78.0335C9.52773 78.0335 10.0401 78.5459 10.2151 79.4208H11.2649ZM8.5154 81.283C9.81519 81.283 10.4776 82.0953 10.4776 83.3701C10.4776 84.5949 9.7402 85.3823 8.56539 85.3823C7.14062 85.3823 6.44074 84.4449 6.44074 83.2451C6.44074 81.8954 7.47807 81.283 8.5154 81.283ZM13.1117 81.6954C13.1117 84.32 13.7616 86.3071 16.2612 86.3071C18.7483 86.3071 19.3982 84.32 19.3982 81.6954C19.3982 79.1083 18.7483 77.1336 16.2612 77.1336C13.7616 77.1336 13.1117 79.1083 13.1117 81.6954ZM18.2734 81.6954C18.2734 83.6451 18.0359 85.2698 16.2612 85.2698C14.474 85.2698 14.2365 83.6451 14.2365 81.6954C14.2365 79.8207 14.474 78.171 16.2612 78.171C18.0359 78.171 18.2734 79.8207 18.2734 81.6954Z" fill="#7C8DB5"/>
<line x1="34.4681" y1="81.3608" x2="654.009" y2="81.3608" stroke="#E6EDFF" stroke-width="0.892711"/>
<path d="M9.60096 122.269H10.7258V120.256H11.9756V119.269H10.7258V113.32H9.3635L4.97672 119.394V120.256H9.60096V122.269ZM6.28901 119.269L9.65096 114.507V119.269H6.28901ZM13.1117 117.657C13.1117 120.281 13.7616 122.269 16.2612 122.269C18.7483 122.269 19.3982 120.281 19.3982 117.657C19.3982 115.07 18.7483 113.095 16.2612 113.095C13.7616 113.095 13.1117 115.07 13.1117 117.657ZM18.2734 117.657C18.2734 119.606 18.0359 121.231 16.2612 121.231C14.474 121.231 14.2365 119.606 14.2365 117.657C14.2365 115.782 14.474 114.132 16.2612 114.132C18.0359 114.132 18.2734 115.782 18.2734 117.657Z" fill="#7C8DB5"/>
<line x1="34.4681" y1="117.322" x2="654.009" y2="117.322" stroke="#E6EDFF" stroke-width="0.892711"/>
<path d="M5.78548 158.13H11.797V157.18H7.4977C9.10993 155.868 11.5345 153.956 11.5345 151.706C11.5345 150.032 10.4347 149.032 8.73499 149.032C7.11026 149.032 5.89796 150.032 5.82297 151.956H6.92279C6.97278 150.819 7.57268 150.007 8.74749 150.007C9.97229 150.007 10.4097 150.756 10.4097 151.756C10.4097 153.606 8.16009 155.406 5.78548 157.318V158.13ZM13.1117 153.618C13.1117 156.243 13.7616 158.23 16.2612 158.23C18.7483 158.23 19.3982 156.243 19.3982 153.618C19.3982 151.031 18.7483 149.057 16.2612 149.057C13.7616 149.057 13.1117 151.031 13.1117 153.618ZM18.2734 153.618C18.2734 155.568 18.0359 157.193 16.2612 157.193C14.474 157.193 14.2365 155.568 14.2365 153.618C14.2365 151.744 14.474 150.094 16.2612 150.094C18.0359 150.094 18.2734 151.744 18.2734 153.618Z" fill="#7C8DB5"/>
<line x1="34.4681" y1="153.284" x2="654.009" y2="153.284" stroke="#E6EDFF" stroke-width="0.892711"/>
<path d="M13.1117 189.58C13.1117 192.204 13.7616 194.192 16.2612 194.192C18.7483 194.192 19.3982 192.204 19.3982 189.58C19.3982 186.993 18.7483 185.018 16.2612 185.018C13.7616 185.018 13.1117 186.993 13.1117 189.58ZM18.2734 189.58C18.2734 191.53 18.0359 193.154 16.2612 193.154C14.474 193.154 14.2365 191.53 14.2365 189.58C14.2365 187.705 14.474 186.055 16.2612 186.055C18.0359 186.055 18.2734 187.705 18.2734 189.58Z" fill="#7C8DB5"/>
<line x1="34.4681" y1="189.245" x2="654.009" y2="189.245" stroke="#E6EDFF" stroke-width="0.892711"/>
<path d="M58.1509 218.059C58.1509 218.784 57.7885 219.408 56.8886 219.408C55.9888 219.408 55.6139 218.771 55.6014 217.971H54.464C54.464 219.496 55.4389 220.421 56.8886 220.421C58.3259 220.421 59.3008 219.508 59.3008 218.059V211.622H58.1509V218.059ZM61.1164 216.884C61.1164 219.008 62.5286 220.446 64.3533 220.446C65.6156 220.446 66.503 219.796 66.9154 219.058V220.333H68.0652V213.484H66.9154V214.734C66.5155 214.022 65.6406 213.372 64.3658 213.372C62.5286 213.372 61.1164 214.747 61.1164 216.884ZM66.9154 216.896C66.9154 218.509 65.8406 219.446 64.5908 219.446C63.341 219.446 62.2787 218.496 62.2787 216.884C62.2787 215.272 63.341 214.359 64.5908 214.359C65.8406 214.359 66.9154 215.309 66.9154 216.896ZM74.9989 220.333H76.1237V216.296C76.1237 214.334 74.9114 213.359 73.3241 213.359C72.3993 213.359 71.5744 213.747 71.1245 214.459V213.484H69.9872V220.333H71.1245V216.546C71.1245 215.072 71.9244 214.347 73.0867 214.347C74.2365 214.347 74.9989 215.059 74.9989 216.459V220.333Z" fill="#7C8DB5"/>
<path d="M143.189 220.333H144.326V216.409H147.401V215.484H144.326V212.547H148.113V211.622H143.189V220.333ZM152.399 214.334C153.574 214.334 154.574 215.072 154.561 216.409H150.237C150.362 215.072 151.287 214.334 152.399 214.334ZM155.598 218.221H154.374C154.124 218.958 153.474 219.483 152.449 219.483C151.287 219.483 150.312 218.721 150.224 217.334H155.698C155.723 217.096 155.736 216.896 155.736 216.646C155.736 214.772 154.436 213.372 152.449 213.372C150.449 213.372 149.062 214.734 149.062 216.896C149.062 219.071 150.499 220.446 152.449 220.446C154.149 220.446 155.248 219.471 155.598 218.221ZM158.374 214.759V211.085H157.237V220.333H158.374V219.071C158.799 219.821 159.687 220.446 160.937 220.446C162.774 220.446 164.186 219.008 164.186 216.884C164.186 214.747 162.786 213.372 160.937 213.372C159.724 213.372 158.812 213.997 158.374 214.759ZM163.024 216.884C163.024 218.496 161.961 219.446 160.699 219.446C159.462 219.446 158.374 218.509 158.374 216.896C158.374 215.309 159.462 214.359 160.699 214.359C161.961 214.359 163.024 215.272 163.024 216.884Z" fill="#7C8DB5"/>
<path d="M230.464 220.333H231.602V213.872L234.489 220.333H235.289L238.163 213.884V220.333H239.3V211.685H238.088L234.889 218.833L231.689 211.685H230.464V220.333ZM240.804 216.884C240.804 219.008 242.216 220.446 244.041 220.446C245.303 220.446 246.191 219.796 246.603 219.058V220.333H247.753V213.484H246.603V214.734C246.203 214.022 245.328 213.372 244.054 213.372C242.216 213.372 240.804 214.747 240.804 216.884ZM246.603 216.896C246.603 218.509 245.528 219.446 244.279 219.446C243.029 219.446 241.967 218.496 241.967 216.884C241.967 215.272 243.029 214.359 244.279 214.359C245.528 214.359 246.603 215.309 246.603 216.896ZM250.812 216.609C250.812 215.022 251.637 214.534 252.725 214.534H253.024V213.359C251.937 213.359 251.2 213.834 250.812 214.597V213.484H249.675V220.333H250.812V216.609Z" fill="#7C8DB5"/>
<path d="M324.589 220.333H325.788L322.651 211.672H321.339L318.19 220.333H319.389L320.089 218.396H323.889L324.589 220.333ZM323.564 217.471H320.414L321.989 213.072L323.564 217.471ZM328.298 214.747V213.484H327.161V223.583H328.298V219.071C328.723 219.771 329.611 220.446 330.86 220.446C332.698 220.446 334.11 219.008 334.11 216.884C334.11 214.747 332.698 213.372 330.86 213.372C329.611 213.372 328.711 214.022 328.298 214.747ZM332.947 216.884C332.947 218.496 331.885 219.446 330.623 219.446C329.386 219.446 328.298 218.509 328.298 216.896C328.298 215.309 329.386 214.359 330.623 214.359C331.885 214.359 332.947 215.272 332.947 216.884ZM336.744 216.609C336.744 215.022 337.569 214.534 338.656 214.534H338.956V213.359C337.869 213.359 337.132 213.834 336.744 214.597V213.484H335.607V220.333H336.744V216.609Z" fill="#7C8DB5"/>
<path d="M405.015 220.333H406.152V213.872L409.039 220.333H409.839L412.713 213.884V220.333H413.851V211.685H412.638L409.439 218.833L406.239 211.685H405.015V220.333ZM415.355 216.884C415.355 219.008 416.767 220.446 418.591 220.446C419.854 220.446 420.741 219.796 421.154 219.058V220.333H422.303V213.484H421.154V214.734C420.754 214.022 419.879 213.372 418.604 213.372C416.767 213.372 415.355 214.747 415.355 216.884ZM421.154 216.896C421.154 218.509 420.079 219.446 418.829 219.446C417.579 219.446 416.517 218.496 416.517 216.884C416.517 215.272 417.579 214.359 418.829 214.359C420.079 214.359 421.154 215.309 421.154 216.896ZM426.825 219.033L424.675 213.484H423.413L426.175 220.258L424.825 223.558H426L430.124 213.484H428.95L426.825 219.033Z" fill="#7C8DB5"/>
<path d="M499.527 218.059C499.527 218.784 499.164 219.408 498.264 219.408C497.365 219.408 496.99 218.771 496.977 217.971H495.84C495.84 219.496 496.815 220.421 498.264 220.421C499.702 220.421 500.677 219.508 500.677 218.059V211.622H499.527V218.059ZM508.991 213.484H507.854V217.246C507.854 218.721 507.066 219.446 505.892 219.446C504.742 219.446 503.979 218.734 503.979 217.346V213.484H502.855V217.496C502.855 219.458 504.092 220.433 505.667 220.433C506.579 220.433 507.416 220.033 507.854 219.321V220.333H508.991V213.484ZM515.923 220.333H517.048V216.296C517.048 214.334 515.836 213.359 514.248 213.359C513.323 213.359 512.499 213.747 512.049 214.459V213.484H510.911V220.333H512.049V216.546C512.049 215.072 512.849 214.347 514.011 214.347C515.161 214.347 515.923 215.059 515.923 216.459V220.333Z" fill="#7C8DB5"/>
<path d="M586.802 218.059C586.802 218.784 586.439 219.408 585.54 219.408C584.64 219.408 584.265 218.771 584.252 217.971H583.115C583.115 219.496 584.09 220.421 585.54 220.421C586.977 220.421 587.952 219.508 587.952 218.059V211.622H586.802V218.059ZM596.266 213.484H595.129V217.246C595.129 218.721 594.342 219.446 593.167 219.446C592.017 219.446 591.255 218.734 591.255 217.346V213.484H590.13V217.496C590.13 219.458 591.367 220.433 592.942 220.433C593.854 220.433 594.692 220.033 595.129 219.321V220.333H596.266V213.484ZM598.187 220.333H599.324V211.085H598.187V220.333Z" fill="#7C8DB5"/>
<path d="M255.86 26.2727H279.963V180.712C279.963 184.656 276.766 187.853 272.822 187.853H263.002C259.058 187.853 255.86 184.656 255.86 180.712V26.2727Z" fill="url(#paint0_linear_8_234)"/>
<path d="M36.2534 128.499C40.1757 128.809 49.4686 130.725 55.2616 135.919C62.5029 142.411 80.606 154.468 81.9637 145.193C83.0499 137.774 88.1489 139.32 90.5627 141.02C92.5238 142.566 96.8988 145.193 98.7091 143.339C100.972 141.02 104.593 122.935 110.929 122.007C117.265 121.08 113.644 128.499 117.717 129.427C121.791 130.354 123.601 124.79 127.221 124.79C130.842 124.79 135.82 134.992 142.156 134.064C148.493 133.137 153.471 134.064 157.997 131.746C162.522 129.427 160.712 124.79 163.428 122.007C166.143 119.225 170.669 117.37 171.121 113.66C171.574 109.951 173.384 100.212 177.91 99.7487C182.436 99.2849 181.983 102.531 190.13 102.067C198.276 101.604 199.181 100.676 201.897 103.922C204.612 107.168 205.97 113.66 210.496 113.66C215.021 113.66 212.306 117.37 216.379 119.225C220.452 121.08 221.81 120.152 226.336 116.906C230.862 113.66 239.008 90.4742 249.417 90.4742C259.827 90.4742 258.016 86.7644 267.52 88.6193C277.025 90.4742 277.025 89.083 279.287 84.9095C281.55 80.736 285.624 76.5625 291.054 76.5625C296.485 76.5625 304.179 79.3449 309.158 77.9537C314.136 76.5625 319.114 67.7518 324.545 68.2155C329.976 68.6792 327.713 70.9979 338.123 70.9979C348.532 70.9979 344.911 58.4773 356.678 57.5499C368.445 56.6225 378.402 76.0988 387.453 77.9537C396.505 79.8086 403.294 70.9979 410.987 70.9979C418.681 70.9979 425.923 81.6635 435.879 81.1997C445.836 80.736 444.026 74.2439 452.172 74.2439C460.318 74.2439 461.224 81.1997 469.823 81.1997C478.421 81.1997 479.327 74.2439 483.852 74.2439C488.378 74.2439 494.714 73.7802 497.882 70.9979C501.05 68.2155 505.576 62.1871 508.744 68.2155C511.912 74.2439 515.08 84.4458 520.511 81.1997C525.942 77.9537 530.92 79.8086 534.089 84.9095C537.257 90.0105 540.877 100.676 546.761 98.3575C552.644 96.0389 558.075 100.676 564.864 96.0389C571.652 91.4016 577.989 83.9821 583.872 90.0105C589.756 96.0389 592.018 98.3575 604.238 98.3575C616.458 98.3575 619.626 99.7487 626.867 96.0389C634.108 92.3291 643.612 90.0105 646.328 94.184C648.5 97.5228 651.759 99.5941 653.116 100.212" stroke="#8EDE96" stroke-width="1.78542" stroke-linecap="round" stroke-linejoin="round"/>
<path d="M36.2534 159.287C39.882 157.437 41.2427 148.652 46.2321 149.114C51.2214 149.577 53.9428 150.964 57.5714 147.727C61.2001 144.49 66.1894 136.168 71.1787 136.168C76.1681 136.168 85.6931 129.694 87.961 132.931C90.2289 136.168 101.115 141.254 107.011 140.329C112.908 139.404 107.918 136.168 121.979 137.555C136.04 138.942 124.247 140.329 139.669 140.329C155.09 140.329 160.08 151.889 167.337 147.727C174.594 143.566 166.883 125.995 179.13 123.683C191.376 121.372 189.108 124.608 201.809 128.77C214.509 132.931 228.569 107.5 236.734 108.887C244.898 110.274 246.259 117.673 252.155 108.887C258.052 100.102 258.052 83.4565 265.763 82.5318C273.473 81.607 288.895 82.5318 291.617 89.4674C294.338 96.4031 293.431 103.801 301.142 104.726C308.852 105.651 314.749 98.2526 326.088 99.6397C337.428 101.027 332.438 104.726 338.788 104.726C345.138 104.726 348.767 95.4783 352.396 96.4031C356.024 97.3279 359.653 101.027 361.467 104.726C363.281 108.425 363.735 113.973 367.364 113.973C370.992 113.973 370.539 124.608 374.167 122.759C377.796 120.909 378.249 123.221 379.61 119.06C380.971 114.898 382.785 106.575 385.507 106.113C388.228 105.651 387.321 105.188 390.95 106.113C394.578 107.038 396.846 106.575 397.3 103.801C397.753 101.027 397.3 99.6397 400.475 99.6397C403.65 99.6397 405.01 101.489 410 103.801C414.989 106.113 434.039 121.834 439.936 120.447C445.832 119.06 450.368 113.973 460.347 113.973C470.325 113.973 471.233 118.597 478.49 116.285C485.747 113.973 484.84 111.662 495.272 108.887C505.704 106.113 518.858 103.801 524.754 108.887C530.651 113.973 548.794 119.06 554.237 113.973C559.68 108.887 564.216 107.5 567.844 110.737C571.473 113.973 566.03 117.672 574.194 119.06C582.359 120.447 586.441 119.06 588.709 113.973C590.977 108.887 593.244 103.339 598.687 104.726C604.13 106.113 615.47 91.3169 620.005 90.3922C624.541 89.4674 636.788 83.9189 636.788 78.3704C636.788 73.9315 647.673 70.3558 653.116 69.1228" stroke="#96C9F9" stroke-width="1.78542" stroke-linecap="round" stroke-linejoin="round"/>
<g filter="url(#filter0_d_8_234)">
<circle cx="268.358" cy="81.6209" r="3.57084" fill="#347AE2"/>
<circle cx="268.358" cy="81.6209" r="3.12449" stroke="white" stroke-width="0.892711"/>
</g>
<g filter="url(#filter1_d_8_234)">
<rect x="220.152" y="11.0966" width="96.4251" height="58.4251" rx="7.14169" fill="white" shape-rendering="crispEdges"/>
<path d="M238.3 33.8092H239.286V26.064H237.272V26.9532H238.3V33.8092ZM241.239 26.0533V30.424H242.16C242.417 29.8134 242.985 29.4064 243.767 29.4064C244.892 29.4064 245.459 30.0491 245.459 31.1525C245.459 32.213 244.934 33.0058 243.756 33.0058C242.845 33.0058 242.213 32.5237 242.031 31.7095H241.078C241.271 32.9629 242.203 33.8306 243.745 33.8306C245.556 33.8306 246.391 32.6308 246.391 31.1311C246.391 29.9313 245.791 28.5708 243.906 28.5708C243.145 28.5708 242.46 28.9136 242.138 29.3528V26.9103H245.899V26.0533H241.239ZM255.717 33.8092H256.745L254.056 26.3854H252.932L250.232 33.8092H251.261L251.86 32.1488H255.117L255.717 33.8092ZM254.838 31.356H252.139L253.489 27.5852L254.838 31.356ZM263.128 27.9387H262.153V31.1632C262.153 32.4273 261.478 33.0486 260.471 33.0486C259.486 33.0486 258.832 32.438 258.832 31.2489V27.9387H257.868V31.3775C257.868 33.0593 258.929 33.8949 260.279 33.8949C261.061 33.8949 261.778 33.5521 262.153 32.9415V33.8092H263.128V27.9387ZM264.41 30.8525C264.41 32.6737 265.62 33.9056 267.195 33.9056C268.266 33.9056 269.027 33.3379 269.38 32.7058V33.9378C269.38 35.1911 268.598 35.8553 267.559 35.8553C266.595 35.8553 265.899 35.3732 265.685 34.6662H264.721C264.913 35.9196 266.017 36.7016 267.559 36.7016C269.284 36.7016 270.366 35.5553 270.366 33.9378V27.9387H269.38V29.01C269.038 28.378 268.266 27.8423 267.195 27.8423C265.62 27.8423 264.41 29.0207 264.41 30.8525ZM269.38 30.8633C269.38 32.2452 268.459 33.0486 267.388 33.0486C266.317 33.0486 265.406 32.2345 265.406 30.8525C265.406 29.4706 266.317 28.6886 267.388 28.6886C268.459 28.6886 269.38 29.5028 269.38 30.8633ZM274.591 33.7235H279.744V32.9094H276.058C277.44 31.7845 279.519 30.1455 279.519 28.2173C279.519 26.7818 278.576 25.9248 277.119 25.9248C275.726 25.9248 274.687 26.7818 274.623 28.4315H275.566C275.609 27.4567 276.123 26.7604 277.13 26.7604C278.18 26.7604 278.555 27.4031 278.555 28.2601C278.555 29.8456 276.626 31.3882 274.591 33.0272V33.7235ZM280.871 29.8563C280.871 32.1059 281.428 33.8092 283.57 33.8092C285.702 33.8092 286.259 32.1059 286.259 29.8563C286.259 27.6388 285.702 25.9462 283.57 25.9462C281.428 25.9462 280.871 27.6388 280.871 29.8563ZM285.295 29.8563C285.295 31.5274 285.091 32.9201 283.57 32.9201C282.038 32.9201 281.835 31.5274 281.835 29.8563C281.835 28.2494 282.038 26.8353 283.57 26.8353C285.091 26.8353 285.295 28.2494 285.295 29.8563ZM287.479 33.7235H292.632V32.9094H288.947C290.329 31.7845 292.407 30.1455 292.407 28.2173C292.407 26.7818 291.464 25.9248 290.008 25.9248C288.615 25.9248 287.576 26.7818 287.512 28.4315H288.454C288.497 27.4567 289.011 26.7604 290.018 26.7604C291.068 26.7604 291.443 27.4031 291.443 28.2601C291.443 29.8456 289.515 31.3882 287.479 33.0272V33.7235ZM293.641 33.7235H298.794V32.9094H295.109C296.491 31.7845 298.569 30.1455 298.569 28.2173C298.569 26.7818 297.626 25.9248 296.169 25.9248C294.777 25.9248 293.738 26.7818 293.673 28.4315H294.616C294.659 27.4567 295.173 26.7604 296.18 26.7604C297.23 26.7604 297.605 27.4031 297.605 28.2601C297.605 29.8456 295.677 31.3882 293.641 33.0272V33.7235Z" fill="#7C8DB5"/>
<path d="M234.721 54.0517H235.649V52.8805C237.578 52.7091 238.635 51.3665 238.635 49.981C238.635 47.967 237.078 47.5814 235.649 47.2386V44.1534C236.335 44.3248 236.735 44.8532 236.792 45.4246H238.535C238.406 43.8106 237.292 42.9107 235.649 42.7679V41.6109H234.721V42.7822C232.95 42.9393 231.722 44.0391 231.722 45.6388C231.722 47.6528 233.293 48.0527 234.721 48.4098V51.5521C233.921 51.4093 233.521 50.8808 233.464 50.1667H231.722C231.722 51.7807 232.978 52.7377 234.721 52.8948V54.0517ZM236.992 50.0667C236.992 50.8094 236.506 51.4093 235.649 51.5521V48.6526C236.421 48.8954 236.992 49.2525 236.992 50.0667ZM233.378 45.5531C233.378 44.6818 233.935 44.2105 234.721 44.1105V46.9958C233.95 46.7529 233.378 46.3816 233.378 45.5531ZM241.44 42.3679V48.3812H242.982C243.254 47.6099 243.897 47.0815 244.854 47.0815C246.21 47.0815 246.882 47.8528 246.882 49.2097C246.882 50.4952 246.253 51.4522 244.854 51.4522C243.754 51.4522 243.011 50.8808 242.797 49.9953H241.211C241.454 51.6236 242.697 52.8091 244.839 52.8091C247.253 52.8091 248.439 51.2379 248.439 49.1668C248.439 47.5957 247.653 45.696 245.096 45.696C244.168 45.696 243.325 46.1245 242.94 46.6387V43.7963H247.724V42.3679H241.44ZM250.662 49.981C250.791 51.4664 251.791 52.7948 253.947 52.7948C256.675 52.7948 257.418 50.9237 257.418 47.41C257.418 43.9962 256.518 42.1537 253.833 42.1537C251.648 42.1537 250.377 43.5249 250.377 45.596C250.377 47.7956 251.862 48.924 253.69 48.924C254.633 48.924 255.533 48.5669 256.004 47.9099C256.004 50.5666 255.347 51.4379 254.047 51.4379C252.962 51.4379 252.348 50.9094 252.162 49.981H250.662ZM253.976 47.5528C252.533 47.5528 251.933 46.6244 251.933 45.5531C251.933 44.3533 252.662 43.5106 253.876 43.5106C255.061 43.5106 255.818 44.2676 255.818 45.596C255.818 46.7672 255.133 47.5528 253.976 47.5528ZM258.415 54.7945H259.472L261.2 50.8523H259.429L258.415 54.7945ZM267.379 52.8091H268.979V50.638H270.307V49.224H268.979V42.5251H267.008L262.209 49.4096V50.638H267.379V52.8091ZM264.08 49.224L267.45 44.1819V49.224H264.08ZM272.185 49.981C272.313 51.4664 273.313 52.7948 275.47 52.7948C278.198 52.7948 278.941 50.9237 278.941 47.41C278.941 43.9962 278.041 42.1537 275.356 42.1537C273.17 42.1537 271.899 43.5249 271.899 45.596C271.899 47.7956 273.385 48.924 275.213 48.924C276.156 48.924 277.056 48.5669 277.527 47.9099C277.527 50.5666 276.87 51.4379 275.57 51.4379C274.485 51.4379 273.87 50.9094 273.685 49.981H272.185ZM275.499 47.5528C274.056 47.5528 273.456 46.6244 273.456 45.5531C273.456 44.3533 274.185 43.5106 275.399 43.5106C276.584 43.5106 277.341 44.2676 277.341 45.596C277.341 46.7672 276.656 47.5528 275.499 47.5528ZM280.594 52.6662H287.536V51.3093H283.008C284.679 49.781 287.25 47.8528 287.25 45.3246C287.25 43.4535 286.051 42.1823 283.937 42.1823C282.094 42.1823 280.637 43.2821 280.58 45.5388H282.151C282.194 44.3676 282.808 43.5677 283.951 43.5677C285.165 43.5677 285.636 44.3105 285.636 45.396C285.636 47.4385 283.051 49.3239 280.594 51.4807V52.6662ZM290.866 51.8664C290.866 51.2808 290.409 50.8237 289.838 50.8237C289.252 50.8237 288.795 51.2808 288.795 51.8664C288.795 52.452 289.252 52.9091 289.838 52.9091C290.409 52.9091 290.866 52.452 290.866 51.8664ZM293.526 52.8091H295.169V42.3965H292.198V43.882H293.526V52.8091ZM297.406 47.4671C297.406 50.4952 298.205 52.7805 301.119 52.7805C304.033 52.7805 304.833 50.4952 304.833 47.4671C304.833 44.4962 304.033 42.2108 301.119 42.2108C298.205 42.2108 297.406 44.4962 297.406 47.4671ZM303.233 47.4671C303.233 49.5096 303.019 51.295 301.119 51.295C299.22 51.295 299.005 49.5096 299.005 47.4671C299.005 45.5246 299.22 43.6963 301.119 43.6963C303.019 43.6963 303.233 45.5246 303.233 47.4671Z" fill="black"/>
</g>
<path d="M268.936 73.5089C268.605 73.7847 268.124 73.7847 267.793 73.5089L263.008 69.5216L273.721 69.5216L268.936 73.5089Z" fill="white"/>
<defs>
<filter id="filter0_d_8_234" x="255.86" y="70.9084" width="24.9959" height="24.9958" filterUnits="userSpaceOnUse" color-interpolation-filters="sRGB">
<feFlood flood-opacity="0" result="BackgroundImageFix"/>
<feColorMatrix in="SourceAlpha" type="matrix" values="0 0 0 0 0 0 0 0 0 0 0 0 0 0 0 0 0 0 127 0" result="hardAlpha"/>
<feOffset dy="1.78542"/>
<feGaussianBlur stdDeviation="4.46355"/>
<feComposite in2="hardAlpha" operator="out"/>
<feColorMatrix type="matrix" values="0 0 0 0 0.486275 0 0 0 0 0.552941 0 0 0 0 0.709804 0 0 0 0.12 0"/>
<feBlend mode="normal" in2="BackgroundImageFix" result="effect1_dropShadow_8_234"/>
<feBlend mode="normal" in="SourceGraphic" in2="effect1_dropShadow_8_234" result="shape"/>
</filter>
<filter id="filter1_d_8_234" x="211.225" y="3.95487" width="114.279" height="76.2794" filterUnits="userSpaceOnUse" color-interpolation-filters="sRGB">
<feFlood flood-opacity="0" result="BackgroundImageFix"/>
<feColorMatrix in="SourceAlpha" type="matrix" values="0 0 0 0 0 0 0 0 0 0 0 0 0 0 0 0 0 0 127 0" result="hardAlpha"/>
<feOffset dy="1.78542"/>
<feGaussianBlur stdDeviation="4.46355"/>
<feComposite in2="hardAlpha" operator="out"/>
<feColorMatrix type="matrix" values="0 0 0 0 0.486275 0 0 0 0 0.552941 0 0 0 0 0.709804 0 0 0 0.12 0"/>
<feBlend mode="normal" in2="BackgroundImageFix" result="effect1_dropShadow_8_234"/>
<feBlend mode="normal" in="SourceGraphic" in2="effect1_dropShadow_8_234" result="shape"/>
</filter>
<linearGradient id="paint0_linear_8_234" x1="268.358" y1="187.853" x2="268.358" y2="26.2727" gradientUnits="userSpaceOnUse">
<stop stop-color="#E6EDFF"/>
<stop offset="1" stop-color="#E6EDFF" stop-opacity="0"/>
</linearGradient>
</defs>
</svg>
