<svg width="29" height="25" viewBox="0 0 29 25" fill="none" xmlns="http://www.w3.org/2000/svg">
<path d="M28.25 24.875H0.75V22.125H2.125V1.5C2.125 1.13533 2.26987 0.785591 2.52773 0.527728C2.78559 0.269866 3.13533 0.125 3.5 0.125H22.75C23.1147 0.125 23.4644 0.269866 23.7223 0.527728C23.9801 0.785591 24.125 1.13533 24.125 1.5V8.375H26.875V22.125H28.25V24.875ZM21.375 22.125H24.125V11.125H15.875V22.125H18.625V13.875H21.375V22.125ZM21.375 8.375V2.875H4.875V22.125H13.125V8.375H21.375ZM7.625 11.125H10.375V13.875H7.625V11.125ZM7.625 16.625H10.375V19.375H7.625V16.625ZM7.625 5.625H10.375V8.375H7.625V5.625Z" fill="#3A36DB"/>
</svg>
