<svg width="311" height="59" viewBox="0 0 311 59" fill="none" xmlns="http://www.w3.org/2000/svg">
<path d="M81.1799 17.9769C82.1092 18.3022 82.8372 18.8133 83.3638 19.5103C83.8904 20.1918 84.1537 21.0204 84.1537 21.9962C84.1537 23.4211 83.5806 24.5208 82.4345 25.2953C81.2883 26.0697 79.631 26.4569 77.4626 26.4569H68.6806V10.1939H76.998C79.0734 10.1939 80.6533 10.5811 81.7375 11.3555C82.8217 12.1144 83.3638 13.1444 83.3638 14.4455C83.3638 15.2199 83.1702 15.9169 82.783 16.5364C82.4112 17.1405 81.8769 17.6207 81.1799 17.9769ZM73.2342 13.5162V16.6526H76.3939C77.9428 16.6526 78.7172 16.126 78.7172 15.0728C78.7172 14.035 77.9428 13.5162 76.3939 13.5162H73.2342ZM77.0909 23.1346C78.7017 23.1346 79.5071 22.5848 79.5071 21.4851C79.5071 20.3854 78.7017 19.8355 77.0909 19.8355H73.2342V23.1346H77.0909ZM86.3272 13.8647H90.7415V26.4569H86.3272V13.8647ZM88.5344 12.4707C87.729 12.4707 87.0784 12.2461 86.5828 11.7969C86.0872 11.3478 85.8394 10.7902 85.8394 10.1242C85.8394 9.45815 86.0872 8.90056 86.5828 8.45139C87.0784 8.00222 87.729 7.77763 88.5344 7.77763C89.3398 7.77763 89.9903 7.99447 90.4859 8.42815C90.9816 8.84635 91.2294 9.38845 91.2294 10.0545C91.2294 10.7514 90.9816 11.3323 90.4859 11.7969C89.9903 12.2461 89.3398 12.4707 88.5344 12.4707ZM99.9296 26.666C98.5821 26.666 97.3662 26.3872 96.282 25.8296C95.1978 25.272 94.3459 24.4976 93.7264 23.5063C93.1223 22.5151 92.8203 21.3921 92.8203 20.1376C92.8203 18.8985 93.1223 17.7833 93.7264 16.792C94.3459 15.8007 95.1901 15.0341 96.2588 14.4919C97.343 13.9344 98.5666 13.6556 99.9296 13.6556C101.293 13.6556 102.516 13.9344 103.6 14.4919C104.685 15.0341 105.529 15.8007 106.133 16.792C106.737 17.7678 107.039 18.883 107.039 20.1376C107.039 21.3921 106.737 22.5151 106.133 23.5063C105.529 24.4976 104.685 25.272 103.6 25.8296C102.516 26.3872 101.293 26.666 99.9296 26.666ZM99.9296 23.1578C100.704 23.1578 101.339 22.8945 101.835 22.3679C102.33 21.8258 102.578 21.0824 102.578 20.1376C102.578 19.2082 102.33 18.4803 101.835 17.9537C101.339 17.427 100.704 17.1637 99.9296 17.1637C99.1552 17.1637 98.5201 17.427 98.0245 17.9537C97.5288 18.4803 97.281 19.2082 97.281 20.1376C97.281 21.0824 97.5288 21.8258 98.0245 22.3679C98.5201 22.8945 99.1552 23.1578 99.9296 23.1578ZM130.737 26.4569L130.691 17.8375L126.509 24.8538H124.464L120.306 18.0698V26.4569H116.054V10.1939H119.841L125.556 19.58L131.132 10.1939H134.919L134.966 26.4569H130.737ZM150.882 20.184C150.882 20.215 150.859 20.579 150.813 21.276H141.659C141.845 21.9265 142.201 22.4299 142.728 22.7861C143.27 23.1269 143.944 23.2972 144.749 23.2972C145.353 23.2972 145.872 23.212 146.306 23.0417C146.755 22.8713 147.204 22.5925 147.653 22.2053L149.976 24.6215C148.753 25.9845 146.964 26.666 144.61 26.666C143.138 26.666 141.845 26.3872 140.73 25.8296C139.615 25.272 138.747 24.4976 138.128 23.5063C137.524 22.5151 137.222 21.3921 137.222 20.1376C137.222 18.8985 137.516 17.791 138.104 16.8152C138.708 15.824 139.537 15.0495 140.59 14.4919C141.644 13.9344 142.828 13.6556 144.145 13.6556C145.4 13.6556 146.538 13.9189 147.56 14.4455C148.582 14.9566 149.388 15.7078 149.976 16.6991C150.58 17.6749 150.882 18.8365 150.882 20.184ZM144.168 16.792C143.487 16.792 142.914 16.9856 142.449 17.3728C142 17.76 141.713 18.2867 141.589 18.9527H146.747C146.623 18.2867 146.329 17.76 145.864 17.3728C145.415 16.9856 144.85 16.792 144.168 16.792ZM166.3 9.21807V26.4569H162.095V25.2023C161.274 26.1781 160.042 26.666 158.401 26.666C157.255 26.666 156.209 26.4027 155.264 25.8761C154.319 25.334 153.568 24.5673 153.011 23.576C152.469 22.5848 152.198 21.4386 152.198 20.1376C152.198 18.8365 152.469 17.6981 153.011 16.7223C153.568 15.731 154.319 14.9721 155.264 14.4455C156.209 13.9189 157.255 13.6556 158.401 13.6556C159.903 13.6556 161.065 14.0892 161.886 14.9566V9.21807H166.3ZM159.33 23.1578C160.089 23.1578 160.716 22.8945 161.212 22.3679C161.708 21.8258 161.955 21.0824 161.955 20.1376C161.955 19.2082 161.708 18.4803 161.212 17.9537C160.732 17.427 160.104 17.1637 159.33 17.1637C158.556 17.1637 157.921 17.427 157.425 17.9537C156.929 18.4803 156.681 19.2082 156.681 20.1376C156.681 21.0824 156.929 21.8258 157.425 22.3679C157.921 22.8945 158.556 23.1578 159.33 23.1578ZM169.14 13.8647H173.554V26.4569H169.14V13.8647ZM171.347 12.4707C170.542 12.4707 169.891 12.2461 169.396 11.7969C168.9 11.3478 168.652 10.7902 168.652 10.1242C168.652 9.45815 168.9 8.90056 169.396 8.45139C169.891 8.00222 170.542 7.77763 171.347 7.77763C172.152 7.77763 172.803 7.99447 173.299 8.42815C173.794 8.84635 174.042 9.38845 174.042 10.0545C174.042 10.7514 173.794 11.3323 173.299 11.7969C172.803 12.2461 172.152 12.4707 171.347 12.4707ZM182.858 26.666C181.464 26.666 180.218 26.3872 179.118 25.8296C178.018 25.272 177.159 24.4976 176.539 23.5063C175.935 22.5151 175.633 21.3921 175.633 20.1376C175.633 18.883 175.935 17.7678 176.539 16.792C177.159 15.8007 178.018 15.0341 179.118 14.4919C180.218 13.9344 181.464 13.6556 182.858 13.6556C184.283 13.6556 185.515 13.9653 186.552 14.5849C187.59 15.1889 188.326 16.0331 188.76 17.1173L185.344 18.8597C184.771 17.7291 183.935 17.1637 182.835 17.1637C182.045 17.1637 181.387 17.427 180.86 17.9537C180.349 18.4803 180.094 19.2082 180.094 20.1376C180.094 21.0824 180.349 21.8258 180.86 22.3679C181.387 22.8945 182.045 23.1578 182.835 23.1578C183.935 23.1578 184.771 22.5925 185.344 21.4618L188.76 23.2043C188.326 24.2885 187.59 25.1404 186.552 25.7599C185.515 26.364 184.283 26.666 182.858 26.666ZM195.788 13.6556C197.879 13.6556 199.475 14.1357 200.574 15.096C201.674 16.0408 202.224 17.4967 202.224 19.4638V26.4569H198.112V24.8306C197.477 26.0542 196.238 26.666 194.395 26.666C193.419 26.666 192.575 26.4956 191.862 26.1549C191.15 25.8141 190.608 25.3572 190.236 24.7841C189.88 24.1956 189.701 23.5296 189.701 22.7861C189.701 21.5935 190.158 20.6719 191.072 20.0214C191.986 19.3554 193.395 19.0224 195.301 19.0224H197.81C197.732 17.6903 196.842 17.0243 195.138 17.0243C194.534 17.0243 193.922 17.125 193.303 17.3264C192.683 17.5122 192.156 17.7755 191.723 18.1163L190.236 15.1192C190.933 14.6546 191.777 14.2983 192.768 14.0505C193.775 13.7872 194.782 13.6556 195.788 13.6556ZM195.626 23.8781C196.137 23.8781 196.586 23.7541 196.973 23.5063C197.361 23.2585 197.639 22.8945 197.81 22.4144V21.3224H195.905C194.619 21.3224 193.976 21.7484 193.976 22.6002C193.976 22.9875 194.123 23.2972 194.418 23.5296C194.712 23.7619 195.115 23.8781 195.626 23.8781ZM205.01 9.21807H209.425V26.4569H205.01V9.21807Z" fill="#2B84DF"/>
<path d="M93.0054 33.1939L87.6154 49.4569H84.4093L80.39 37.4223L76.301 49.4569H73.0716L67.6815 33.1939H70.818L74.8605 45.5538L79.0657 33.1939H81.8536L85.9659 45.6235L90.1246 33.1939H93.0054ZM98.9965 36.9111C100.824 36.9111 102.218 37.3526 103.178 38.2354C104.154 39.1028 104.642 40.4193 104.642 42.185V49.4569H101.901V47.9468C101.544 48.4889 101.033 48.9071 100.367 49.2013C99.7167 49.4801 98.9268 49.6195 97.9974 49.6195C97.0681 49.6195 96.255 49.4647 95.558 49.1549C94.861 48.8296 94.3189 48.3882 93.9317 47.8306C93.5599 47.2575 93.3741 46.6147 93.3741 45.9023C93.3741 44.7871 93.7845 43.8965 94.6054 43.2305C95.4418 42.549 96.7506 42.2082 98.5318 42.2082H101.738V42.0224C101.738 41.155 101.475 40.489 100.948 40.0243C100.437 39.5597 99.6702 39.3274 98.648 39.3274C97.951 39.3274 97.2617 39.4358 96.5802 39.6526C95.9142 39.8695 95.3489 40.1715 94.8842 40.5587L93.7458 38.4445C94.3963 37.9489 95.1785 37.5694 96.0923 37.3061C97.0062 37.0428 97.9742 36.9111 98.9965 36.9111ZM98.6015 47.5053C99.3295 47.5053 99.9722 47.3427 100.53 47.0175C101.103 46.6767 101.506 46.1966 101.738 45.577V44.1366H98.7409C97.0681 44.1366 96.2317 44.6864 96.2317 45.7861C96.2317 46.3127 96.4408 46.7309 96.859 47.0407C97.2772 47.3505 97.858 47.5053 98.6015 47.5053ZM112.203 49.6195C111.196 49.6195 110.212 49.4879 109.252 49.2246C108.292 48.9613 107.525 48.6283 106.952 48.2256L108.067 46.0184C108.625 46.3902 109.291 46.6922 110.065 46.9245C110.855 47.1414 111.629 47.2498 112.388 47.2498C114.123 47.2498 114.991 46.7929 114.991 45.879C114.991 45.4454 114.766 45.1433 114.317 44.973C113.883 44.8026 113.178 44.6399 112.203 44.4851C111.18 44.3302 110.344 44.1521 109.693 43.9507C109.058 43.7494 108.501 43.4009 108.021 42.9052C107.556 42.3941 107.324 41.6894 107.324 40.791C107.324 39.6139 107.812 38.6768 108.787 37.9798C109.779 37.2674 111.111 36.9111 112.783 36.9111C113.635 36.9111 114.487 37.0118 115.339 37.2132C116.191 37.399 116.888 37.6546 117.43 37.9798L116.315 40.187C115.262 39.5674 114.077 39.2577 112.76 39.2577C111.908 39.2577 111.258 39.3893 110.809 39.6526C110.375 39.9004 110.158 40.2334 110.158 40.6516C110.158 41.1163 110.39 41.4493 110.855 41.6506C111.335 41.8365 112.071 42.0146 113.062 42.185C114.053 42.3399 114.867 42.518 115.502 42.7194C116.137 42.9207 116.679 43.2615 117.128 43.7416C117.593 44.2218 117.825 44.9033 117.825 45.7861C117.825 46.9478 117.322 47.8771 116.315 48.5741C115.308 49.271 113.937 49.6195 112.203 49.6195ZM127.784 48.7832C127.443 49.0619 127.025 49.271 126.529 49.4104C126.049 49.5498 125.538 49.6195 124.996 49.6195C123.633 49.6195 122.58 49.2633 121.836 48.5508C121.093 47.8383 120.721 46.8006 120.721 45.4376V39.4667H118.676V37.1435H120.721V34.309H123.625V37.1435H126.947V39.4667H123.625V45.3679C123.625 45.972 123.772 46.4366 124.066 46.7619C124.361 47.0717 124.787 47.2265 125.344 47.2265C125.995 47.2265 126.537 47.0562 126.971 46.7154L127.784 48.7832ZM141.427 43.3234C141.427 43.5248 141.412 43.8113 141.381 44.183H131.646C131.817 45.0969 132.258 45.8248 132.97 46.3669C133.698 46.8935 134.597 47.1568 135.665 47.1568C137.028 47.1568 138.151 46.7077 139.034 45.8093L140.591 47.5983C140.033 48.2643 139.329 48.7677 138.477 49.1084C137.625 49.4492 136.664 49.6195 135.596 49.6195C134.233 49.6195 133.032 49.3485 131.995 48.8064C130.957 48.2643 130.152 47.5131 129.578 46.5528C129.021 45.577 128.742 44.4773 128.742 43.2537C128.742 42.0456 129.013 40.9614 129.555 40.0011C130.113 39.0253 130.879 38.2664 131.855 37.7243C132.831 37.1822 133.931 36.9111 135.154 36.9111C136.362 36.9111 137.439 37.1822 138.384 37.7243C139.344 38.2509 140.087 39.0021 140.614 39.9779C141.156 40.9382 141.427 42.0533 141.427 43.3234ZM135.154 39.2344C134.225 39.2344 133.435 39.5132 132.785 40.0708C132.15 40.6129 131.762 41.3409 131.623 42.2547H138.663C138.539 41.3564 138.159 40.6284 137.524 40.0708C136.889 39.5132 136.099 39.2344 135.154 39.2344ZM165.855 49.4569L165.832 38.6768L160.488 47.5983H159.141L153.797 38.8162V49.4569H150.916V33.1939H153.402L159.861 43.9739L166.204 33.1939H168.69L168.713 49.4569H165.855ZM177.566 36.9111C179.394 36.9111 180.788 37.3526 181.748 38.2354C182.724 39.1028 183.212 40.4193 183.212 42.185V49.4569H180.471V47.9468C180.114 48.4889 179.603 48.9071 178.937 49.2013C178.287 49.4801 177.497 49.6195 176.567 49.6195C175.638 49.6195 174.825 49.4647 174.128 49.1549C173.431 48.8296 172.889 48.3882 172.502 47.8306C172.13 47.2575 171.944 46.6147 171.944 45.9023C171.944 44.7871 172.354 43.8965 173.175 43.2305C174.012 42.549 175.321 42.2082 177.102 42.2082H180.308V42.0224C180.308 41.155 180.045 40.489 179.518 40.0243C179.007 39.5597 178.24 39.3274 177.218 39.3274C176.521 39.3274 175.832 39.4358 175.15 39.6526C174.484 39.8695 173.919 40.1715 173.454 40.5587L172.316 38.4445C172.966 37.9489 173.748 37.5694 174.662 37.3061C175.576 37.0428 176.544 36.9111 177.566 36.9111ZM177.171 47.5053C177.899 47.5053 178.542 47.3427 179.1 47.0175C179.673 46.6767 180.076 46.1966 180.308 45.577V44.1366H177.311C175.638 44.1366 174.802 44.6864 174.802 45.7861C174.802 46.3127 175.011 46.7309 175.429 47.0407C175.847 47.3505 176.428 47.5053 177.171 47.5053ZM193.979 36.9111C195.543 36.9111 196.798 37.368 197.742 38.2819C198.687 39.1957 199.16 40.551 199.16 42.3476V49.4569H196.255V42.7194C196.255 41.6352 196 40.822 195.489 40.2799C194.978 39.7223 194.25 39.4435 193.305 39.4435C192.236 39.4435 191.392 39.7688 190.773 40.4193C190.153 41.0543 189.843 41.9759 189.843 43.184V49.4569H186.939V37.0505H189.704V38.6536C190.184 38.0805 190.788 37.6468 191.516 37.3526C192.244 37.0583 193.065 36.9111 193.979 36.9111ZM207.583 36.9111C209.411 36.9111 210.805 37.3526 211.765 38.2354C212.741 39.1028 213.229 40.4193 213.229 42.185V49.4569H210.487V47.9468C210.131 48.4889 209.62 48.9071 208.954 49.2013C208.303 49.4801 207.513 49.6195 206.584 49.6195C205.655 49.6195 204.842 49.4647 204.145 49.1549C203.448 48.8296 202.906 48.3882 202.518 47.8306C202.147 47.2575 201.961 46.6147 201.961 45.9023C201.961 44.7871 202.371 43.8965 203.192 43.2305C204.029 42.549 205.337 42.2082 207.119 42.2082H210.325V42.0224C210.325 41.155 210.061 40.489 209.535 40.0243C209.024 39.5597 208.257 39.3274 207.235 39.3274C206.538 39.3274 205.848 39.4358 205.167 39.6526C204.501 39.8695 203.936 40.1715 203.471 40.5587L202.333 38.4445C202.983 37.9489 203.765 37.5694 204.679 37.3061C205.593 37.0428 206.561 36.9111 207.583 36.9111ZM207.188 47.5053C207.916 47.5053 208.559 47.3427 209.117 47.0175C209.69 46.6767 210.092 46.1966 210.325 45.577V44.1366H207.328C205.655 44.1366 204.818 44.6864 204.818 45.7861C204.818 46.3127 205.028 46.7309 205.446 47.0407C205.864 47.3505 206.445 47.5053 207.188 47.5053ZM229.383 37.0505V47.575C229.383 51.9428 227.152 54.1267 222.692 54.1267C221.499 54.1267 220.368 53.9718 219.3 53.6621C218.231 53.3678 217.348 52.9341 216.651 52.361L217.952 50.1771C218.494 50.6263 219.176 50.9825 219.997 51.2458C220.833 51.5246 221.677 51.664 222.529 51.664C223.892 51.664 224.891 51.3543 225.526 50.7347C226.161 50.1152 226.479 49.1704 226.479 47.9003V47.2498C225.983 47.7919 225.379 48.2023 224.666 48.4811C223.954 48.7599 223.172 48.8993 222.32 48.8993C221.143 48.8993 220.074 48.6515 219.114 48.1559C218.169 47.6447 217.418 46.9323 216.86 46.0184C216.318 45.1046 216.047 44.0591 216.047 42.882C216.047 41.7049 216.318 40.6671 216.86 39.7688C217.418 38.8549 218.169 38.1502 219.114 37.6546C220.074 37.1589 221.143 36.9111 222.32 36.9111C223.218 36.9111 224.031 37.0583 224.759 37.3526C225.503 37.6468 226.122 38.096 226.618 38.7001V37.0505H229.383ZM222.761 46.4366C223.861 46.4366 224.759 46.1114 225.456 45.4608C226.169 44.7948 226.525 43.9352 226.525 42.882C226.525 41.8443 226.169 41.0001 225.456 40.3496C224.759 39.6991 223.861 39.3738 222.761 39.3738C221.646 39.3738 220.732 39.6991 220.02 40.3496C219.323 41.0001 218.974 41.8443 218.974 42.882C218.974 43.9352 219.323 44.7948 220.02 45.4608C220.732 46.1114 221.646 46.4366 222.761 46.4366ZM244.864 43.3234C244.864 43.5248 244.848 43.8113 244.817 44.183H235.083C235.253 45.0969 235.694 45.8248 236.407 46.3669C237.135 46.8935 238.033 47.1568 239.102 47.1568C240.465 47.1568 241.588 46.7077 242.471 45.8093L244.027 47.5983C243.47 48.2643 242.765 48.7677 241.913 49.1084C241.061 49.4492 240.101 49.6195 239.032 49.6195C237.669 49.6195 236.469 49.3485 235.431 48.8064C234.393 48.2643 233.588 47.5131 233.015 46.5528C232.457 45.577 232.179 44.4773 232.179 43.2537C232.179 42.0456 232.45 40.9614 232.992 40.0011C233.549 39.0253 234.316 38.2664 235.292 37.7243C236.268 37.1822 237.367 36.9111 238.591 36.9111C239.799 36.9111 240.875 37.1822 241.82 37.7243C242.78 38.2509 243.524 39.0021 244.051 39.9779C244.593 40.9382 244.864 42.0533 244.864 43.3234ZM238.591 39.2344C237.661 39.2344 236.872 39.5132 236.221 40.0708C235.586 40.6129 235.199 41.3409 235.059 42.2547H242.099C241.975 41.3564 241.596 40.6284 240.961 40.0708C240.326 39.5132 239.536 39.2344 238.591 39.2344ZM263.312 36.9111C264.877 36.9111 266.116 37.368 267.03 38.2819C267.943 39.1802 268.4 40.5355 268.4 42.3476V49.4569H265.496V42.7194C265.496 41.6352 265.256 40.822 264.776 40.2799C264.296 39.7223 263.607 39.4435 262.708 39.4435C261.732 39.4435 260.95 39.7688 260.362 40.4193C259.773 41.0543 259.479 41.9682 259.479 43.1608V49.4569H256.575V42.7194C256.575 41.6352 256.335 40.822 255.854 40.2799C255.374 39.7223 254.685 39.4435 253.787 39.4435C252.795 39.4435 252.006 39.761 251.417 40.3961C250.844 41.0311 250.557 41.9527 250.557 43.1608V49.4569H247.653V37.0505H250.418V38.6304C250.883 38.0728 251.463 37.6468 252.16 37.3526C252.857 37.0583 253.632 36.9111 254.484 36.9111C255.413 36.9111 256.234 37.0892 256.946 37.4455C257.674 37.7862 258.247 38.2974 258.666 38.9789C259.177 38.3283 259.835 37.825 260.64 37.4687C261.446 37.097 262.336 36.9111 263.312 36.9111ZM283.888 43.3234C283.888 43.5248 283.872 43.8113 283.841 44.183H274.107C274.277 45.0969 274.718 45.8248 275.431 46.3669C276.159 46.8935 277.057 47.1568 278.126 47.1568C279.489 47.1568 280.612 46.7077 281.495 45.8093L283.051 47.5983C282.494 48.2643 281.789 48.7677 280.937 49.1084C280.085 49.4492 279.125 49.6195 278.056 49.6195C276.693 49.6195 275.493 49.3485 274.455 48.8064C273.417 48.2643 272.612 47.5131 272.039 46.5528C271.481 45.577 271.203 44.4773 271.203 43.2537C271.203 42.0456 271.474 40.9614 272.016 40.0011C272.573 39.0253 273.34 38.2664 274.316 37.7243C275.292 37.1822 276.391 36.9111 277.615 36.9111C278.823 36.9111 279.899 37.1822 280.844 37.7243C281.805 38.2509 282.548 39.0021 283.075 39.9779C283.617 40.9382 283.888 42.0533 283.888 43.3234ZM277.615 39.2344C276.686 39.2344 275.896 39.5132 275.245 40.0708C274.61 40.6129 274.223 41.3409 274.083 42.2547H281.123C280.999 41.3564 280.62 40.6284 279.985 40.0708C279.35 39.5132 278.56 39.2344 277.615 39.2344ZM293.717 36.9111C295.281 36.9111 296.536 37.368 297.481 38.2819C298.425 39.1957 298.898 40.551 298.898 42.3476V49.4569H295.994V42.7194C295.994 41.6352 295.738 40.822 295.227 40.2799C294.716 39.7223 293.988 39.4435 293.043 39.4435C291.974 39.4435 291.13 39.7688 290.511 40.4193C289.891 41.0543 289.581 41.9759 289.581 43.184V49.4569H286.677V37.0505H289.442V38.6536C289.922 38.0805 290.526 37.6468 291.254 37.3526C291.982 37.0583 292.803 36.9111 293.717 36.9111ZM310.04 48.7832C309.699 49.0619 309.281 49.271 308.785 49.4104C308.305 49.5498 307.794 49.6195 307.252 49.6195C305.889 49.6195 304.835 49.2633 304.092 48.5508C303.349 47.8383 302.977 46.8006 302.977 45.4376V39.4667H300.932V37.1435H302.977V34.309H305.881V37.1435H309.203V39.4667H305.881V45.3679C305.881 45.972 306.028 46.4366 306.322 46.7619C306.617 47.0717 307.043 47.2265 307.6 47.2265C308.251 47.2265 308.793 47.0562 309.227 46.7154L310.04 48.7832Z" fill="#07BC59"/>
<path fill-rule="evenodd" clip-rule="evenodd" d="M25.9448 15.2155H32.9252C33.8089 15.2155 34.523 15.9389 34.523 16.832V23.1466C34.2642 23.227 34.0053 23.2984 33.7465 23.3609C32.47 23.7182 31.1935 24.1112 29.9885 24.6828C29.7296 24.8078 29.4618 24.9418 29.2029 25.0936C28.4174 25.5581 27.6855 26.1029 27.0338 26.7549C26.409 27.3801 25.9091 28.1035 25.4985 28.8895C24.9005 30.0863 24.5613 31.3724 24.3202 32.6764C24.2756 32.9176 24.2399 33.1677 24.2131 33.4088H17.9647C17.081 33.4088 16.3669 32.6854 16.3669 31.7922V24.8078C16.3669 23.9236 17.0899 23.1912 17.9647 23.1912H24.3292V16.832C24.3292 15.9389 25.0433 15.2155 25.9448 15.2155ZM34.523 36.8028V39.7769C34.523 40.6611 33.8 41.3757 32.9252 41.3757H27.2481C27.0071 40.5718 26.9089 39.7055 26.9178 38.8391C26.9892 38.8927 27.0696 38.9463 27.1499 38.991C27.4088 39.1249 27.6944 39.1696 27.98 39.1249C28.2211 39.0803 28.4442 38.991 28.6584 38.8659C30.3455 37.8299 32.6396 37.4637 34.5141 36.8117L34.523 36.8028Z" fill="url(#paint0_linear_25_234)"/>
<path fill-rule="evenodd" clip-rule="evenodd" d="M41.2713 21.3871C39.1558 23.0037 36.5314 23.5574 33.9964 24.2541C32.7467 24.5935 31.5238 24.9775 30.399 25.5134C30.1402 25.6384 29.8992 25.7546 29.6671 25.8975C28.9619 26.3083 28.2835 26.7906 27.6854 27.4069C27.1142 27.9785 26.6678 28.6126 26.3286 29.3093C25.7752 30.3989 25.4628 31.6047 25.2307 32.8372C24.8201 35.0879 24.8379 37.419 25.2485 39.6697C25.4271 40.5808 25.5877 41.5275 25.9537 42.3849C26.0341 42.5725 26.1144 42.8225 26.2929 42.9387C26.525 43.0994 26.8464 42.8404 26.7303 42.5814C25.8466 40.6969 25.8466 38.33 26.3643 36.3026C26.9446 33.9893 28.5245 32.4353 30.5776 31.301C31.1221 31.0062 31.6934 30.7294 32.2646 30.4614C32.2825 30.4614 32.2914 30.4614 32.2914 30.4614C32.4164 30.4346 32.4967 30.6133 32.3896 30.6758C31.7201 31.1134 31.0685 31.5332 30.4615 31.9976C27.4444 34.1948 26.6321 38.3925 27.864 38.205C27.9622 38.1871 28.0693 38.1514 28.2032 38.071C29.9706 36.9992 32.2111 36.642 34.2284 35.9364C34.9336 35.6953 35.6299 35.3916 36.2547 35.0165C38.7273 33.5071 40.2894 31.0509 41.0214 28.2643C41.5659 26.2011 41.5391 23.8522 41.8515 21.7265C41.9051 21.4585 41.6909 21.262 41.4588 21.3067C41.3784 21.3156 41.3249 21.3424 41.2713 21.3871Z" fill="url(#paint1_linear_25_234)"/>
<path d="M3.6051 23.6708C3.67876 23.6855 3.75242 23.7002 3.84082 23.7002C4.26806 23.7002 4.65111 23.4203 4.75423 22.9931C7.46501 12.1794 17.1148 4.4154 28.2378 4.03236L29.1954 4.57746C28.503 4.57746 27.7958 4.60692 27.1034 4.65112C24.9819 4.82791 22.8899 5.26988 20.8863 5.97704C18.9416 6.66947 17.0853 7.61235 15.3764 8.76148C15.1112 8.93827 14.9638 9.23292 14.9638 9.54231C14.9638 9.73383 15.0228 9.91062 15.1259 10.0727C15.3027 10.3379 15.5973 10.4852 15.9067 10.4852C16.0982 10.4852 16.275 10.4263 16.4371 10.3231C19.6488 8.14272 23.3908 6.83153 27.2655 6.52215C28.3262 6.43375 29.4017 6.41902 30.4624 6.49268L29.5343 7.02305C29.4017 7.02305 29.2544 7.02305 29.1218 7.02305C24.319 7.02305 19.7372 8.5405 15.9067 11.4133C12.1794 14.1978 9.38023 18.1461 8.01011 22.5511C7.84805 23.052 8.12797 23.5824 8.62888 23.7297C8.71727 23.7592 8.8204 23.7739 8.90879 23.7739C9.30657 23.7739 9.68961 23.5087 9.80747 23.1109C12.1205 15.6858 18.3229 10.3968 25.807 9.17399L24.3632 10.0137C23.9065 10.2789 23.7591 10.8535 24.0243 11.3102C24.2011 11.6196 24.5105 11.7816 24.8493 11.7816C25.0114 11.7816 25.1735 11.7374 25.3208 11.6491L30.1972 8.83515C30.2562 8.80568 30.3004 8.77622 30.3446 8.74675L33.8656 6.71367C34.1603 6.55161 34.3371 6.2275 34.3371 5.88865C34.3371 5.5498 34.1603 5.24042 33.8656 5.06363L25.3208 0.128248C24.8641 -0.136936 24.2895 0.025121 24.0243 0.467096C23.7591 0.923802 23.9212 1.49837 24.3632 1.76355L25.3944 2.35285C14.625 3.88503 5.60872 11.8111 2.92741 22.5216C2.79481 23.0373 3.10419 23.5529 3.6051 23.6708Z" fill="#07BC59"/>
<path d="M54.4174 35.5157C53.9165 35.3683 53.3862 35.663 53.2536 36.1639C50.204 46.6387 40.8783 53.8723 29.991 54.2407L29.0334 53.6955C29.0628 53.6955 29.0923 53.6955 29.1218 53.6955C29.4606 53.6955 29.8142 53.6808 30.1383 53.6808C32.2745 53.5924 34.3813 53.2241 36.3996 52.6053C38.3738 51.9866 40.2595 51.1321 42.0127 50.0419C42.2926 49.8651 42.4547 49.5705 42.4547 49.2463C42.4547 49.0695 42.4105 48.8928 42.3221 48.7454C42.1453 48.4655 41.8506 48.3035 41.5118 48.3035C41.335 48.3035 41.1729 48.3477 41.0109 48.4361C37.7108 50.4691 33.9246 51.633 30.0352 51.7951C29.7258 51.8098 29.4164 51.8098 29.0923 51.8098C28.6503 51.8098 28.1936 51.7951 27.7517 51.7656L28.6651 51.2352C28.8124 51.2352 28.945 51.2352 29.0923 51.2352C38.3296 51.2352 46.6682 45.4159 49.8504 36.7532C50.0272 36.267 49.7767 35.7219 49.2905 35.5451C48.8044 35.3683 48.2593 35.6188 48.0825 36.105C45.5632 42.9703 39.4934 47.8909 32.4219 49.0695L33.8509 48.2445C34.3076 47.9793 34.4549 47.4048 34.1898 46.9481C33.9246 46.4914 33.35 46.344 32.8933 46.6092L24.3485 51.5446C24.0538 51.7067 23.877 52.0308 23.877 52.3696C23.877 52.7085 24.0538 53.0179 24.3485 53.1946L32.8933 58.13C33.0406 58.2184 33.2027 58.2626 33.3647 58.2626C33.6888 58.2626 34.013 58.0858 34.1898 57.7912C34.4549 57.3345 34.2929 56.7599 33.8509 56.4947L32.8344 55.9054C37.5193 55.2572 41.9243 53.4156 45.7106 50.4544C50.2334 46.9333 53.4598 42.1747 55.0509 36.6943C55.1983 36.1786 54.9184 35.6483 54.4174 35.5157Z" fill="#07BC59"/>
<path d="M13.0928 13.1075C13.2696 12.9308 13.3727 12.695 13.3727 12.4446C13.3727 12.1941 13.2696 11.9584 13.0928 11.7816C12.916 11.6048 12.6803 11.5017 12.4299 11.5017C12.1794 11.5017 11.9437 11.6048 11.7669 11.7816C11.3986 12.1499 11.3986 12.754 11.7669 13.1223C11.9437 13.2991 12.1794 13.4022 12.4299 13.4022C12.6656 13.3875 12.916 13.2843 13.0928 13.1075Z" fill="#07BC59"/>
<path d="M12.091 44.532C11.8406 44.532 11.6196 44.6203 11.4428 44.7971C11.0598 45.1507 11.0598 45.7547 11.4133 46.1231C11.5901 46.3146 11.8406 46.4177 12.091 46.4177C12.3415 46.4177 12.5625 46.3293 12.7393 46.1525C13.1223 45.7989 13.1223 45.1949 12.7687 44.8119C12.5919 44.6351 12.3562 44.532 12.091 44.532Z" fill="#07BC59"/>
<path d="M44.4877 45.7842C44.2962 45.961 44.1931 46.1967 44.1783 46.4472C44.1636 46.6976 44.252 46.9333 44.4288 47.1249C44.6056 47.3164 44.856 47.4342 45.1212 47.4342C45.3569 47.4342 45.5779 47.3458 45.7547 47.1838C46.1378 46.8302 46.1672 46.2262 45.8136 45.8431C45.6369 45.6516 45.3864 45.5338 45.1212 45.5338C44.8855 45.5338 44.6645 45.6221 44.4877 45.7842Z" fill="#07BC59"/>
<path d="M46.786 13.4465C47.169 13.0929 47.169 12.4889 46.8155 12.1058C46.6387 11.9143 46.3882 11.8112 46.1378 11.8112C45.8873 11.8112 45.6663 11.8996 45.4895 12.0763C45.3127 12.2531 45.2096 12.4889 45.1949 12.7393C45.1949 12.9898 45.2833 13.2255 45.4601 13.417C45.6369 13.6085 45.8873 13.7116 46.1378 13.7116C46.3735 13.7116 46.6092 13.6085 46.786 13.4465Z" fill="#07BC59"/>
<path d="M22.6395 48.274C15.4942 45.8579 10.3968 39.7145 9.18872 32.4514L10.0137 33.8657C10.2789 34.3224 10.8535 34.4697 11.3102 34.2045C11.7669 33.9393 11.9142 33.3648 11.649 32.9081L6.71367 24.3632C6.55161 24.0686 6.2275 23.8918 5.88865 23.8918C5.5498 23.8918 5.24042 24.0686 5.06363 24.3632L0.128248 32.9081C-0.136936 33.3648 0.025121 33.9393 0.467095 34.2045C0.61442 34.2929 0.776478 34.3371 0.938535 34.3371C1.26265 34.3371 1.58676 34.1603 1.76355 33.8657L2.35285 32.8344C3.00108 37.6077 4.9163 42.0717 7.9512 45.9021C11.5165 50.3955 16.5255 53.6956 22.0354 55.1836C22.1238 55.213 22.1975 55.213 22.2859 55.213C22.6984 55.213 23.0815 54.9331 23.1993 54.5206C23.3319 54.0197 23.0373 53.5041 22.5363 53.3568C11.9732 50.5134 4.38594 40.9225 4.01762 29.991L4.56272 29.0334C4.56272 29.0629 4.56272 29.0924 4.56272 29.1365C4.56272 29.6227 4.57746 30.1236 4.60692 30.6098C4.60692 30.6245 4.60692 30.6245 4.60692 30.6393C4.73951 32.7607 5.13729 34.8675 5.81499 36.8711C6.46322 38.8305 7.3619 40.7015 8.48156 42.44C8.48156 42.44 8.48156 42.4547 8.4963 42.4547C8.67309 42.7199 8.96774 42.882 9.29185 42.882C9.46864 42.882 9.64543 42.823 9.80749 42.7346C10.0727 42.5578 10.2347 42.2632 10.2347 41.9391C10.2347 41.7623 10.1758 41.5855 10.0874 41.4382C7.96593 38.1676 6.7284 34.396 6.49268 30.5214C6.46321 30.0647 6.44848 29.5933 6.44848 29.1218C6.44848 28.6798 6.46321 28.2379 6.49268 27.7959L7.02305 28.724C7.02305 28.8566 7.02305 29.004 7.02305 29.1365C7.02305 38.6243 13.0486 47.0365 22.0354 50.0714C22.1386 50.1009 22.2417 50.1156 22.3448 50.1156C22.7426 50.1156 23.1109 49.8652 23.2435 49.4674C23.3908 48.9812 23.1257 48.4361 22.6395 48.274Z" fill="#07BC59"/>
<path d="M57.747 24.0391C57.2902 23.7739 56.7157 23.936 56.4505 24.3779L55.8759 25.3797C55.2277 20.6064 53.3125 16.1425 50.2776 12.3268C46.7123 7.83335 41.7033 4.53327 36.1933 3.04529C35.6924 2.9127 35.1768 3.20735 35.0295 3.70825C34.8969 4.20916 35.1915 4.72479 35.6924 4.87212C46.2556 7.73022 53.8428 17.3211 54.2259 28.2378L53.6808 29.1954C53.6808 29.166 53.6808 29.1512 53.6808 29.1218C53.6808 28.6209 53.6661 28.1052 53.6366 27.6043C53.504 25.4829 53.1062 23.3761 52.4285 21.3578C51.7803 19.3983 50.8816 17.5273 49.7472 15.7889C49.5704 15.5237 49.2758 15.3616 48.9517 15.3616C48.7749 15.3616 48.5981 15.4206 48.436 15.509C48.1708 15.6858 48.0088 15.9804 48.0088 16.3045C48.0088 16.4813 48.0677 16.6581 48.1561 16.8054C50.2628 20.0613 51.5004 23.8328 51.7361 27.7075C51.7656 28.1642 51.7803 28.6503 51.7803 29.1218C51.7803 29.5785 51.7656 30.0205 51.7361 30.4772L51.2057 29.549C51.2057 29.4017 51.2057 29.2544 51.2057 29.1218C51.2057 19.6635 45.1949 11.2513 36.2375 8.20166C35.7366 8.0396 35.2063 8.30479 35.0442 8.79096C34.8821 9.29186 35.1473 9.82223 35.6335 9.98429C42.764 12.4151 47.8615 18.5586 49.0548 25.8217L48.215 24.3632C47.9499 23.9065 47.3753 23.7592 46.9186 24.0243C46.4619 24.2895 46.3145 24.8641 46.5797 25.3208L49.3936 30.1825C49.4231 30.2562 49.4673 30.3151 49.5115 30.374L51.5298 33.8656C51.6919 34.1603 52.016 34.3371 52.3549 34.3371C52.6937 34.3371 53.0031 34.1603 53.1799 33.8656L58.1153 25.3208C58.351 24.8788 58.1889 24.3043 57.747 24.0391Z" fill="#07BC59"/>
<defs>
<linearGradient id="paint0_linear_25_234" x1="16.358" y1="28.2975" x2="34.524" y2="28.2975" gradientUnits="userSpaceOnUse">
<stop stop-color="#2B84DF"/>
<stop offset="1" stop-color="#0095DA"/>
</linearGradient>
<linearGradient id="paint1_linear_25_234" x1="24.9248" y1="32.151" x2="41.8364" y2="32.151" gradientUnits="userSpaceOnUse">
<stop stop-color="#64C08A"/>
<stop offset="0.5" stop-color="#00A550"/>
<stop offset="1" stop-color="#00914C"/>
</linearGradient>
</defs>
</svg>
