<svg width="27" height="21" viewBox="0 0 27 21" fill="none" xmlns="http://www.w3.org/2000/svg">
<g clip-path="url(#clip0_1_28)">
<path fill-rule="evenodd" clip-rule="evenodd" d="M5.15702 16.5751C5.15702 12.7111 9.90302 12.2651 13.472 12.2651H13.827C17.245 12.2981 21.785 12.7801 21.785 16.5531C21.785 20.2721 17.444 20.7911 14.185 20.8531L13.485 20.8601C9.60002 20.8641 5.15702 20.3781 5.15702 16.5751ZM7.77502 16.5751C7.77502 17.5751 9.90402 18.175 13.475 18.175C17.046 18.175 19.175 17.5751 19.175 16.558C19.175 15.541 17.046 14.9631 13.475 14.9631C9.90402 14.9631 7.77502 15.5641 7.77502 16.5751ZM22.541 18.0031C22.0989 17.6973 21.8781 17.16 21.9773 16.6317C22.0765 16.1034 22.4771 15.6828 23 15.5581C23.3941 15.5201 23.7682 15.3671 24.076 15.118C24.1128 15.0363 24.1128 14.9428 24.076 14.8611C23.7648 14.6137 23.388 14.4628 22.992 14.4271C22.5081 14.3156 22.0163 14.2421 21.521 14.2071C21.1708 14.1837 20.8455 14.0178 20.621 13.7481C20.147 13.1832 20.203 12.3449 20.748 11.8481C21.0057 11.6122 21.3497 11.4938 21.698 11.5211C22.3118 11.5623 22.9214 11.6523 23.521 11.7901C24.7528 11.8984 25.8483 12.6171 26.438 13.704C26.8151 14.5206 26.8151 15.4615 26.438 16.278C25.8313 17.3476 24.749 18.0618 23.527 18.199C23.4395 18.2173 23.3504 18.2267 23.261 18.2271C23.004 18.2263 22.7531 18.1483 22.541 18.0031ZM3.42902 18.197C2.20766 18.0603 1.12552 17.3473 0.518019 16.2789C0.138525 15.4615 0.138525 14.5184 0.518019 13.701C1.04986 12.6937 2.03379 12.0038 3.16202 11.847L3.41002 11.794C4.01705 11.6533 4.63435 11.5613 5.25603 11.519C5.60364 11.4924 5.94676 11.6107 6.20403 11.846C6.46891 12.0828 6.62987 12.4144 6.65203 12.769C6.67693 13.1238 6.56249 13.4743 6.33302 13.746C6.10811 14.0153 5.78303 14.181 5.43302 14.205C5.06016 14.2314 4.68918 14.2798 4.32202 14.35L3.94202 14.43C3.55134 14.4664 3.18012 14.6174 2.87502 14.8641C2.83681 14.9451 2.83681 15.0389 2.87502 15.12C3.18254 15.3663 3.55493 15.5181 3.94702 15.557C4.66324 15.7208 5.11642 16.4279 4.96602 17.147C4.90542 17.4938 4.70685 17.8011 4.41568 17.9988C4.1245 18.1965 3.76561 18.2677 3.42102 18.1961L3.42902 18.197ZM7.67302 5.63104C7.7657 2.45148 10.402 -0.0601815 13.5824 0.00109785C16.7628 0.0624382 19.3003 2.67389 19.2703 5.85474C19.2403 9.03552 16.654 11.5987 13.473 11.6C10.2252 11.5496 7.63075 8.88007 7.67301 5.63208L7.67302 5.63104ZM10.291 5.63104C10.3415 7.375 11.7872 8.75287 13.5316 8.71948C15.2759 8.6861 16.6679 7.25391 16.6515 5.50928C16.6352 3.76471 15.2167 2.35882 13.472 2.35809C12.6131 2.36133 11.7917 2.71033 11.1932 3.32629C10.5947 3.94232 10.2695 4.77344 10.291 5.63208V5.63104ZM18.745 9.08704C18.7356 8.354 19.321 7.75159 20.054 7.74005C21.2035 7.70502 22.1173 6.76306 22.1173 5.61304C22.1173 4.46301 21.2035 3.521 20.054 3.48602C19.3126 3.48248 18.7134 2.88049 18.7134 2.13904C18.7134 1.39758 19.3126 0.795592 20.054 0.792052C22.6701 0.857299 24.7569 2.9967 24.7569 5.61359C24.7569 8.23047 22.6701 10.3699 20.054 10.4351C19.321 10.4236 18.7355 9.8211 18.745 9.08807V9.08704ZM2.21402 5.61407C2.18063 2.99029 4.27639 0.834167 6.90001 0.793029C7.38125 0.793029 7.82593 1.0498 8.06656 1.46655C8.30718 1.8833 8.30718 2.39679 8.06656 2.8136C7.82594 3.23035 7.38126 3.48706 6.90001 3.48706C5.75051 3.52203 4.83679 4.46405 4.83679 5.61407C4.83679 6.7641 5.75051 7.70611 6.90002 7.74109C7.62998 7.76086 8.21144 8.35834 8.21144 9.08856C8.21144 9.81879 7.62998 10.4163 6.90002 10.4361C4.27599 10.395 2.18006 8.23816 2.21402 5.61407Z" fill="#0068C9"/>
</g>
<defs>
<clipPath id="clip0_1_28">
<rect width="27" height="21" fill="white"/>
</clipPath>
</defs>
</svg>
