<svg width="23" height="23" viewBox="0 0 23 23" fill="none" xmlns="http://www.w3.org/2000/svg">
<g clip-path="url(#clip0_1_30)">
<path fill-rule="evenodd" clip-rule="evenodd" d="M15.904 22.976C13.8503 22.9677 12.1907 21.2987 12.194 19.245V15.853C12.1895 13.7986 13.8494 12.1283 15.9039 12.12H19.269C21.3231 12.1288 22.9824 13.7989 22.978 15.853V19.245C22.9812 21.2985 21.3222 22.9672 19.2689 22.976H15.904ZM14.569 15.852V19.244C14.5646 19.9865 15.1615 20.5928 15.904 20.6H19.269C20.011 20.5923 20.607 19.986 20.602 19.244V15.852C20.6087 15.109 20.012 14.5011 19.269 14.494H15.904C15.1607 14.5011 14.5635 15.1086 14.569 15.852ZM3.711 22.976C1.65727 22.9677 -0.00231411 21.2987 0.00100467 19.245V15.853C-0.00348141 13.7986 1.65637 12.1283 3.7109 12.12H7.075C9.12953 12.1283 10.7894 13.7985 10.785 15.853V19.245C10.7883 21.2989 9.12862 22.9678 7.07488 22.976H3.711ZM2.377 15.852V19.244C2.37201 19.9864 2.96864 20.5928 3.711 20.6H7.075C7.81753 20.5928 8.41443 19.9865 8.41 19.244V15.852C8.41611 15.1084 7.81856 14.5006 7.07501 14.494H3.712C2.96885 14.5011 2.3719 15.1088 2.378 15.852H2.377ZM15.903 10.857C13.8491 10.8482 12.1897 9.17893 12.193 7.125V3.73199C12.1896 1.67819 13.849 0.00888062 15.9029 0H19.268C21.3217 0.00881958 22.9809 1.67825 22.977 3.73199V7.125C22.9809 9.17874 21.3218 10.8481 19.268 10.857H15.903ZM14.568 3.73199V7.125C14.5636 7.86752 15.1605 8.47382 15.903 8.48096L19.268 8.48099C20.0102 8.47382 20.6065 7.86722 20.601 7.125V3.73199C20.6065 2.98978 20.0102 2.38315 19.268 2.37601H15.904C15.1615 2.38318 14.5646 2.98947 14.569 3.73203L14.568 3.73199ZM3.71 10.857C1.6561 10.8482 -0.00332119 9.17893 5.22391e-06 7.125V3.73199C-0.00339749 1.67819 1.65596 0.00888062 3.70986 0H7.074C9.12791 0.00878906 10.7873 1.67807 10.784 3.73199V7.125C10.7874 9.1788 9.12805 10.8481 7.07414 10.857H3.71ZM2.376 3.73199V7.125C2.37102 7.86737 2.96764 8.47382 3.71 8.48096L7.074 8.48099C7.81676 8.47437 8.41399 7.86777 8.409 7.125V3.73199C8.41398 2.98923 7.81675 2.3826 7.07399 2.37601H3.712C2.96964 2.38318 2.37301 2.98962 2.378 3.73203L2.376 3.73199Z" fill="#0068C9"/>
</g>
<defs>
<clipPath id="clip0_1_30">
<rect width="23" height="23" fill="white"/>
</clipPath>
</defs>
</svg>
