<svg width="20" height="26" viewBox="0 0 20 26" fill="none" xmlns="http://www.w3.org/2000/svg">
<g clip-path="url(#clip0_1_26)">
<path d="M10 19.25C10.3542 19.25 10.6513 19.13 10.8913 18.89C11.1304 18.6508 11.25 18.3542 11.25 18V13C11.25 12.6458 11.1304 12.3487 10.8913 12.1087C10.6513 11.8696 10.3542 11.75 10 11.75C9.64583 11.75 9.34917 11.8696 9.11 12.1087C8.87 12.3487 8.75 12.6458 8.75 13V18C8.75 18.3542 8.87 18.6508 9.11 18.89C9.34917 19.13 9.64583 19.25 10 19.25ZM10 9.25C10.3542 9.25 10.6513 9.13 10.8913 8.89C11.1304 8.65083 11.25 8.35417 11.25 8C11.25 7.64583 11.1304 7.34875 10.8913 7.10875C10.6513 6.86958 10.3542 6.75 10 6.75C9.64583 6.75 9.34917 6.86958 9.11 7.10875C8.87 7.34875 8.75 7.64583 8.75 8C8.75 8.35417 8.87 8.65083 9.11 8.89C9.34917 9.13 9.64583 9.25 10 9.25ZM10 25.4062H9.6875C9.58333 25.4062 9.48958 25.3854 9.40625 25.3438C6.67708 24.4896 4.42708 22.7967 2.65625 20.265C0.885417 17.7342 0 14.9375 0 11.875V5.96875C0 5.44792 0.15125 4.97917 0.45375 4.5625C0.755417 4.14583 1.14583 3.84375 1.625 3.65625L9.125 0.84375C9.41667 0.739583 9.70833 0.6875 10 0.6875C10.2917 0.6875 10.5833 0.739583 10.875 0.84375L18.375 3.65625C18.8542 3.84375 19.245 4.14583 19.5475 4.5625C19.8492 4.97917 20 5.44792 20 5.96875V11.875C20 14.9375 19.1146 17.7342 17.3438 20.265C15.5729 22.7967 13.3229 24.4896 10.5938 25.3438C10.4896 25.3854 10.2917 25.4062 10 25.4062ZM10 22.875C12.1667 22.1875 13.9583 20.8125 15.375 18.75C16.7917 16.6875 17.5 14.3958 17.5 11.875V5.96875L10 3.15625L2.5 5.96875V11.875C2.5 14.3958 3.20833 16.6875 4.625 18.75C6.04167 20.8125 7.83333 22.1875 10 22.875Z" fill="#0068C9"/>
</g>
<defs>
<clipPath id="clip0_1_26">
<rect width="20" height="26" fill="white"/>
</clipPath>
</defs>
</svg>
