<svg width="28" height="28" viewBox="0 0 28 28" fill="none" xmlns="http://www.w3.org/2000/svg">
<path d="M2.47889 1.91345L23.8614 23.296C24.2671 23.7017 24.495 24.252 24.495 24.8258C24.495 25.3996 24.2671 25.9499 23.8614 26.3557C23.4556 26.7612 22.9053 26.9891 22.3315 26.9891C21.7578 26.9891 21.2075 26.7612 20.8017 26.3557L15.5784 21.0424C15.2366 20.6953 15.0448 20.2278 15.0444 19.7406V19.4197C15.0445 19.1737 14.9957 18.9302 14.9008 18.7032C14.806 18.4763 14.667 18.2704 14.4919 18.0976L13.8175 17.4749C13.5886 17.2636 13.3102 17.1134 13.008 17.0379C12.7058 16.9624 12.3894 16.9642 12.088 17.0431C11.6128 17.1671 11.1134 17.1647 10.6394 17.0361C10.1654 16.9075 9.73326 16.6572 9.38585 16.3101L4.42777 11.3514C1.48646 8.41009 0.404075 3.96854 2.47889 1.91345Z" stroke="#F9B959" stroke-width="2" stroke-linejoin="round"/>
<path d="M22.3571 1L17.8737 5.48334C17.5287 5.82827 17.255 6.23777 17.0683 6.68847C16.8816 7.13918 16.7855 7.62224 16.7855 8.11009V8.97252C16.7855 9.09454 16.7615 9.21537 16.7148 9.3281C16.6681 9.44082 16.5996 9.54324 16.5133 9.6295L15.8569 10.2859M17.7141 12.1431L18.3705 11.4867C18.4568 11.4004 18.5592 11.3319 18.6719 11.2852C18.7846 11.2385 18.9055 11.2145 19.0275 11.2145H19.8899C20.3778 11.2145 20.8608 11.1184 21.3115 10.9317C21.7622 10.745 22.1717 10.4713 22.5167 10.1263L27 5.64295M24.6785 3.32147L20.0356 7.96442M10.7497 20.5004L4.96226 26.3203C4.52692 26.7555 3.93655 27 3.32098 27C2.70541 27 2.11504 26.7555 1.6797 26.3203V26.3203C1.24449 25.885 1 25.2946 1 24.679C1 24.0635 1.24449 23.4731 1.6797 23.0377L6.57104 18.1789" stroke="#F9B959" stroke-width="2" stroke-linecap="round" stroke-linejoin="round"/>
</svg>
