<svg width="23" height="21" viewBox="0 0 23 21" fill="none" xmlns="http://www.w3.org/2000/svg">
<g clip-path="url(#clip0_1_24)">
<path fill-rule="evenodd" clip-rule="evenodd" d="M7.10049 0.0177072C5.89324 -0.0103525 4.68537 0.0263667 3.48205 0.127663C2.58842 0.162704 1.73615 0.513417 1.07671 1.11754C0.486484 1.81356 0.149231 2.68885 0.119863 3.60095C0.00959592 4.1405 -0.0248326 4.69283 0.0175758 5.24191V15.6903C-0.0233012 16.2426 0.0137243 16.798 0.127557 17.3401C0.157371 18.2525 0.495433 19.1278 1.08661 19.8235C1.74605 20.4276 2.59832 20.7783 3.49194 20.8133C4.69384 20.914 5.90024 20.9508 7.10603 20.9233H14.9368C16.144 20.9514 17.3519 20.9147 18.5552 20.8133C19.4489 20.7784 20.3012 20.4277 20.9606 19.8235C21.5508 19.1274 21.8881 18.2522 21.9174 17.3401C22.0266 16.7974 22.0591 16.242 22.0142 15.6903V5.24191C22.0552 4.68954 22.0181 4.13419 21.9042 3.59216C21.8744 2.67975 21.5364 1.80436 20.9452 1.10874C20.2858 0.504455 19.4335 0.153709 18.5399 0.11887C17.3379 0.0179757 16.1315 -0.0187436 14.9257 0.00891335L7.10049 0.0177072ZM7.10052 2.10738H14.9313C16.4447 2.10738 17.5709 2.11399 18.321 2.20086C18.753 2.19579 19.1748 2.33213 19.522 2.58913C19.7738 2.95333 19.9056 3.38698 19.8993 3.82969C20.0107 4.29167 20.0416 4.76942 19.9906 5.24187V6.28673H15.9432C15.8692 6.28612 15.7954 6.29384 15.7232 6.30982C13.5633 6.49258 11.9033 8.29903 11.9033 10.4666C11.9033 12.6343 13.5633 14.4407 15.7232 14.6235C15.7955 14.6391 15.8693 14.6464 15.9432 14.6454H19.9906V15.6903C20.0412 16.162 20.0103 16.639 19.8993 17.1003C19.9059 17.5427 19.7748 17.9762 19.5242 18.3409C19.1771 18.5982 18.7553 18.735 18.3232 18.7302C17.5687 18.8182 16.4469 18.8237 14.9324 18.8237H7.10052C6.71338 18.8237 6.42523 18.8182 6.08868 18.816V2.1151C6.42523 2.1151 6.71338 2.10741 7.10052 2.10741V2.10738ZM4.06499 2.18105V18.7511C3.955 18.7423 3.80542 18.7412 3.71084 18.7313C3.27849 18.7367 2.85628 18.6003 2.50872 18.3431C2.25705 17.9789 2.12518 17.5452 2.13149 17.1025C2.01988 16.6406 1.98899 16.1628 2.0402 15.6903V5.24191C1.98936 4.77016 2.02024 4.29318 2.13149 3.83194C2.12477 3.3895 2.25583 2.95592 2.50653 2.59127C2.85395 2.33367 3.27617 2.19693 3.70864 2.20196C3.80323 2.19095 3.95721 2.19095 4.06389 2.18216L4.06499 2.18105ZM15.9431 8.3764H19.9905V12.5557H15.9431C14.7911 12.5528 13.8587 11.6181 13.8587 10.4661C13.8587 9.31405 14.7911 8.37932 15.9431 8.3764ZM15.9431 9.42125C15.5178 9.40783 15.1268 9.65368 14.9546 10.0429C14.7824 10.432 14.8635 10.8867 15.1595 11.1924C15.4556 11.4981 15.9075 11.5937 16.3019 11.4342C16.6964 11.2746 16.9547 10.8917 16.955 10.4661C16.9594 10.1934 16.8552 9.93002 16.6655 9.73407C16.4757 9.53812 16.2159 9.42558 15.9431 9.42125Z" fill="#0068C9"/>
</g>
<defs>
<clipPath id="clip0_1_24">
<rect width="23" height="21" fill="white"/>
</clipPath>
</defs>
</svg>
