<svg width="24" height="24" viewBox="0 0 24 24" fill="none" xmlns="http://www.w3.org/2000/svg">
<g clip-path="url(#clip0_1_17)">
<path fill-rule="evenodd" clip-rule="evenodd" d="M9.08 21C9.08849 20.6896 8.89143 20.4107 8.596 20.315C8.35677 20.2084 8.07687 20.2566 7.887 20.437L7.828 20.4959C7.06994 21.2543 5.96473 21.5507 4.92886 21.2732C3.89299 20.9958 3.08392 20.1866 2.80652 19.1507C2.52912 18.1148 2.82557 17.0096 3.58415 16.2516L3.636 16.1999C3.81697 16.0098 3.86879 15.7309 3.76816 15.4884C3.66752 15.2461 3.43338 15.0858 3.171 15.0799H3C1.9282 15.0799 0.937821 14.5081 0.401925 13.5799C-0.133975 12.6516 -0.133975 11.5081 0.401925 10.5799C0.937821 9.65164 1.9282 9.07986 3 9.07986C3.31078 9.08878 3.5902 8.89163 3.686 8.59586C3.79258 8.3566 3.74442 8.07669 3.564 7.88687L3.505 7.82791C2.74648 7.06998 2.45001 5.965 2.72733 4.92923C3.00464 3.89346 3.81359 3.08438 4.84932 2.80679C5.88506 2.52933 6.99015 2.82559 7.74815 3.58402L7.8 3.6359C7.98977 3.82144 8.27317 3.87283 8.516 3.76602C8.58038 3.73807 8.64737 3.71658 8.716 3.70193C8.89216 3.58231 8.99832 3.38382 9 3.17093V3.00003C9 1.92825 9.5718 0.937897 10.5 0.402008C11.4282 -0.134003 12.5718 -0.134003 13.5 0.402008C14.4282 0.937897 15 1.92825 15 3.00003V3.08609C15.0013 3.34805 15.1587 3.58402 15.4 3.68594C15.6392 3.79227 15.919 3.74417 16.109 3.56412L16.168 3.50406C17.3397 2.33145 19.24 2.33084 20.4125 3.50259C21.585 4.67422 21.5856 6.57462 20.4139 7.7471L20.361 7.80008C20.1748 7.98978 20.1229 8.27371 20.23 8.51712C20.2584 8.58121 20.2799 8.64822 20.294 8.71707C20.4134 8.89359 20.6119 9.00015 20.825 9.00211H21C22.0718 9.00211 23.0622 9.57388 23.5981 10.5021C24.134 11.4303 24.134 12.5739 23.5981 13.5021C23.0622 14.4303 22.0718 15.0021 21 15.0021H20.914C20.6528 15.0064 20.4184 15.1636 20.3154 15.4037C20.2124 15.6438 20.26 15.922 20.437 16.1142L20.496 16.1731C21.2544 16.9311 21.5508 18.036 21.2735 19.0718C20.9961 20.1075 20.1873 20.9165 19.1516 21.194C18.116 21.4716 17.0109 21.1754 16.2529 20.4171L16.201 20.3661C16.0108 20.1856 15.7322 20.1338 15.4898 20.2342C15.2475 20.3345 15.0869 20.568 15.08 20.8302V21.0002C15.08 22.0719 14.5082 23.0623 13.58 23.5982C12.6518 24.1342 11.5082 24.1342 10.58 23.5982C9.6518 23.0623 9.08 22.0719 9.08 21.0002V21ZM9.346 18.4621C10.3736 18.8423 11.0623 19.8145 11.08 20.9101V21C11.08 21.5523 11.5277 22 12.08 22C12.6323 22 13.08 21.5523 13.08 21V20.8261C13.0875 19.7574 13.7334 18.7965 14.7202 18.3861C15.7071 17.9756 16.8437 18.195 17.607 18.9431L17.668 19.0031C18.0593 19.3938 18.6933 19.3933 19.084 19.0021C19.4747 18.6107 19.4743 17.9768 19.083 17.5861L19.015 17.5181C18.2726 16.7522 18.0586 15.6172 18.4712 14.6336C18.8838 13.6499 19.8433 13.0072 20.91 13H21C21.5523 13 22 12.5523 22 12C22 11.4478 21.5523 11 21 11H20.826C19.7695 10.9961 18.8162 10.3651 18.4 9.39407C18.3639 9.30948 18.3397 9.22025 18.328 9.12906C17.9947 8.17398 18.2332 7.11258 18.943 6.392L19.003 6.33194C19.3938 5.94058 19.3936 5.30655 19.0024 4.91556C18.6112 4.52469 17.9772 4.52469 17.5861 4.9158L17.519 4.98392C16.7526 5.7283 15.6156 5.94278 14.6306 5.52872C13.6457 5.11478 13.0034 4.15237 12.999 3.08389V3.00003C12.999 2.44778 12.5513 2.00003 11.999 2.00003C11.4467 2.00003 10.999 2.44778 10.999 3.00003V3.17508C10.995 4.23123 10.3639 5.18423 9.393 5.60013C9.30829 5.63602 9.21917 5.66055 9.128 5.67313C8.17298 6.00589 7.11183 5.76749 6.39099 5.05814L6.33099 4.99808C5.94006 4.60696 5.3061 4.60684 4.91499 4.99783C4.52387 5.3887 4.52372 6.02274 4.91464 6.41385L4.98299 6.48209C5.72994 7.23672 5.9486 8.36722 5.53699 9.3461C5.15697 10.3744 4.18416 11.0636 3.08799 11.0811H3C2.44772 11.0811 2 11.5288 2 12.0811C2 12.6333 2.44771 13.0811 3 13.0811H3.175C4.24331 13.0895 5.20322 13.7354 5.61352 14.7218C6.02382 15.7082 5.80515 16.8444 5.058 17.6079L4.998 17.6691C4.60725 18.0601 4.60746 18.6939 4.99848 19.0846C5.38949 19.4754 6.02324 19.4751 6.41399 19.0841L6.482 19.0161C6.97975 18.5293 7.64779 18.256 8.344 18.2542C8.68885 18.2528 9.03017 18.3238 9.346 18.4622V18.4621ZM8 12C8 9.79092 9.79086 8.00003 12 8.00003C14.2091 8.00003 16 9.79092 16 12C16 14.2091 14.2092 16 12 16C9.79088 16 8 14.2091 8 12ZM10 12C10 13.1046 10.8954 14 12 14C13.1046 14 14 13.1046 14 12C14 10.8954 13.1046 10 12 10C10.8954 10 10 10.8954 10 12ZM18.484 14.6V15.6V14.6Z" fill="#0068C9"/>
</g>
<defs>
<clipPath id="clip0_1_17">
<rect width="24" height="24" fill="white"/>
</clipPath>
</defs>
</svg>
