<svg width="24" height="24" viewBox="0 0 24 24" fill="none" xmlns="http://www.w3.org/2000/svg">
<g clip-path="url(#clip0_1_49)">
<path d="M11.9999 0C5.56692 0 0.333252 5.23367 0.333252 11.6667V16.5002C0.333252 17.6948 1.37975 18.6667 2.66659 18.6667H3.83325C4.14267 18.6667 4.43942 18.5438 4.65821 18.325C4.877 18.1062 4.99992 17.8094 4.99992 17.5V11.4998C4.99992 11.1904 4.877 10.8937 4.65821 10.6749C4.43942 10.4561 4.14267 10.3332 3.83325 10.3332H2.77392C3.42259 5.81817 7.30759 2.33333 11.9999 2.33333C16.6923 2.33333 20.5773 5.81817 21.2259 10.3332H20.1666C19.8572 10.3332 19.5604 10.4561 19.3416 10.6749C19.1228 10.8937 18.9999 11.1904 18.9999 11.4998V18.6667C18.9999 19.9535 17.9534 21 16.6666 21H14.3333V19.8333H9.66659V23.3333H16.6666C19.2403 23.3333 21.3333 21.2403 21.3333 18.6667C22.6201 18.6667 23.6666 17.6948 23.6666 16.5002V11.6667C23.6666 5.23367 18.4329 0 11.9999 0Z" fill="#0068C9"/>
</g>
<defs>
<clipPath id="clip0_1_49">
<rect width="24" height="24" fill="white"/>
</clipPath>
</defs>
</svg>
