<svg width="24" height="26" viewBox="0 0 24 26" fill="none" xmlns="http://www.w3.org/2000/svg">
<g clip-path="url(#clip0_1_44)">
<path d="M23.25 14.75C23.2518 13.8738 23.0342 13.0111 22.6172 12.2406C22.2002 11.47 21.5969 10.816 20.8624 10.3383C20.1279 9.86063 19.2855 9.57435 18.412 9.50558C17.5386 9.43682 16.6618 9.58776 15.8616 9.94465C15.0614 10.3015 14.3632 10.853 13.8307 11.5489C13.2982 12.2447 12.9484 13.0627 12.813 13.9284C12.6777 14.794 12.7611 15.6798 13.0558 16.5049C13.3504 17.3301 13.8469 18.0684 14.5 18.6525V25.25L18 23.5936L21.5 25.25V18.6525C22.0501 18.162 22.4904 17.5607 22.7919 16.8882C23.0935 16.2157 23.2496 15.487 23.25 14.75ZM19.75 22.485L18 21.6564L16.25 22.485V19.6937C17.3809 20.1022 18.6191 20.1022 19.75 19.6937V22.485ZM18 18.25C17.3078 18.25 16.6311 18.0447 16.0555 17.6601C15.4799 17.2756 15.0313 16.7289 14.7664 16.0894C14.5015 15.4499 14.4322 14.7461 14.5673 14.0672C14.7023 13.3883 15.0356 12.7646 15.5251 12.2751C16.0146 11.7856 16.6383 11.4523 17.3172 11.3173C17.9961 11.1822 18.6999 11.2515 19.3394 11.5164C19.9789 11.7813 20.5256 12.2299 20.9101 12.8055C21.2947 13.3811 21.5 14.0578 21.5 14.75C21.4988 15.6779 21.1297 16.5675 20.4736 17.2236C19.8175 17.8797 18.9279 18.2488 18 18.25ZM4.875 11.25H11V13H4.875V11.25ZM4.875 6H13.625V7.75H4.875V6Z" fill="#0068C9"/>
<path d="M2.25 25.25C1.78601 25.2495 1.34116 25.065 1.01307 24.7369C0.684987 24.4088 0.500463 23.964 0.5 23.5V2.5C0.500463 2.03601 0.684987 1.59116 1.01307 1.26307C1.34116 0.934987 1.78601 0.750463 2.25 0.75H16.25C16.714 0.750463 17.1588 0.934987 17.4869 1.26307C17.815 1.59116 17.9995 2.03601 18 2.5V6H16.25V2.5H2.25V23.5H11V25.25H2.25Z" fill="#0068C9"/>
</g>
<defs>
<clipPath id="clip0_1_44">
<rect width="24" height="26" fill="white"/>
</clipPath>
</defs>
</svg>
