<?xml version="1.0" standalone="no"?>
<!DOCTYPE svg PUBLIC "-//W3C//DTD SVG 20010904//EN"
 "http://www.w3.org/TR/2001/REC-SVG-20010904/DTD/svg10.dtd">
<svg version="1.0" xmlns="http://www.w3.org/2000/svg"
 width="512.000000pt" height="512.000000pt" viewBox="0 0 512.000000 512.000000"
 preserveAspectRatio="xMidYMid meet">

<g transform="translate(0.000000,512.000000) scale(0.100000,-0.100000)"
fill="#000000" stroke="none">
<path d="M2470 4674 c-43 -18 -1551 -1521 -1585 -1579 -52 -90 -40 -181 35
-255 69 -70 158 -85 245 -43 17 8 290 274 607 591 l578 577 2 -1701 3 -1700
25 -37 c14 -21 43 -50 64 -65 35 -24 49 -27 116 -27 67 0 81 3 116 27 21 15
50 44 64 65 l25 37 3 1700 2 1701 578 -577 c317 -317 591 -583 607 -591 87
-42 176 -27 245 43 75 74 87 165 35 255 -36 62 -1542 1561 -1587 1580 -47 19
-132 19 -178 -1z"/>
</g>
</svg>
