<svg width="24" height="25" viewBox="0 0 24 25" fill="none" xmlns="http://www.w3.org/2000/svg">
<g clip-path="url(#clip0_1_51)">
<path fill-rule="evenodd" clip-rule="evenodd" d="M6.821 24.017C2.805 24.017 0 21.102 0 16.929V7.64099C0 3.46799 2.805 0.552979 6.821 0.552979H16.704C20.721 0.552979 23.525 3.46698 23.525 7.64099V16.929C23.525 21.102 20.725 24.017 16.704 24.017H6.821ZM2.431 7.64099V16.929C2.431 19.804 4.112 21.591 6.819 21.591H16.702C19.409 21.591 21.09 19.805 21.09 16.929V7.64099C21.09 4.76498 19.409 2.97998 16.702 2.97998H6.821C4.113 2.98001 2.431 4.76599 2.431 7.64099ZM15.437 17.774L15.428 17.636V14.206C15.428 13.5664 15.9238 13.036 16.5621 12.993C17.2005 12.9499 17.763 13.4088 17.849 14.0428L17.858 14.18V17.61C17.8585 18.2499 17.3628 18.7807 16.7243 18.824C16.0858 18.8673 15.523 18.4083 15.437 17.7741V17.774ZM10.596 17.774L10.586 17.639V6.93896C10.5855 6.29907 11.0812 5.76825 11.7197 5.72491C12.3582 5.68161 12.9211 6.14066 13.007 6.77484L13.018 6.91095V17.611C13.0185 18.2509 12.5228 18.7817 11.8843 18.825C11.2458 18.8683 10.683 18.4093 10.597 17.7751L10.596 17.774ZM5.675 17.774L5.665 17.638V10.393C5.66782 9.75504 6.16279 9.22754 6.79927 9.1842C7.43575 9.14084 7.99768 9.59631 8.08701 10.228L8.097 10.364V17.609C8.09799 18.2491 7.60244 18.7804 6.96373 18.824C6.32502 18.8676 5.76193 18.4084 5.67601 17.774H5.675Z" fill="#0068C9"/>
</g>
<defs>
<clipPath id="clip0_1_51">
<rect width="24" height="25" fill="white"/>
</clipPath>
</defs>
</svg>
